SplineFontDB: 3.0
FontName: DuctusSans
FullName: DuctusSans
FamilyName: DuctusSans
Weight: Book
Copyright: Copyright (c) 2017, Ame'lie Dumont,,,
Version: 001.000
ItalicAngle: 0
UnderlinePosition: -150
UnderlineWidth: 50
Ascent: 800
Descent: 200
InvalidEm: 0
sfntRevision: 0x00010000
LayerCount: 2
Layer: 0 1 "Arri+AOgA-re" 1
Layer: 1 1 "Avant" 0
XUID: [1021 706 -322349554 7149052]
StyleMap: 0x0000
FSType: 0
OS2Version: 4
OS2_WeightWidthSlopeOnly: 0
OS2_UseTypoMetrics: 1
CreationTime: 1510948569
ModificationTime: 1519141084
PfmFamily: 17
TTFWeight: 400
TTFWidth: 5
LineGap: 90
VLineGap: 0
Panose: 2 0 5 3 0 0 0 0 0 0
OS2TypoAscent: 800
OS2TypoAOffset: 0
OS2TypoDescent: -200
OS2TypoDOffset: 0
OS2TypoLinegap: 90
OS2WinAscent: 1194
OS2WinAOffset: 0
OS2WinDescent: 231
OS2WinDOffset: 0
HheadAscent: 1194
HheadAOffset: 0
HheadDescent: -231
HheadDOffset: 0
OS2SubXSize: 650
OS2SubYSize: 700
OS2SubXOff: 0
OS2SubYOff: 140
OS2SupXSize: 650
OS2SupYSize: 700
OS2SupXOff: 0
OS2SupYOff: 480
OS2StrikeYSize: 49
OS2StrikeYPos: 258
OS2CapHeight: 731
OS2XHeight: 531
OS2Vendor: 'PfEd'
OS2CodePages: 00000001.00000000
OS2UnicodeRanges: 00000003.00000000.00000000.00000000
MarkAttachClasses: 1
DEI: 91125
ShortTable: cvt  2
  33
  633
EndShort
ShortTable: maxp 16
  1
  0
  150
  99
  5
  0
  0
  2
  0
  1
  1
  0
  64
  46
  0
  0
EndShort
LangName: 1033 "" "" "Regular"
GaspTable: 1 65535 2 0
Encoding: UnicodeBmp
UnicodeInterp: none
NameList: AGL For New Fonts
DisplaySize: -48
AntiAlias: 1
FitToEm: 0
WinInfo: 0 30 11
BeginPrivate: 0
EndPrivate
Grid
-1000 588.400024414 m 0
 2000 588.400024414 l 1024
-1000 -10.1745452881 m 0
 2000 -10.1745452881 l 1024
-1000 531.825439453 m 0
 2000 531.825439453 l 1024
EndSplineSet
BeginChars: 65539 150

StartChar: .notdef
Encoding: 65536 -1 0
Width: 364
Flags: W
LayerCount: 2
Fore
SplineSet
33 0 m 1,0,-1
 33 666 l 1,1,-1
 298 666 l 1,2,-1
 298 0 l 1,3,-1
 33 0 l 1,0,-1
66 33 m 1,4,-1
 265 33 l 1,5,-1
 265 633 l 1,6,-1
 66 633 l 1,7,-1
 66 33 l 1,4,-1
EndSplineSet
EndChar

StartChar: exclam
Encoding: 33 33 4
Width: 260
Flags: W
LayerCount: 2
Fore
SplineSet
130 730 m 1,0,-1
 170 730 l 1,1,-1
 170 243 l 1,2,-1
 130 243 l 1,3,-1
 90 243 l 1,4,-1
 90 730 l 1,5,-1
 130 730 l 1,0,-1
130 97 m 1,6,-1
 170 97 l 1,7,-1
 170 0 l 1,8,-1
 130 0 l 1,9,-1
 90 0 l 1,10,-1
 90 97 l 1,11,-1
 130 97 l 1,6,-1
EndSplineSet
EndChar

StartChar: quotedbl
Encoding: 34 34 5
Width: 468
Flags: W
LayerCount: 2
Fore
SplineSet
133 731 m 1,0,-1
 93 731 l 1,1,-1
 93 840 l 1,2,-1
 133 840 l 1,3,-1
 173 840 l 1,4,-1
 173 731 l 1,5,-1
 133 731 l 1,0,-1
327 731 m 1,6,-1
 287 731 l 1,7,-1
 287 840 l 1,8,-1
 327 840 l 1,9,-1
 367 840 l 1,10,-1
 367 731 l 1,11,-1
 327 731 l 1,6,-1
EndSplineSet
EndChar

StartChar: numbersign
Encoding: 35 35 6
Width: 1452
Flags: W
LayerCount: 2
Fore
SplineSet
576 163 m 1,0,-1
 576 123 l 1,1,-1
 187 123 l 1,2,-1
 187 163 l 1,3,-1
 187 203 l 1,4,-1
 576 203 l 1,5,-1
 576 163 l 1,0,-1
576 358 m 1,6,-1
 576 318 l 1,7,-1
 187 318 l 1,8,-1
 187 358 l 1,9,-1
 187 398 l 1,10,-1
 576 398 l 1,11,-1
 576 358 l 1,6,-1
333 504 m 1,12,-1
 372 500 l 1,13,-1
 324 13 l 1,14,-1
 284 17 l 1,15,-1
 244 21 l 1,16,-1
 293 508 l 1,17,-1
 333 504 l 1,12,-1
479 504 m 1,18,-1
 518 500 l 1,19,-1
 470 13 l 1,20,-1
 430 17 l 1,21,-1
 390 21 l 1,22,-1
 439 508 l 1,23,-1
 479 504 l 1,18,-1
EndSplineSet
EndChar

StartChar: dollar
Encoding: 36 36 7
Width: 641
Flags: W
LayerCount: 2
Fore
SplineSet
521 585 m 1,0,-1
 487 565 l 1,1,2
 448 632 448 632 380 657 c 0,3,4
 315 682 315 682 253.5 658 c 128,-1,5
 192 634 192 634 169 572 c 0,6,7
 158 542 158 542 173 520 c 128,-1,8
 188 498 188 498 226 481 c 128,-1,9
 264 464 264 464 308 448.5 c 128,-1,10
 352 433 352 433 410.5 406.5 c 128,-1,11
 469 380 469 380 514 348 c 0,12,13
 556 319 556 319 578 282.5 c 128,-1,14
 600 246 600 246 596 195.5 c 128,-1,15
 592 145 592 145 554 91 c 0,16,17
 552 88 552 88 549 85 c 0,18,19
 524 60 524 60 494 41 c 0,20,21
 422 -5 422 -5 337 -9 c 128,-1,22
 252 -13 252 -13 174.5 26.5 c 128,-1,23
 97 66 97 66 49 141 c 1,24,-1
 83 162 l 1,25,-1
 117 184 l 1,26,27
 153 127 153 127 211 97.5 c 128,-1,28
 269 68 269 68 333 71 c 128,-1,29
 397 74 397 74 451 109 c 0,30,31
 472 122 472 122 490 140 c 1,32,33
 510 168 510 168 517 189 c 128,-1,34
 524 210 524 210 518.5 227 c 128,-1,35
 513 244 513 244 501 256.5 c 128,-1,36
 489 269 489 269 466 285 c 0,37,38
 452 294 452 294 429 304.5 c 128,-1,39
 406 315 406 315 381.5 324 c 128,-1,40
 357 333 357 333 327.5 344.5 c 128,-1,41
 298 356 298 356 270.5 367 c 128,-1,42
 243 378 243 378 215 392 c 128,-1,43
 187 406 187 406 164.5 421 c 128,-1,44
 142 436 142 436 123 455.5 c 128,-1,45
 104 475 104 475 95 496 c 128,-1,46
 86 517 86 517 84 543.5 c 128,-1,47
 82 570 82 570 94 599 c 0,48,49
 112 647 112 647 147 682 c 128,-1,50
 182 717 182 717 224.5 732 c 128,-1,51
 267 747 267 747 315 748.5 c 128,-1,52
 363 750 363 750 408 732 c 0,53,54
 503 697 503 697 556 605 c 1,55,-1
 521 585 l 1,0,-1
328 781 m 1,56,-1
 368 781 l 1,57,-1
 368 -41 l 1,58,-1
 328 -41 l 1,59,-1
 288 -41 l 1,60,-1
 288 781 l 1,61,-1
 328 781 l 1,56,-1
EndSplineSet
EndChar

StartChar: percent
Encoding: 37 37 8
Width: 693
Flags: W
LayerCount: 2
Fore
SplineSet
270 607 m 1,0,-1
 304 586 l 1,1,2
 283 552 283 552 250.5 537 c 128,-1,3
 218 522 218 522 186.5 525.5 c 128,-1,4
 155 529 155 529 128 546 c 0,5,6
 100 564 100 564 83.5 592 c 128,-1,7
 67 620 67 620 67.5 657 c 128,-1,8
 68 694 68 694 92 728 c 1,9,-1
 124 705 l 1,10,-1
 131 700 l 1,11,-1
 137 696 l 1,12,-1
 157 682 l 1,13,14
 152 675 152 675 149.5 668 c 128,-1,15
 147 661 147 661 146.5 654.5 c 128,-1,16
 146 648 146 648 147.5 642.5 c 128,-1,17
 149 637 149 637 152.5 631.5 c 128,-1,18
 156 626 156 626 160.5 622 c 128,-1,19
 165 618 165 618 171 614 c 0,20,21
 211 588 211 588 237 629 c 1,22,-1
 270 607 l 1,0,-1
124 705 m 1,23,-1
 91 726 l 1,24,25
 112 760 112 760 144.5 774.5 c 128,-1,26
 177 789 177 789 208.5 786 c 128,-1,27
 240 783 240 783 267 766 c 0,28,29
 295 748 295 748 311.5 720 c 128,-1,30
 328 692 328 692 327.5 655 c 128,-1,31
 327 618 327 618 303 584 c 1,32,-1
 270 607 l 1,33,-1
 264 612 l 1,34,-1
 258 616 l 1,35,-1
 238 630 l 1,36,37
 252 653 252 653 247.5 669.5 c 128,-1,38
 243 686 243 686 224 698 c 0,39,40
 184 724 184 724 158 683 c 1,41,-1
 124 705 l 1,23,-1
563 72 m 1,42,-1
 596 50 l 1,43,44
 575 17 575 17 542.5 2 c 128,-1,45
 510 -13 510 -13 478.5 -9.5 c 128,-1,46
 447 -6 447 -6 420 11 c 0,47,48
 392 29 392 29 375.5 57 c 128,-1,49
 359 85 359 85 359.5 121.5 c 128,-1,50
 360 158 360 158 384 192 c 1,51,-1
 416 169 l 1,52,-1
 423 165 l 1,53,-1
 429 161 l 1,54,-1
 449 146 l 1,55,56
 435 124 435 124 439.5 107 c 128,-1,57
 444 90 444 90 463 78 c 0,58,59
 503 53 503 53 529 93 c 1,60,-1
 563 72 l 1,42,-1
433 159 m 2,61,62
 416 169 416 169 416 169 c 1,63,-1
 383 191 l 1,64,65
 404 224 404 224 436.5 239 c 128,-1,66
 469 254 469 254 500.5 250.5 c 128,-1,67
 532 247 532 247 559 230 c 0,68,69
 587 213 587 213 603.5 184.5 c 128,-1,70
 620 156 620 156 619.5 119.5 c 128,-1,71
 619 83 619 83 595 49 c 1,72,-1
 563 72 l 1,73,-1
 556 76 l 1,74,-1
 550 81 l 1,75,-1
 530 95 l 1,76,77
 539 109 539 109 540 122 c 128,-1,78
 541 135 541 135 534.5 145 c 128,-1,79
 528 155 528 155 516 163 c 0,80,81
 476 188 476 188 450 148 c 1,82,-1
 433 159 l 2,61,62
514 705 m 1,83,-1
 549 685 l 1,84,-1
 159 3 l 1,85,-1
 124 23 l 1,86,-1
 90 43 l 1,87,-1
 479 724 l 1,88,-1
 514 705 l 1,83,-1
EndSplineSet
EndChar

StartChar: ampersand
Encoding: 38 38 9
Width: 657
Flags: W
LayerCount: 2
Fore
SplineSet
511 384 m 1,0,-1
 551 384 l 1,1,2
 551 307 551 307 530 238 c 0,3,4
 533 235 533 235 534 233 c 0,5,6
 560 201 560 201 572 166 c 128,-1,7
 584 131 584 131 578 89 c 128,-1,8
 572 47 572 47 544 7 c 1,9,-1
 511 30 l 1,10,-1
 478 53 l 1,11,12
 499 82 499 82 501.5 106 c 128,-1,13
 504 130 504 130 493 150 c 1,14,15
 459 89 459 89 410 48 c 0,16,17
 363 9 363 9 309 -7 c 128,-1,18
 255 -23 255 -23 201 -9 c 128,-1,19
 147 5 147 5 108 51 c 0,20,21
 72 93 72 93 66.5 142 c 128,-1,22
 61 191 61 191 82 237.5 c 128,-1,23
 103 284 103 284 135 324.5 c 128,-1,24
 167 365 167 365 209 400 c 1,25,26
 183 426 183 426 166 454.5 c 128,-1,27
 149 483 149 483 141 515.5 c 128,-1,28
 133 548 133 548 141.5 585 c 128,-1,29
 150 622 150 622 176 658 c 0,30,31
 196 687 196 687 226 697.5 c 128,-1,32
 256 708 256 708 284.5 702 c 128,-1,33
 313 696 313 696 337 679 c 0,34,35
 371 655 371 655 391 617.5 c 128,-1,36
 411 580 411 580 408.5 530.5 c 128,-1,37
 406 481 406 481 374 435 c 0,38,39
 371 431 371 431 366 426 c 128,-1,40
 361 421 361 421 356.5 417 c 128,-1,41
 352 413 352 413 346 407 c 128,-1,42
 340 401 340 401 336 398 c 1,43,44
 350 387 350 387 376 368.5 c 128,-1,45
 402 350 402 350 424 333.5 c 128,-1,46
 446 317 446 317 464 302 c 1,47,48
 471 342 471 342 471 384 c 1,49,-1
 511 384 l 1,0,-1
438 219 m 1,50,51
 411 243 411 243 346.5 290.5 c 128,-1,52
 282 338 282 338 271 347 c 1,53,54
 216 303 216 303 184.5 257.5 c 128,-1,55
 153 212 153 212 148.5 172.5 c 128,-1,56
 144 133 144 133 169 102 c 0,57,58
 201 62 201 62 253.5 63.5 c 128,-1,59
 306 65 306 65 359 109 c 0,60,61
 409 151 409 151 438 219 c 1,50,51
279 450 m 1,62,63
 297 465 297 465 309 482 c 0,64,65
 320 498 320 498 325 514.5 c 128,-1,66
 330 531 330 531 329 545.5 c 128,-1,67
 328 560 328 560 323 573 c 128,-1,68
 318 586 318 586 309.5 596 c 128,-1,69
 301 606 301 606 291 614 c 0,70,71
 258 637 258 637 241 613 c 0,72,73
 220 582 220 582 218.5 555 c 128,-1,74
 217 528 217 528 231.5 504 c 128,-1,75
 246 480 246 480 279 450 c 1,62,63
EndSplineSet
EndChar

StartChar: quotesingle
Encoding: 39 39 10
Width: 209
Flags: W
LayerCount: 2
Fore
SplineSet
81 604 m 1,0,-1
 46 623 l 1,1,2
 90 706 90 706 90 799 c 1,3,-1
 130 799 l 1,4,-1
 170 799 l 1,5,6
 170 686 170 686 117 586 c 1,7,-1
 81 604 l 1,0,-1
EndSplineSet
EndChar

StartChar: parenleft
Encoding: 40 40 11
Width: 339
Flags: W
LayerCount: 2
Fore
SplineSet
247 753 m 1,0,-1
 278 727 l 1,1,2
 191 623 191 623 160.5 493.5 c 128,-1,3
 130 364 130 364 160.5 234 c 128,-1,4
 191 104 191 104 278 0 c 1,5,-1
 247 -26 l 1,6,-1
 217 -51 l 1,7,8
 117 67 117 67 82.5 215.5 c 128,-1,9
 48 364 48 364 82.5 512 c 128,-1,10
 117 660 117 660 217 779 c 1,11,-1
 247 753 l 1,0,-1
EndSplineSet
EndChar

StartChar: parenright
Encoding: 41 41 12
Width: 356
Flags: W
LayerCount: 2
Fore
SplineSet
87 756 m 1,0,-1
 118 782 l 1,1,2
 217 663 217 663 252 515 c 128,-1,3
 287 367 287 367 252 218.5 c 128,-1,4
 217 70 217 70 118 -48 c 1,5,-1
 87 -23 l 1,6,-1
 56 3 l 1,7,8
 143 107 143 107 174 237 c 128,-1,9
 205 367 205 367 174 496.5 c 128,-1,10
 143 626 143 626 56 730 c 1,11,-1
 87 756 l 1,0,-1
EndSplineSet
EndChar

StartChar: plus
Encoding: 43 43 14
Width: 455
Flags: W
LayerCount: 2
Fore
SplineSet
374 277 m 1,0,-1
 374 237 l 1,1,-1
 82 237 l 1,2,-1
 82 277 l 1,3,-1
 82 317 l 1,4,-1
 374 317 l 1,5,-1
 374 277 l 1,0,-1
228 423 m 1,6,-1
 268 423 l 1,7,-1
 268 131 l 1,8,-1
 228 131 l 1,9,-1
 188 131 l 1,10,-1
 188 423 l 1,11,-1
 228 423 l 1,6,-1
EndSplineSet
EndChar

StartChar: comma
Encoding: 44 44 15
Width: 234
Flags: W
LayerCount: 2
Fore
SplineSet
75 -155 m 5,0,-1
 38 -140 l 5,1,2
 84 -31 84 -31 84 88 c 5,3,-1
 124 88 l 5,4,-1
 164 88 l 5,5,6
 164 -46 164 -46 112 -171 c 5,7,-1
 75 -155 l 5,0,-1
EndSplineSet
EndChar

StartChar: hyphen
Encoding: 45 45 16
Width: 479
Flags: W
LayerCount: 2
Fore
SplineSet
386 298 m 1,0,-1
 386 258 l 1,1,-1
 94 258 l 1,2,-1
 94 298 l 1,3,-1
 94 338 l 1,4,-1
 386 338 l 1,5,-1
 386 298 l 1,0,-1
EndSplineSet
EndChar

StartChar: period
Encoding: 46 46 17
Width: 227
Flags: W
LayerCount: 2
Fore
SplineSet
113 97 m 1,0,-1
 153 97 l 1,1,-1
 153 0 l 1,2,-1
 113 0 l 1,3,-1
 73 0 l 1,4,-1
 73 97 l 1,5,-1
 113 97 l 1,0,-1
EndSplineSet
EndChar

StartChar: slash
Encoding: 47 47 18
Width: 447
Flags: W
LayerCount: 2
Fore
SplineSet
371 683 m 5,0,-1
 408 667 l 5,1,-1
 116 -14 l 5,2,-1
 79 2 l 5,3,-1
 42 18 l 5,4,-1
 334 699 l 5,5,-1
 371 683 l 5,0,-1
EndSplineSet
EndChar

StartChar: zero
Encoding: 48 48 19
Width: 634
Flags: W
LayerCount: 2
Fore
SplineSet
172 506 m 1,0,-1
 198 475 l 1,1,2
 149 437 149 437 135.5 400.5 c 0,3,4
 110 336 110 336 116.5 279 c 0,5,6
 123 219 123 219 160 162 c 0,7,8
 190 117 190 117 232.5 94.5 c 128,-1,9
 275 72 275 72 328 68 c 128,-1,10
 381 64 381 64 436 101 c 1,11,-1
 458 68 l 1,12,-1
 480 34 l 1,13,14
 406 -15 406 -15 330 -11 c 128,-1,15
 254 -7 254 -7 193.5 25.5 c 128,-1,16
 133 58 133 58 94 117 c 0,17,18
 47 191 47 191 37.5 267 c 0,19,20
 29.328125 337.181640625 29.328125 337.181640625 60.5 427.5 c 0,21,22
 80 484 80 484 146 537 c 1,23,-1
 172 506 l 1,0,-1
458 68 m 1,24,-1
 432 98 l 1,25,26
 479 136 479 136 494.5 174 c 0,27,28
 528.222988739 258.063102364 528.222988739 258.063102364 512 333.5 c 0,29,30
 502 381 502 381 468.5 425 c 132,-1,31
 435 469 435 469 386 489 c 128,-1,32
 337 509 337 509 286.5 509 c 0,33,34
 249 509 249 509 194 473 c 1,35,-1
 172 506 l 1,36,-1
 150 539 l 1,37,38
 224 589 224 589 284.5 588.5 c 0,39,40
 371 588 371 588 431.5 557 c 0,41,42
 497 524 497 524 531 469 c 4,43,44
 588 378 588 378 591 345 c 0,45,46
 603 240 603 240 569.5 146.5 c 0,47,48
 549 89 549 89 484 37 c 1,49,-1
 458 68 l 1,24,-1
327 247 m 1,50,-1
 287 247 l 1,51,-1
 287 328 l 1,52,-1
 327 328 l 1,53,-1
 367 328 l 1,54,-1
 367 247 l 1,55,-1
 327 247 l 1,50,-1
EndSplineSet
EndChar

StartChar: one
Encoding: 49 49 20
Width: 456
Flags: W
LayerCount: 2
Fore
SplineSet
75 359 m 1,0,-1
 55 394 l 1,1,2
 163 456 163 456 226 565 c 0,3,4
 235 580 235 580 252 584 c 128,-1,5
 269 588 269 588 284 578 c 0,6,7
 301 566 301 566 301 545 c 2,8,-1
 301 2 l 1,9,-1
 261 2 l 1,10,-1
 221 2 l 1,11,-1
 221 425 l 1,12,13
 165 365 165 365 95 324 c 1,14,-1
 75 359 l 1,0,-1
EndSplineSet
EndChar

StartChar: two
Encoding: 50 50 21
Width: 588
Flags: W
LayerCount: 2
Fore
SplineSet
171 482 m 1,0,-1
 136 502 l 1,1,2
 157 538 157 538 190 560.5 c 128,-1,3
 223 583 223 583 258 588 c 0,4,5
 299 593 299 593 330 587 c 0,6,7
 407 571 407 571 451.5 516.5 c 0,8,9
 500 458 500 458 477 368 c 0,10,11
 466 323 466 323 430.5 287.5 c 128,-1,12
 395 252 395 252 353.5 227.5 c 132,-1,13
 312 203 312 203 270.5 181.5 c 132,-1,14
 229 160 229 160 196 135 c 132,-1,15
 163 110 163 110 154 79 c 1,16,-1
 440 79 l 1,17,-1
 480 79 l 1,18,-1
 520 79 l 1,19,-1
 520 19 l 2,20,21
 520 17 520 17 520 13 c 128,-1,22
 520 9 520 9 520 8 c 128,-1,23
 520 7 520 7 519.5 4.5 c 128,-1,24
 519 2 519 2 518 1.5 c 128,-1,25
 517 1 517 1 514.5 0.5 c 128,-1,26
 512 0 512 0 508.5 -0.5 c 128,-1,27
 505 -1 505 -1 500 -1 c 2,28,-1
 107 -1 l 2,29,30
 93 -1 93 -1 80 10.5 c 128,-1,31
 67 22 67 22 67 39 c 0,32,33
 67 85 67 85 84 122.5 c 128,-1,34
 101 160 101 160 128 185 c 128,-1,35
 155 210 155 210 188 231 c 128,-1,36
 221 252 221 252 255.5 269 c 128,-1,37
 290 286 290 286 319 302.5 c 128,-1,38
 348 319 348 319 370.5 339.5 c 128,-1,39
 393 360 393 360 398 384 c 0,40,41
 411 437 411 437 383 472 c 0,42,43
 364 496 364 496 314 508 c 0,44,45
 298 512 298 512 282.5 510.5 c 128,-1,46
 267 509 267 509 253 504 c 128,-1,47
 239 499 239 499 226.5 488 c 128,-1,48
 214 477 214 477 206 462 c 1,49,-1
 176 479 l 1,50,-1
 171 482 l 1,0,-1
EndSplineSet
EndChar

StartChar: three
Encoding: 51 51 22
Width: 536
Flags: W
LayerCount: 2
Fore
SplineSet
245 318 m 1,0,-1
 232 355 l 1,1,2
 274 356 274 356 299 373 c 4,3,4
 339 402 339 402 324 443 c 0,5,6
 310 480 310 480 280 497 c 0,7,8
 247 515 247 515 212 501 c 0,9,10
 190 492 190 492 167 473 c 1,11,-1
 142 504 l 1,12,-1
 116 534 l 1,13,14
 149 563 149 563 185 576 c 0,15,16
 257 602 257 602 316.5 567.5 c 0,17,18
 378 532 378 532 399 471 c 0,19,20
 405 454 405 454 405.5 428 c 0,21,22
 406 406 406 406 397.5 383.5 c 128,-1,23
 389 361 389 361 375.5 341.5 c 128,-1,24
 362 322 362 322 340 305.5 c 128,-1,25
 318 289 318 289 292 280 c 1,26,-1
 245 318 l 1,0,-1
245 318 m 1,27,-1
 245 358 l 1,28,29
 335 358 335 358 390 321.5 c 0,30,31
 465 273 465 273 465 196.5 c 128,-1,32
 465 120 465 120 421.5 67.5 c 0,33,34
 381 19 381 19 313 -2 c 0,35,36
 277 -13 277 -13 237 -7.5 c 128,-1,37
 197 -2 197 -2 163 14.5 c 128,-1,38
 129 31 129 31 101.5 65.5 c 128,-1,39
 74 100 74 100 62 146 c 1,40,-1
 101 156 l 1,41,-1
 140 165 l 1,42,43
 154 109 154 109 198.5 86 c 128,-1,44
 243 63 243 63 293 76 c 0,45,46
 334 86 334 86 359.5 117 c 128,-1,47
 385 148 385 148 385 196 c 0,48,49
 385 217 385 217 367.5 240 c 128,-1,50
 350 263 350 263 309 274 c 0,51,52
 295 278 295 278 245 278 c 1,53,-1
 245 318 l 1,27,-1
EndSplineSet
EndChar

StartChar: four
Encoding: 52 52 23
Width: 534
Flags: W
LayerCount: 2
Fore
SplineSet
360 221 m 1,0,-1
 460 221 l 1,1,-1
 460 181 l 1,2,-1
 460 141 l 1,3,-1
 360 141 l 1,4,-1
 360 0 l 1,5,-1
 320 0 l 1,6,-1
 280 0 l 1,7,-1
 280 141 l 1,8,-1
 87 141 l 2,9,10
 71 141 71 141 59 153 c 256,11,12
 47 165 47 165 47.5 183 c 128,-1,13
 48 201 48 201 62 212 c 0,14,15
 143 280 143 280 199.5 370 c 128,-1,16
 256 460 256 460 281 563 c 0,17,18
 284 575 284 575 294 583.5 c 128,-1,19
 304 592 304 592 317 593 c 0,20,21
 334 595 334 595 347 583 c 128,-1,22
 360 571 360 571 360 554 c 2,23,-1
 360 221 l 1,0,-1
280 221 m 1,24,-1
 280 349 l 1,25,26
 240 280 240 280 187 221 c 1,27,-1
 280 221 l 1,24,-1
EndSplineSet
EndChar

StartChar: five
Encoding: 53 53 24
Width: 526
Flags: W
LayerCount: 2
Fore
SplineSet
383 495 m 1,0,-1
 343 495 l 1,1,-1
 172 495 l 1,2,-1
 172 368 l 1,3,4
 240 390 240 390 296 381 c 0,5,6
 387 365 387 365 436.5 302 c 128,-1,7
 486 239 486 239 469 141 c 0,8,9
 460 91 460 91 432.5 63.5 c 128,-1,10
 405 36 405 36 356 11 c 0,11,12
 319 -6 319 -6 277.5 -8 c 128,-1,13
 236 -10 236 -10 197 3 c 128,-1,14
 158 16 158 16 123.5 46.5 c 128,-1,15
 89 77 89 77 68 120 c 1,16,-1
 104 137 l 1,17,-1
 140 155 l 1,18,19
 166 101 166 101 220 80 c 128,-1,20
 274 59 274 59 320 83 c 0,21,22
 324 85 324 85 332.5 89 c 128,-1,23
 341 93 341 93 344.5 95 c 128,-1,24
 348 97 348 97 355 101 c 128,-1,25
 362 105 362 105 365 108 c 128,-1,26
 368 111 368 111 373 116 c 128,-1,27
 378 121 378 121 380.5 126.5 c 128,-1,28
 383 132 383 132 386 139 c 128,-1,29
 389 146 389 146 390 155 c 0,30,31
 402 219 402 219 372.5 255 c 128,-1,32
 343 291 343 291 282 302 c 0,33,34
 254 307 254 307 218 298 c 128,-1,35
 182 289 182 289 155 270 c 0,36,37
 146 263 146 263 134.5 262 c 128,-1,38
 123 261 123 261 113 266.5 c 128,-1,39
 103 272 103 272 97.5 281.5 c 128,-1,40
 92 291 92 291 92 302 c 2,41,-1
 92 556 l 2,42,43
 92 558 92 558 91.5 561.5 c 128,-1,44
 91 565 91 565 91.5 566 c 128,-1,45
 92 567 92 567 92 569.5 c 128,-1,46
 92 572 92 572 93 572 c 128,-1,47
 94 572 94 572 95 573.5 c 128,-1,48
 96 575 96 575 99 575 c 128,-1,49
 102 575 102 575 105 575 c 128,-1,50
 108 575 108 575 113 575 c 2,51,-1
 403 575 l 2,52,53
 406 575 406 575 409.5 575 c 128,-1,54
 413 575 413 575 414.5 575 c 128,-1,55
 416 575 416 575 418 574.5 c 128,-1,56
 420 574 420 574 420.5 573 c 128,-1,57
 421 572 421 572 422 569.5 c 128,-1,58
 423 567 423 567 423 564 c 128,-1,59
 423 561 423 561 423 555 c 2,60,-1
 423 495 l 1,61,-1
 383 495 l 1,0,-1
EndSplineSet
EndChar

StartChar: six
Encoding: 54 54 25
Width: 472
Flags: W
LayerCount: 2
Fore
SplineSet
56 215 m 1,0,-1
 25 240 l 1,1,2
 31 247 31 247 37 254 c 0,3,4
 42 259 42 259 47 265 c 1,5,6
 47 276 47 276 48 286 c 0,7,8
 56 374 56 374 114.5 456.5 c 128,-1,9
 173 539 173 539 282 590 c 1,10,-1
 316 517 l 1,11,12
 266 494 266 494 228 460 c 128,-1,13
 190 426 190 426 170 394.5 c 128,-1,14
 150 363 150 363 139 329 c 1,15,16
 196 354 196 354 248.5 345 c 128,-1,17
 301 336 301 336 341 307.5 c 128,-1,18
 381 279 381 279 405 237 c 0,19,20
 426 201 426 201 431 161 c 128,-1,21
 436 121 436 121 418.5 81.5 c 128,-1,22
 401 42 401 42 359 18 c 0,23,24
 342 8 342 8 323 2 c 0,25,26
 238 -25 238 -25 163.5 29 c 128,-1,27
 89 83 89 83 61 174 c 1,28,-1
 56 215 l 1,0,-1
129 231 m 1,29,30
 129 231 129 231 130 230 c 0,31,32
 140 158 140 158 188.5 113 c 128,-1,33
 237 68 237 68 285 75 c 0,34,35
 303 78 303 78 319 87 c 0,36,37
 348 103 348 103 352 132.5 c 128,-1,38
 356 162 356 162 336 197 c 0,39,40
 318 227 318 227 291 245.5 c 128,-1,41
 264 264 264 264 228 267 c 128,-1,42
 192 270 192 270 153 247 c 0,43,44
 145 243 145 243 138 237 c 0,45,46
 134 235 134 235 129 231 c 1,29,30
EndSplineSet
EndChar

StartChar: seven
Encoding: 55 55 26
Width: 549
Flags: W
LayerCount: 2
Fore
SplineSet
87 495 m 1,0,-1
 47 495 l 1,1,-1
 47 556 l 2,2,3
 47 563 47 563 47.5 566.5 c 128,-1,4
 48 570 48 570 48.5 572.5 c 128,-1,5
 49 575 49 575 51.5 575.5 c 128,-1,6
 54 576 54 576 55 576.5 c 128,-1,7
 56 577 56 577 61 576.5 c 128,-1,8
 66 576 66 576 68 576 c 2,9,-1
 466 576 l 2,10,11
 481 576 481 576 483 563.5 c 128,-1,12
 485 551 485 551 481 533 c 0,13,14
 480 521 480 521 472 511 c 0,15,16
 383 405 383 405 321 268 c 128,-1,17
 259 131 259 131 238 -5 c 1,18,-1
 198 1 l 1,19,-1
 159 7 l 1,20,21
 179 133 179 133 232 262.5 c 128,-1,22
 285 392 285 392 360 496 c 1,23,-1
 127 496 l 1,24,-1
 127 495 l 1,25,-1
 87 495 l 1,0,-1
155 263 m 1,26,-1
 155 303 l 1,27,-1
 388 303 l 1,28,-1
 388 263 l 1,29,-1
 388 223 l 1,30,-1
 155 223 l 1,31,-1
 155 263 l 1,26,-1
EndSplineSet
EndChar

StartChar: eight
Encoding: 56 56 27
Width: 486
Flags: W
LayerCount: 2
Fore
SplineSet
198 315 m 1,0,-1
 214 268 l 1,1,2
 143 227 143 227 135 205 c 0,3,4
 123 172 123 172 147 132.5 c 128,-1,5
 171 93 171 93 214 77 c 0,6,7
 231 70 231 70 251 69.5 c 128,-1,8
 271 69 271 69 292.5 75 c 128,-1,9
 314 81 314 81 332.5 98.5 c 128,-1,10
 351 116 351 116 361 144 c 0,11,12
 368 163 368 163 348 181.5 c 128,-1,13
 328 200 328 200 274 233 c 2,14,-1
 214 268 l 1,15,-1
 198 315 l 1,0,-1
289 317 m 1,16,-1
 277 321 l 1,17,18
 307 338 307 338 321 361 c 128,-1,19
 335 384 335 384 334.5 406.5 c 128,-1,20
 334 429 334 429 322 451 c 0,21,22
 302 486 302 486 268 499 c 128,-1,23
 234 512 234 512 202 495 c 0,24,25
 187 487 187 487 174 471 c 0,26,27
 157 447 157 447 156.5 430 c 128,-1,28
 156 413 156 413 167.5 399 c 128,-1,29
 179 385 179 385 208 365 c 0,30,31
 214 361 214 361 220 357 c 0,32,33
 237 346 237 346 289 317 c 1,16,-1
142 315 m 1,34,35
 111 339 111 339 94 368.5 c 128,-1,36
 77 398 77 398 79 438 c 128,-1,37
 81 478 81 478 110 519 c 0,38,39
 111 520 111 520 112 521 c 0,40,41
 125 537 125 537 139 548 c 0,42,43
 179 581 179 581 225.5 584 c 128,-1,44
 272 587 272 587 309.5 568 c 128,-1,45
 347 549 347 549 374 516 c 128,-1,46
 401 483 401 483 411 442 c 128,-1,47
 421 401 421 401 407.5 356 c 128,-1,48
 394 311 394 311 352 277 c 1,49,50
 364 269 364 269 373.5 261.5 c 128,-1,51
 383 254 383 254 394 243.5 c 128,-1,52
 405 233 405 233 413.5 223 c 128,-1,53
 422 213 422 213 429 200 c 128,-1,54
 436 187 436 187 439.5 174.5 c 128,-1,55
 443 162 443 162 442.5 146.5 c 128,-1,56
 442 131 442 131 436 116 c 0,57,58
 421 74 421 74 390.5 45 c 128,-1,59
 360 16 360 16 325 4.5 c 128,-1,60
 290 -7 290 -7 252.5 -9 c 128,-1,61
 215 -11 215 -11 186 2 c 0,62,63
 117 28 117 28 75 94.5 c 128,-1,64
 33 161 33 161 60 233 c 0,65,66
 68 254 68 254 88.5 273 c 128,-1,67
 109 292 109 292 142 315 c 1,34,35
EndSplineSet
EndChar

StartChar: nine
Encoding: 57 57 28
Width: 476
Flags: W
LayerCount: 2
Fore
SplineSet
411 335 m 1,0,-1
 438 305 l 1,1,2
 431 299 431 299 424 293 c 0,3,4
 419 289 419 289 413 284 c 1,5,6
 411 273 411 273 409 263 c 0,7,8
 396 208 396 208 364.5 157 c 128,-1,9
 333 106 333 106 274 60.5 c 128,-1,10
 215 15 215 15 137 -8 c 1,11,-1
 114 68 l 1,12,13
 189 91 189 91 238 136 c 128,-1,14
 287 181 287 181 313 233 c 1,15,16
 228 210 228 210 159.5 250.5 c 128,-1,17
 91 291 91 291 62 361 c 0,18,19
 51 390 51 390 48.5 420.5 c 128,-1,20
 46 451 46 451 53.5 480 c 128,-1,21
 61 509 61 509 82.5 533.5 c 128,-1,22
 104 558 104 558 138 572 c 0,23,24
 157 580 157 580 177 583 c 0,25,26
 207 588 207 588 235.5 583 c 128,-1,27
 264 578 264 578 288 564.5 c 128,-1,28
 312 551 312 551 333 531 c 128,-1,29
 354 511 354 511 370 486 c 128,-1,30
 386 461 386 461 396.5 433 c 128,-1,31
 407 405 407 405 412 376 c 1,32,-1
 411 335 l 1,0,-1
336 329 m 1,33,34
 336 329 336 329 336 330 c 0,35,36
 335 403 335 403 294 454.5 c 128,-1,37
 253 506 253 506 204 505 c 0,38,39
 186 505 186 505 168 498 c 0,40,41
 138 486 138 486 129.5 457.5 c 128,-1,42
 121 429 121 429 136 391 c 0,43,44
 149 359 149 359 174 337 c 128,-1,45
 199 315 199 315 234 307 c 128,-1,46
 269 299 269 299 311 317 c 0,47,48
 319 320 319 320 327 324 c 0,49,50
 331 326 331 326 336 329 c 1,33,34
EndSplineSet
EndChar

StartChar: colon
Encoding: 58 58 29
Width: 264
Flags: W
LayerCount: 2
Fore
SplineSet
132 134 m 1,0,-1
 172 134 l 1,1,-1
 172 37 l 1,2,-1
 132 37 l 1,3,-1
 92 37 l 1,4,-1
 92 134 l 1,5,-1
 132 134 l 1,0,-1
132 377 m 1,6,-1
 92 377 l 1,7,-1
 92 475 l 1,8,-1
 132 475 l 1,9,-1
 172 475 l 1,10,-1
 172 377 l 1,11,-1
 132 377 l 1,6,-1
EndSplineSet
EndChar

StartChar: semicolon
Encoding: 59 59 30
Width: 251
Flags: W
LayerCount: 2
Fore
SplineSet
79 -110 m 1,0,-1
 42 -95 l 1,1,2
 88 14 88 14 88 133 c 1,3,-1
 128 133 l 1,4,-1
 168 133 l 1,5,6
 168 -1 168 -1 116 -126 c 1,7,-1
 79 -110 l 1,0,-1
128 389 m 1,8,-1
 88 389 l 1,9,-1
 88 486 l 1,10,-1
 128 486 l 1,11,-1
 168 486 l 1,12,-1
 168 389 l 1,13,-1
 128 389 l 1,8,-1
EndSplineSet
EndChar

StartChar: less
Encoding: 60 60 31
Width: 410
Flags: W
LayerCount: 2
Fore
SplineSet
256 134 m 1,0,-1
 223 112 l 1,1,-1
 126 258 l 2,2,3
 111 280 111 280 126 302 c 2,4,-1
 223 448 l 1,5,-1
 256 426 l 1,6,-1
 290 404 l 1,7,-1
 207 280 l 1,8,-1
 290 156 l 1,9,-1
 256 134 l 1,0,-1
EndSplineSet
EndChar

StartChar: equal
Encoding: 61 61 32
Width: 599
Flags: W
LayerCount: 2
Fore
SplineSet
477 216 m 1,0,-1
 477 176 l 1,1,-1
 127 176 l 1,2,-1
 127 216 l 1,3,-1
 127 256 l 1,4,-1
 477 256 l 1,5,-1
 477 216 l 1,0,-1
477 362 m 1,6,-1
 477 322 l 1,7,-1
 127 322 l 1,8,-1
 127 362 l 1,9,-1
 127 402 l 1,10,-1
 477 402 l 1,11,-1
 477 362 l 1,6,-1
EndSplineSet
EndChar

StartChar: greater
Encoding: 62 62 33
Width: 394
Flags: W
LayerCount: 2
Fore
SplineSet
148 426 m 1,0,-1
 181 448 l 1,1,-1
 279 302 l 2,2,3
 293 280 293 280 279 258 c 2,4,-1
 181 112 l 1,5,-1
 148 134 l 1,6,-1
 115 156 l 1,7,-1
 197 280 l 1,8,-1
 115 404 l 1,9,-1
 148 426 l 1,0,-1
EndSplineSet
EndChar

StartChar: question
Encoding: 63 63 34
Width: 512
Flags: W
LayerCount: 2
Fore
SplineSet
44 682 m 1,0,-1
 18 713 l 1,1,2
 93 776 93 776 171 785 c 0,3,4
 227 792 227 792 277 775.5 c 128,-1,5
 327 759 327 759 362 726 c 128,-1,6
 397 693 397 693 419.5 648.5 c 128,-1,7
 442 604 442 604 448 555 c 0,8,9
 450 528 450 528 449.5 500.5 c 128,-1,10
 449 473 449 473 441 445.5 c 128,-1,11
 433 418 433 418 422 392 c 128,-1,12
 411 366 411 366 392 343 c 128,-1,13
 373 320 373 320 350 302.5 c 128,-1,14
 327 285 327 285 296 272.5 c 128,-1,15
 265 260 265 260 230 256 c 1,16,-1
 230 196 l 1,17,-1
 190 196 l 1,18,-1
 150 196 l 1,19,-1
 150 293 l 1,20,-1
 150 332 l 1,21,-1
 189 333 l 2,22,23
 239 334 239 334 276 351.5 c 128,-1,24
 313 369 313 369 333 397.5 c 128,-1,25
 353 426 353 426 362 457.5 c 128,-1,26
 371 489 371 489 370 523 c 0,27,28
 369 602 369 602 317.5 655 c 128,-1,29
 266 708 266 708 195 707 c 0,30,31
 134 706 134 706 70 652 c 1,32,-1
 44 682 l 1,0,-1
190 98 m 1,33,-1
 230 98 l 1,34,-1
 230 1 l 1,35,-1
 190 1 l 1,36,-1
 150 1 l 1,37,-1
 150 98 l 1,38,-1
 190 98 l 1,33,-1
EndSplineSet
EndChar

StartChar: at
Encoding: 64 64 35
Width: 855
Flags: W
LayerCount: 2
Fore
SplineSet
537 348 m 2,0,-1
 509 325 l 1,1,2
 503 332 503 332 497 337 c 0,3,4
 466 364 466 364 424.5 360.5 c 128,-1,5
 383 357 383 357 356 325 c 0,6,7
 326 284 326 284 329.5 248.5 c 128,-1,8
 333 213 333 213 362 183 c 0,9,10
 383 163 383 163 407.5 154.5 c 128,-1,11
 432 146 432 146 459.5 153 c 128,-1,12
 487 160 487 160 511 184 c 1,13,-1
 540 156 l 1,14,-1
 568 128 l 1,15,16
 528 87 528 87 477.5 76 c 128,-1,17
 427 65 427 65 383.5 79.5 c 128,-1,18
 340 94 340 94 306 126 c 0,19,20
 275 157 275 157 260 198 c 128,-1,21
 245 239 245 239 252.5 287 c 128,-1,22
 260 335 260 335 295 376 c 0,23,24
 343 434 343 434 418 440 c 128,-1,25
 493 446 493 446 549 398 c 0,26,27
 560 388 560 388 570 376 c 1,28,-1
 540 351 l 1,29,30
 540 351 540 351 537 348 c 2,0,-1
540 399 m 1,31,-1
 580 399 l 1,32,-1
 580 156 l 2,33,34
 580 143 580 143 593 135 c 0,35,36
 605 130 605 130 620.5 128.5 c 128,-1,37
 636 127 636 127 656 139 c 128,-1,38
 676 151 676 151 690 176 c 0,39,40
 724 235 724 235 726 296 c 128,-1,41
 728 357 728 357 704 408 c 128,-1,42
 680 459 680 459 635 499 c 0,43,44
 602 529 602 529 563 548 c 128,-1,45
 524 567 524 567 480 573.5 c 128,-1,46
 436 580 436 580 392 572.5 c 128,-1,47
 348 565 348 565 303 539 c 128,-1,48
 258 513 258 513 219 470 c 0,49,50
 161 405 161 405 142 330.5 c 128,-1,51
 123 256 123 256 138.5 190 c 128,-1,52
 154 124 154 124 197 65 c 0,53,54
 222 32 222 32 253.5 5 c 128,-1,55
 285 -22 285 -22 321 -40.5 c 128,-1,56
 357 -59 357 -59 398 -67.5 c 128,-1,57
 439 -76 439 -76 480.5 -73.5 c 128,-1,58
 522 -71 522 -71 566.5 -54 c 128,-1,59
 611 -37 611 -37 652 -6 c 1,60,-1
 676 -39 l 1,61,-1
 700 -71 l 1,62,63
 624 -127 624 -127 540 -145 c 128,-1,64
 456 -163 456 -163 381.5 -145.5 c 128,-1,65
 307 -128 307 -128 242.5 -86 c 128,-1,66
 178 -44 178 -44 133 18 c 0,67,68
 80 89 80 89 61 173 c 128,-1,69
 42 257 42 257 65.5 350.5 c 128,-1,70
 89 444 89 444 159 523 c 0,71,72
 219 590 219 590 292 623.5 c 128,-1,73
 365 657 365 657 435.5 656 c 128,-1,74
 506 655 506 655 571 630 c 128,-1,75
 636 605 636 605 688 559 c 0,76,77
 745 508 745 508 776.5 441.5 c 128,-1,78
 808 375 808 375 805.5 293.5 c 128,-1,79
 803 212 803 212 759 136 c 0,80,81
 735 94 735 94 697.5 71 c 128,-1,82
 660 48 660 48 623 48.5 c 128,-1,83
 586 49 586 49 553 66 c 0,84,85
 529 79 529 79 514.5 103 c 128,-1,86
 500 127 500 127 500 156 c 2,87,-1
 500 399 l 1,88,-1
 540 399 l 1,31,-1
EndSplineSet
EndChar

StartChar: A
Encoding: 65 65 36
Width: 744
Flags: W
LayerCount: 2
Fore
SplineSet
75 -4 m 5,0,-1
 38 12 l 5,1,-1
 337 708 l 6,2,3
 344 723 344 723 360.5 729 c 132,-1,4
 377 735 377 735 392 727 c 4,5,6
 405 721 405 721 410 708 c 6,7,-1
 710 14 l 5,8,-1
 673 -2 l 5,9,-1
 636 -18 l 5,10,-1
 374 590 l 5,11,-1
 112 -20 l 5,12,-1
 75 -4 l 5,0,-1
187 226 m 5,13,-1
 187 266 l 5,14,-1
 560 266 l 5,15,-1
 560 226 l 5,16,-1
 560 186 l 5,17,-1
 187 186 l 5,18,-1
 187 226 l 5,13,-1
EndSplineSet
EndChar

StartChar: B
Encoding: 66 66 37
Width: 583
Flags: W
LayerCount: 2
Fore
SplineSet
87 44 m 1,0,-1
 87 84 l 1,1,-1
 88 84 l 1,2,-1
 88 711 l 2,3,4
 88 719 88 719 88 723 c 128,-1,5
 88 727 88 727 88.5 730 c 128,-1,6
 89 733 89 733 91 733.5 c 128,-1,7
 93 734 93 734 94.5 734.5 c 128,-1,8
 96 735 96 735 101 735 c 128,-1,9
 106 735 106 735 109 736 c 0,10,11
 171 741 171 741 232 724 c 128,-1,12
 293 707 293 707 332 674 c 0,13,14
 374 638 374 638 396.5 590 c 128,-1,15
 419 542 419 542 414 488 c 128,-1,16
 409 434 409 434 373 391 c 1,17,-1
 342 416 l 1,18,-1
 311 442 l 1,19,20
 331 466 331 466 334.5 496.5 c 128,-1,21
 338 527 338 527 324 557.5 c 128,-1,22
 310 588 310 588 281 612 c 0,23,24
 234 652 234 652 168 656 c 1,25,-1
 168 44 l 2,26,27
 168 35 168 35 163 26 c 128,-1,28
 158 17 158 17 148.5 10.5 c 128,-1,29
 139 4 139 4 128 4 c 2,30,-1
 87 4 l 1,31,-1
 87 44 l 1,0,-1
128 416 m 1,32,-1
 128 456 l 1,33,-1
 342 456 l 2,34,35
 412 456 412 456 466 412 c 0,36,37
 533 356 533 356 540.5 265.5 c 128,-1,38
 548 175 548 175 484 95 c 0,39,40
 465 72 465 72 442 55 c 128,-1,41
 419 38 419 38 391.5 28 c 128,-1,42
 364 18 364 18 340.5 12 c 128,-1,43
 317 6 317 6 284 4.5 c 128,-1,44
 251 3 251 3 231 2.5 c 128,-1,45
 211 2 211 2 176 3 c 128,-1,46
 141 4 141 4 128 4 c 1,47,-1
 128 44 l 1,48,-1
 128 84 l 1,49,50
 139 84 139 84 162 84 c 0,51,52
 189 83 189 83 216 83.5 c 128,-1,53
 243 84 243 84 267.5 85.5 c 128,-1,54
 292 87 292 87 314.5 91 c 128,-1,55
 337 95 337 95 356.5 101.5 c 128,-1,56
 376 108 376 108 393 119.5 c 128,-1,57
 410 131 410 131 423 146 c 0,58,59
 465 202 465 202 460.5 259 c 128,-1,60
 456 316 456 316 414 351 c 0,61,62
 383 376 383 376 342 376 c 2,63,-1
 128 376 l 1,64,-1
 128 416 l 1,32,-1
EndSplineSet
EndChar

StartChar: C
Encoding: 67 67 38
Width: 749
Flags: W
LayerCount: 2
Fore
SplineSet
669 613 m 5,0,-1
 638 588 l 5,1,2
 622 607 622 607 604 622 c 4,3,4
 547 670 547 670 472 685 c 132,-1,5
 397 700 397 700 327 676.5 c 132,-1,6
 257 653 257 653 208 595 c 4,7,8
 155 532 155 532 143 460.5 c 132,-1,9
 131 389 131 389 147 329 c 132,-1,10
 163 269 163 269 203 211 c 4,11,12
 239 159 239 159 288 124.5 c 132,-1,13
 337 90 337 90 394.5 76 c 132,-1,14
 452 62 452 62 517.5 76.5 c 132,-1,15
 583 91 583 91 646 134 c 5,16,-1
 669 101 l 5,17,-1
 691 68 l 5,18,19
 614 15 614 15 531 -2 c 132,-1,20
 448 -19 448 -19 376 -1.5 c 132,-1,21
 304 16 304 16 242.5 59 c 132,-1,22
 181 102 181 102 137 165 c 4,23,24
 89 236 89 236 69 313 c 132,-1,25
 49 390 49 390 65.5 479.5 c 132,-1,26
 82 569 82 569 146 646 c 4,27,28
 210 721 210 721 300.5 751.5 c 132,-1,29
 391 782 391 782 486.5 763.5 c 132,-1,30
 582 745 582 745 655 683 c 4,31,32
 679 663 679 663 699 639 c 5,33,-1
 669 613 l 5,0,-1
EndSplineSet
EndChar

StartChar: D
Encoding: 68 68 39
Width: 603
Flags: W
LayerCount: 2
Fore
SplineSet
128 2 m 1,0,-1
 89 2 l 1,1,-1
 89 82 l 1,2,-1
 88 82 l 1,3,-1
 88 728 l 2,4,5
 88 741 88 741 90 746 c 128,-1,6
 92 751 92 751 95.5 752 c 128,-1,7
 99 753 99 753 108 753 c 0,8,9
 175 753 175 753 238.5 736.5 c 128,-1,10
 302 720 302 720 354 691 c 128,-1,11
 406 662 406 662 445 623 c 0,12,13
 509 559 509 559 538.5 466 c 128,-1,14
 568 373 568 373 551 276 c 128,-1,15
 534 179 534 179 468.5 113.5 c 128,-1,16
 403 48 403 48 321 25 c 128,-1,17
 239 2 239 2 129 2 c 1,18,-1
 129 46 l 1,19,-1
 128 2 l 1,0,-1
168 84 m 1,20,21
 196 86 196 86 216.5 88 c 128,-1,22
 237 90 237 90 260.5 94.5 c 128,-1,23
 284 99 284 99 303 105 c 128,-1,24
 322 111 322 111 341 120 c 128,-1,25
 360 129 360 129 378 141.5 c 128,-1,26
 396 154 396 154 412 171 c 0,27,28
 460 218 460 218 473 291.5 c 128,-1,29
 486 365 486 365 463.5 439.5 c 128,-1,30
 441 514 441 514 388 566 c 0,31,32
 295 660 295 660 168 671 c 1,33,-1
 168 84 l 1,20,21
EndSplineSet
EndChar

StartChar: E
Encoding: 69 69 40
Width: 602
Flags: W
LayerCount: 2
Fore
SplineSet
131 0 m 5,0,-1
 91 -2 l 5,1,-1
 91 707 l 6,2,3
 91 724 91 724 96 728 c 132,-1,4
 101 732 101 732 116 732 c 6,5,-1
 503 732 l 5,6,-1
 503 652 l 5,7,-1
 171 652 l 5,8,-1
 171 -2 l 5,9,-1
 131 0 l 5,0,-1
131 385 m 5,10,-1
 131 425 l 5,11,-1
 457 425 l 5,12,-1
 457 385 l 5,13,-1
 457 345 l 5,14,-1
 131 345 l 5,15,-1
 131 385 l 5,10,-1
131 40 m 5,16,-1
 131 80 l 5,17,-1
 550 80 l 5,18,-1
 550 0 l 5,19,-1
 131 0 l 5,20,-1
 131 40 l 5,16,-1
EndSplineSet
EndChar

StartChar: F
Encoding: 70 70 41
Width: 532
Flags: W
LayerCount: 2
Fore
SplineSet
131 1 m 1,0,-1
 91 1 l 1,1,-1
 91 709 l 2,2,3
 91 726 91 726 96.5 730 c 128,-1,4
 102 734 102 734 116 734 c 2,5,-1
 504 734 l 1,6,-1
 503 731 l 1,7,-1
 504 654 l 1,8,-1
 171 654 l 1,9,-1
 171 1 l 1,10,-1
 131 1 l 1,0,-1
131 387 m 1,11,-1
 131 427 l 1,12,-1
 426 427 l 1,13,-1
 426 387 l 1,14,-1
 426 347 l 1,15,-1
 131 347 l 1,16,-1
 131 387 l 1,11,-1
EndSplineSet
EndChar

StartChar: G
Encoding: 71 71 42
Width: 760
Flags: W
LayerCount: 2
Fore
SplineSet
498 360 m 1,0,-1
 678 360 l 1,1,-1
 678 280 l 1,2,-1
 678 87 l 2,3,4
 678 66 678 66 660 54 c 0,5,6
 586 3 586 3 506.5 -12 c 128,-1,7
 427 -27 427 -27 358 -8 c 128,-1,8
 289 11 289 11 229.5 53.5 c 128,-1,9
 170 96 170 96 128 157 c 0,10,11
 82 225 82 225 63 301.5 c 128,-1,12
 44 378 44 378 62 467 c 128,-1,13
 80 556 80 556 141 629 c 256,14,15
 203.528490543 703.829177208 203.528490543 703.829177208 289 732.5 c 0,16,17
 368.073833295 758.686788948 368.073833295 758.686788948 463 740.5 c 4,18,19
 570 720 570 720 623 665 c 4,20,21
 643 644 643 644 665 622 c 4,22,23
 668 619 668 619 670.5 612.5 c 132,-1,24
 673 606 673 606 674 601 c 6,25,-1
 675 596 l 5,26,-1
 665 622 l 5,27,-1
 595 582 l 5,28,-1
 597 581 l 6,29,30
 593 585 593 585 572 603 c 4,31,32
 518 649 518 649 449 663.5 c 132,-1,33
 380 678 380 678 314.5 655.5 c 128,-1,34
 249 633 249 633 203 578 c 0,35,36
 155 521 155 521 140.5 454 c 128,-1,37
 126 387 126 387 138.5 330 c 128,-1,38
 151 273 151 273 184 218 c 0,39,40
 227 148 227 148 292 106.5 c 128,-1,41
 357 65 357 65 436.5 62 c 128,-1,42
 516 59 516 59 600 109 c 1,43,-1
 600 280 l 1,44,-1
 498 280 l 1,45,-1
 498 360 l 1,0,-1
EndSplineSet
EndChar

StartChar: H
Encoding: 72 72 43
Width: 630
Flags: W
LayerCount: 2
Fore
SplineSet
131 0 m 1,0,-1
 91 0 l 1,1,-1
 91 730 l 1,2,-1
 131 730 l 1,3,-1
 171 730 l 1,4,-1
 171 0 l 1,5,-1
 131 0 l 1,0,-1
131 386 m 1,6,-1
 131 426 l 1,7,-1
 504 426 l 1,8,-1
 504 386 l 1,9,-1
 504 346 l 1,10,-1
 131 346 l 1,11,-1
 131 386 l 1,6,-1
504 730 m 1,12,-1
 544 730 l 1,13,-1
 544 0 l 1,14,-1
 504 0 l 1,15,-1
 464 0 l 1,16,-1
 464 730 l 1,17,-1
 504 730 l 1,12,-1
EndSplineSet
EndChar

StartChar: I
Encoding: 73 73 44
Width: 299
Flags: W
LayerCount: 2
Fore
SplineSet
148 0 m 5,0,-1
 108 0 l 5,1,-1
 108 730 l 5,2,-1
 148 730 l 5,3,-1
 188 730 l 5,4,-1
 188 0 l 5,5,-1
 148 0 l 5,0,-1
EndSplineSet
EndChar

StartChar: J
Encoding: 74 74 45
Width: 355
Flags: W
LayerCount: 2
Fore
SplineSet
57 59 m 2,0,-1
 60 79 l 1,1,2
 108 70 108 70 147.5 103.5 c 128,-1,3
 187 137 187 137 197 196 c 0,4,5
 200 210 200 210 200 226 c 2,6,-1
 200 651 l 1,7,-1
 199 651 l 1,8,-1
 199 691 l 1,9,-1
 199 731 l 1,10,-1
 260 731 l 2,11,12
 266 731 266 731 269.5 730.5 c 128,-1,13
 273 730 273 730 275.5 730 c 128,-1,14
 278 730 278 730 279 727.5 c 128,-1,15
 280 725 280 725 280 724.5 c 128,-1,16
 280 724 280 724 280 719 c 128,-1,17
 280 714 280 714 280 711 c 2,18,-1
 280 226 l 2,19,20
 280 204 280 204 276 182 c 0,21,22
 261 96 261 96 196 40.5 c 128,-1,23
 131 -15 131 -15 47 0 c 1,24,-1
 54 39 l 2,25,26
 54 40 54 40 54 42 c 0,27,28
 55 49 55 49 57 59 c 2,0,-1
EndSplineSet
EndChar

StartChar: K
Encoding: 75 75 46
Width: 621
Flags: W
LayerCount: 2
Fore
SplineSet
121 1 m 1,0,-1
 81 1 l 1,1,-1
 81 731 l 1,2,-1
 121 731 l 1,3,-1
 161 731 l 1,4,-1
 161 1 l 1,5,-1
 121 1 l 1,0,-1
121 338 m 1,6,-1
 92 365 l 1,7,-1
 431 731 l 1,8,-1
 460 704 l 1,9,-1
 490 677 l 1,10,-1
 151 311 l 1,11,-1
 121 338 l 1,6,-1
215 413 m 1,12,-1
 245 439 l 1,13,-1
 591 43 l 1,14,-1
 561 17 l 1,15,-1
 531 -10 l 1,16,-1
 184 386 l 1,17,-1
 215 413 l 1,12,-1
EndSplineSet
EndChar

StartChar: L
Encoding: 76 76 47
Width: 594
Flags: W
LayerCount: 2
Fore
SplineSet
135 41 m 1,0,-1
 95 41 l 1,1,-1
 95 730 l 1,2,-1
 135 730 l 1,3,-1
 175 730 l 1,4,-1
 175 41 l 1,5,-1
 135 41 l 1,0,-1
95 41 m 1,6,-1
 95 81 l 1,7,-1
 468 81 l 1,8,-1
 508 81 l 1,9,-1
 548 81 l 1,10,-1
 548 21 l 2,11,12
 548 19 548 19 548 15 c 128,-1,13
 548 11 548 11 548 10 c 128,-1,14
 548 9 548 9 547.5 6.5 c 128,-1,15
 547 4 547 4 546 3.5 c 128,-1,16
 545 3 545 3 542.5 2.5 c 128,-1,17
 540 2 540 2 536.5 1.5 c 128,-1,18
 533 1 533 1 528 1 c 2,19,-1
 95 1 l 1,20,-1
 95 41 l 1,6,-1
EndSplineSet
EndChar

StartChar: M
Encoding: 77 77 48
Width: 810
Flags: W
LayerCount: 2
Fore
SplineSet
126 0 m 1,0,-1
 86 0 l 1,1,-1
 86 707 l 2,2,3
 86 724 86 724 91 728.5 c 128,-1,4
 96 733 96 733 114 732 c 0,5,6
 116 732 116 732 123 731.5 c 128,-1,7
 130 731 130 731 133.5 730.5 c 128,-1,8
 137 730 137 730 142.5 729 c 128,-1,9
 148 728 148 728 151.5 726 c 128,-1,10
 155 724 155 724 157 721 c 2,11,-1
 405 263 l 1,12,-1
 649 722 l 2,13,14
 651 725 651 725 653.5 727.5 c 128,-1,15
 656 730 656 730 660 730.5 c 128,-1,16
 664 731 664 731 667.5 731.5 c 128,-1,17
 671 732 671 732 677 731.5 c 128,-1,18
 683 731 683 731 688 730 c 128,-1,19
 693 729 693 729 701.5 727.5 c 128,-1,20
 710 726 710 726 716 726 c 0,21,22
 721 725 721 725 723.5 723.5 c 128,-1,23
 726 722 726 722 726 720.5 c 128,-1,24
 726 719 726 719 725.5 714.5 c 128,-1,25
 725 710 725 710 725 707 c 2,26,-1
 725 0 l 1,27,-1
 685 0 l 1,28,-1
 645 0 l 1,29,-1
 645 535 l 1,30,-1
 440 161 l 2,31,32
 435 152 435 152 427 146 c 0,33,34
 413 137 413 137 395.5 141 c 128,-1,35
 378 145 378 145 370 161 c 2,36,-1
 166 535 l 1,37,-1
 166 0 l 1,38,-1
 126 0 l 1,0,-1
EndSplineSet
EndChar

StartChar: N
Encoding: 78 78 49
Width: 728
Flags: W
LayerCount: 2
Fore
SplineSet
131 0 m 1,0,-1
 91 0 l 1,1,-1
 91 718 l 2,2,3
 91 733 91 733 104 735 c 128,-1,4
 117 737 117 737 134 733 c 0,5,6
 153 732 153 732 164 716 c 2,7,-1
 557 166 l 1,8,-1
 557 731 l 1,9,-1
 597 731 l 1,10,-1
 637 731 l 1,11,-1
 637 31 l 2,12,13
 637 26 637 26 634.5 22.5 c 128,-1,14
 632 19 632 19 631 18 c 128,-1,15
 630 17 630 17 623 11 c 0,16,17
 610 -1 610 -1 592 1.5 c 128,-1,18
 574 4 574 4 564 18 c 2,19,-1
 171 568 l 1,20,-1
 171 0 l 1,21,-1
 131 0 l 1,0,-1
EndSplineSet
EndChar

StartChar: O
Encoding: 79 79 50
Width: 883
Flags: W
LayerCount: 2
Fore
SplineSet
162 610 m 5,0,-1
 193 584 l 5,1,2
 148 531 148 531 134.5 467.5 c 132,-1,3
 121 404 121 404 128.5 350 c 132,-1,4
 136 296 136 296 159.5 250.5 c 132,-1,5
 183 205 183 205 222 164 c 4,6,7
 264 119 264 119 316 92.5 c 132,-1,8
 368 66 368 66 425 59 c 132,-1,9
 482 52 482 52 548.5 70 c 132,-1,10
 615 88 615 88 670 139 c 5,11,-1
 698 110 l 5,12,-1
 725 81 l 5,13,14
 657 17 657 17 574 -5.5 c 132,-1,15
 491 -28 491 -28 419 -20 c 132,-1,16
 347 -12 347 -12 281 21.5 c 132,-1,17
 215 55 215 55 164 109 c 4,18,19
 117 160 117 160 87.5 218 c 132,-1,20
 58 276 58 276 49.5 344.5 c 132,-1,21
 41 413 41 413 59 491.5 c 132,-1,22
 77 570 77 570 131 636 c 5,23,-1
 162 610 l 5,0,-1
698 110 m 5,24,-1
 670 139 l 5,25,26
 678 147 678 147 686 156 c 4,27,28
 726 201 726 201 741 252 c 132,-1,29
 756 303 756 303 756 350 c 132,-1,30
 756 397 756 397 741.5 442.5 c 132,-1,31
 727 488 727 488 700 527.5 c 132,-1,32
 673 567 673 567 636 600 c 4,33,34
 600 633 600 633 559 654 c 132,-1,35
 518 675 518 675 472.5 682.5 c 132,-1,36
 427 690 427 690 382 682.5 c 132,-1,37
 337 675 337 675 285 652.5 c 132,-1,38
 233 630 233 630 192 583 c 5,39,-1
 162 610 l 5,40,-1
 132 637 l 5,41,42
 195 708 195 708 275 738 c 132,-1,43
 355 768 355 768 427.5 766 c 132,-1,44
 500 764 500 764 567 736.5 c 132,-1,45
 634 709 634 709 690 659.5 c 132,-1,46
 746 610 746 610 782.5 545 c 132,-1,47
 819 480 819 480 831.5 406.5 c 132,-1,48
 844 333 844 333 825.5 252.5 c 132,-1,49
 807 172 807 172 746 103 c 4,50,51
 736 92 736 92 726 82 c 5,52,-1
 698 110 l 5,24,-1
EndSplineSet
EndChar

StartChar: P
Encoding: 80 80 51
Width: 578
Flags: W
LayerCount: 2
Fore
SplineSet
185 359 m 1,0,1
 226 359 226 359 253.5 360 c 128,-1,2
 281 361 281 361 312.5 365 c 128,-1,3
 344 369 344 369 365.5 376.5 c 128,-1,4
 387 384 387 384 406 398 c 128,-1,5
 425 412 425 412 437 433 c 0,6,7
 456 468 456 468 453 503 c 128,-1,8
 450 538 450 538 427.5 570 c 128,-1,9
 405 602 405 602 367 623 c 0,10,11
 336 641 336 641 298 646 c 128,-1,12
 260 651 260 651 185 651 c 1,13,-1
 185 359 l 1,0,1
185 279 m 1,14,-1
 185 1 l 1,15,-1
 145 1 l 1,16,-1
 105 1 l 1,17,-1
 105 319 l 1,18,-1
 105 707 l 2,19,20
 105 725 105 725 108 728.5 c 128,-1,21
 111 732 111 732 125 732 c 0,22,23
 237 732 237 732 299 725.5 c 128,-1,24
 361 719 361 719 406 693 c 0,25,26
 490 645 490 645 520 557.5 c 128,-1,27
 550 470 550 470 506 393 c 0,28,29
 490 364 490 364 466 343 c 128,-1,30
 442 322 442 322 416.5 310.5 c 128,-1,31
 391 299 391 299 361 291 c 128,-1,32
 331 283 331 283 301.5 281.5 c 128,-1,33
 272 280 272 280 242 279 c 128,-1,34
 212 278 212 278 185 279 c 1,14,-1
EndSplineSet
EndChar

StartChar: Q
Encoding: 81 81 52
Width: 882
Flags: W
LayerCount: 2
Fore
SplineSet
162 620 m 1,0,-1
 193 594 l 1,1,2
 148 541 148 541 134.5 477.5 c 128,-1,3
 121 414 121 414 128.5 360 c 128,-1,4
 136 306 136 306 159.5 257 c 128,-1,5
 183 208 183 208 222 167 c 0,6,7
 264 122 264 122 316 95.5 c 128,-1,8
 368 69 368 69 425 62 c 128,-1,9
 482 55 482 55 548.5 73 c 128,-1,10
 615 91 615 91 670 142 c 1,11,-1
 698 113 l 1,12,-1
 725 84 l 1,13,14
 657 20 657 20 574 -2.5 c 128,-1,15
 491 -25 491 -25 419 -17 c 128,-1,16
 347 -9 347 -9 281 24.5 c 128,-1,17
 215 58 215 58 164 112 c 0,18,19
 117 163 117 163 87.5 224.5 c 128,-1,20
 58 286 58 286 49.5 354.5 c 128,-1,21
 41 423 41 423 59 501.5 c 128,-1,22
 77 580 77 580 131 646 c 1,23,-1
 162 620 l 1,0,-1
698 113 m 1,24,-1
 670 142 l 1,25,26
 678 150 678 150 686 159 c 0,27,28
 726 204 726 204 741 258.5 c 128,-1,29
 756 313 756 313 756 360 c 128,-1,30
 756 407 756 407 741.5 452.5 c 128,-1,31
 727 498 727 498 700 537.5 c 128,-1,32
 673 577 673 577 636 610 c 0,33,34
 600 643 600 643 559 664 c 128,-1,35
 518 685 518 685 472.5 692.5 c 128,-1,36
 427 700 427 700 382 692.5 c 128,-1,37
 337 685 337 685 285 662.5 c 128,-1,38
 233 640 233 640 192 593 c 1,39,-1
 162 620 l 1,40,-1
 132 647 l 1,41,42
 195 718 195 718 275 748 c 128,-1,43
 355 778 355 778 427.5 776 c 128,-1,44
 500 774 500 774 567 746.5 c 128,-1,45
 634 719 634 719 690 669.5 c 128,-1,46
 746 620 746 620 782.5 555 c 128,-1,47
 819 490 819 490 831.5 416.5 c 128,-1,48
 844 343 844 343 825.5 259 c 128,-1,49
 807 175 807 175 746 106 c 0,50,51
 736 95 736 95 726 85 c 1,52,-1
 698 113 l 1,24,-1
439 339 m 1,53,-1
 471 364 l 1,54,-1
 737 24 l 1,55,-1
 706 0 l 1,56,-1
 675 -25 l 1,57,-1
 408 314 l 1,58,-1
 439 339 l 1,53,-1
EndSplineSet
EndChar

StartChar: R
Encoding: 82 82 53
Width: 577
Flags: W
LayerCount: 2
Fore
SplineSet
171 359 m 1,0,1
 212 359 212 359 239.5 360 c 128,-1,2
 267 361 267 361 298.5 365 c 128,-1,3
 330 369 330 369 351.5 376.5 c 128,-1,4
 373 384 373 384 392 398 c 128,-1,5
 411 412 411 412 423 433 c 0,6,7
 442 468 442 468 439.5 503.5 c 128,-1,8
 437 539 437 539 414 572 c 128,-1,9
 391 605 391 605 354 626 c 0,10,11
 341 634 341 634 328 638.5 c 128,-1,12
 315 643 315 643 295.5 645 c 128,-1,13
 276 647 276 647 263.5 648 c 128,-1,14
 251 649 251 649 220 649.5 c 128,-1,15
 189 650 189 650 171 651 c 1,16,-1
 171 359 l 1,0,1
171 279 m 1,17,-1
 171 1 l 1,18,-1
 131 1 l 1,19,-1
 91 1 l 1,20,-1
 91 319 l 1,21,-1
 91 707 l 2,22,23
 91 724 91 724 96 728 c 128,-1,24
 101 732 101 732 116 732 c 0,25,26
 121 732 121 732 131 732 c 0,27,28
 204 732 204 732 239 731 c 128,-1,29
 274 730 274 730 318.5 721.5 c 128,-1,30
 363 713 363 713 393 696 c 0,31,32
 477 648 477 648 506.5 559 c 128,-1,33
 536 470 536 470 492 393 c 0,34,35
 476 364 476 364 452 343 c 128,-1,36
 428 322 428 322 402.5 310.5 c 128,-1,37
 377 299 377 299 347 291 c 128,-1,38
 317 283 317 283 287.5 281.5 c 128,-1,39
 258 280 258 280 228 279 c 128,-1,40
 198 278 198 278 171 279 c 1,17,-1
480 11 m 1,41,-1
 446 -11 l 1,42,-1
 238 297 l 1,43,-1
 271 319 l 1,44,-1
 304 342 l 1,45,-1
 513 33 l 1,46,-1
 480 11 l 1,41,-1
EndSplineSet
EndChar

StartChar: S
Encoding: 83 83 54
Width: 677
Flags: W
LayerCount: 2
Fore
SplineSet
543 580 m 5,0,-1
 509 560 l 5,1,2
 489 594 489 594 467 612 c 4,3,4
 434 639 434 639 410 647 c 4,5,6
 364 662 364 662 322 665.5 c 132,-1,7
 280 669 280 669 243 648 c 4,8,9
 208 628 208 628 191 582 c 4,10,11
 180 552 180 552 195 528 c 132,-1,12
 210 504 210 504 248 481 c 132,-1,13
 286 458 286 458 329.5 439.5 c 132,-1,14
 373 421 373 421 432.5 392 c 132,-1,15
 492 363 492 363 536 332 c 4,16,17
 676 235 676 235 576 85 c 4,18,19
 574 82 574 82 571 79 c 4,20,21
 546 54 546 54 516 35 c 4,22,23
 452 -7 452 -7 359 -11 c 4,24,25
 274 -15 274 -15 196.5 24.5 c 132,-1,26
 119 64 119 64 71 139 c 5,27,-1
 105 160 l 5,28,-1
 139 182 l 5,29,30
 175 125 175 125 233 95.5 c 132,-1,31
 291 66 291 66 355 69 c 4,32,33
 424 72 424 72 473 103 c 4,34,35
 500 120 500 120 512 134 c 4,36,37
 526 150 526 150 535 173.5 c 4,38,39
 542 191 542 191 543 203 c 132,-1,40
 544 215 544 215 535.5 227 c 132,-1,41
 527 239 527 239 517 247.5 c 132,-1,42
 507 256 507 256 488 269 c 4,43,44
 474 278 474 278 451 289 c 132,-1,45
 428 300 428 300 403.5 310 c 132,-1,46
 379 320 379 320 349.5 333 c 132,-1,47
 320 346 320 346 292.5 358 c 132,-1,48
 265 370 265 370 237 386 c 132,-1,49
 209 402 209 402 187 418.5 c 132,-1,50
 165 435 165 435 145.5 455.5 c 132,-1,51
 126 476 126 476 117 501 c 132,-1,52
 108 526 108 526 106 553 c 132,-1,53
 104 580 104 580 116 609 c 4,54,55
 139 666 139 666 170 693.5 c 4,56,57
 206 725 206 725 251 737 c 132,-1,58
 296 749 296 749 345 744 c 132,-1,59
 394 739 394 739 439.5 719.5 c 132,-1,60
 485 700 485 700 518.5 673 c 132,-1,61
 552 646 552 646 578 600 c 5,62,-1
 543 580 l 5,0,-1
EndSplineSet
EndChar

StartChar: T
Encoding: 84 84 55
Width: 567
Flags: W
LayerCount: 2
Fore
SplineSet
280 1 m 1,0,-1
 240 1 l 1,1,-1
 240 692 l 1,2,-1
 280 692 l 1,3,-1
 320 692 l 1,4,-1
 320 1 l 1,5,-1
 280 1 l 1,0,-1
48 652 m 1,6,-1
 8 652 l 1,7,-1
 8 712 l 2,8,9
 8 718 8 718 8.5 722 c 128,-1,10
 9 726 9 726 9 728 c 128,-1,11
 9 730 9 730 11.5 731 c 128,-1,12
 14 732 14 732 14.5 732.5 c 128,-1,13
 15 733 15 733 20 732.5 c 128,-1,14
 25 732 25 732 28 732 c 2,15,-1
 533 732 l 2,16,17
 540 732 540 732 543.5 731.5 c 128,-1,18
 547 731 547 731 549.5 731 c 128,-1,19
 552 731 552 731 552.5 728.5 c 128,-1,20
 553 726 553 726 553.5 725 c 128,-1,21
 554 724 554 724 553.5 719 c 128,-1,22
 553 714 553 714 553 712 c 2,23,-1
 553 652 l 1,24,-1
 513 652 l 1,25,-1
 473 652 l 1,26,-1
 88 652 l 1,27,-1
 48 652 l 1,6,-1
EndSplineSet
EndChar

StartChar: U
Encoding: 85 85 56
Width: 735
Flags: W
LayerCount: 2
Fore
SplineSet
639 40 m 5,0,-1
 639 0 l 5,1,-1
 577 0 l 6,2,3
 571 0 571 0 567 1 c 132,-1,4
 563 2 563 2 561 2.5 c 132,-1,5
 559 3 559 3 558 6 c 132,-1,6
 557 9 557 9 557 10.5 c 132,-1,7
 557 12 557 12 557 17.5 c 132,-1,8
 557 23 557 23 557 25 c 6,9,-1
 557 652 l 5,10,-1
 556 652 l 5,11,-1
 556 692 l 5,12,-1
 556 732 l 5,13,-1
 617 732 l 6,14,15
 619 732 619 732 623 732 c 132,-1,16
 627 732 627 732 628.5 732 c 132,-1,17
 630 732 630 732 632 731.5 c 132,-1,18
 634 731 634 731 634.5 730 c 132,-1,19
 635 729 635 729 636 726.5 c 132,-1,20
 637 724 637 724 637 720.5 c 132,-1,21
 637 717 637 717 637 712 c 6,22,-1
 637 80 l 5,23,-1
 639 80 l 5,24,-1
 639 40 l 5,0,-1
597 133 m 5,25,-1
 617 99 l 5,26,27
 557 64 557 64 494 39.5 c 132,-1,28
 431 15 431 15 372.5 2.5 c 132,-1,29
 314 -10 314 -10 262 -10 c 4,30,31
 189 -10 189 -10 140 29 c 132,-1,32
 91 68 91 68 91 143 c 6,33,-1
 91 652 l 5,34,-1
 91 692 l 5,35,-1
 91 732 l 5,36,-1
 151 732 l 6,37,38
 154 732 154 732 158 732 c 132,-1,39
 162 732 162 732 163 732 c 132,-1,40
 164 732 164 732 166 731.5 c 132,-1,41
 168 731 168 731 168.5 730 c 132,-1,42
 169 729 169 729 170 726.5 c 132,-1,43
 171 724 171 724 171 720.5 c 132,-1,44
 171 717 171 717 171 712 c 6,45,-1
 171 143 l 6,46,47
 171 103 171 103 191.5 86.5 c 132,-1,48
 212 70 212 70 262 70 c 4,49,50
 325 70 325 70 410 95 c 132,-1,51
 495 120 495 120 577 168 c 5,52,-1
 597 133 l 5,25,-1
EndSplineSet
EndChar

StartChar: V
Encoding: 86 86 57
Width: 663
Flags: W
LayerCount: 2
Fore
SplineSet
624 728 m 1,0,-1
 661 712 l 1,1,-1
 366 23 l 2,2,3
 359 7 359 7 342.5 1 c 128,-1,4
 326 -5 326 -5 311 3 c 0,5,6
 298 10 298 10 292 23 c 2,7,-1
 -3 710 l 1,8,-1
 34 726 l 1,9,-1
 71 742 l 1,10,-1
 329 140 l 1,11,-1
 587 744 l 1,12,-1
 624 728 l 1,0,-1
EndSplineSet
EndChar

StartChar: W
Encoding: 87 87 58
Width: 937
Flags: W
LayerCount: 2
Fore
SplineSet
37 731 m 1,0,-1
 75 742 l 1,1,-1
 239 160 l 1,2,-1
 428 614 l 2,3,4
 435 630 435 630 451.5 636 c 128,-1,5
 468 642 468 642 483 634 c 0,6,7
 496 627 496 627 502 614 c 2,8,-1
 691 160 l 1,9,-1
 858 744 l 1,10,-1
 897 733 l 1,11,-1
 935 722 l 1,12,-1
 736 28 l 2,13,14
 732 12 732 12 716 4 c 0,15,16
 705 -1 705 -1 694.5 -0.5 c 128,-1,17
 684 0 684 0 674.5 7 c 128,-1,18
 665 14 665 14 661 24 c 2,19,-1
 465 494 l 1,20,-1
 269 24 l 2,21,22
 262 8 262 8 246 2 c 128,-1,23
 230 -4 230 -4 214 4 c 128,-1,24
 198 12 198 12 194 28 c 2,25,-1
 -2 720 l 1,26,-1
 37 731 l 1,0,-1
EndSplineSet
EndChar

StartChar: X
Encoding: 88 88 59
Width: 687
Flags: W
LayerCount: 2
Fore
SplineSet
92 730 m 1,0,-1
 129 753 l 1,1,-1
 633 27 l 1,2,-1
 600 4 l 1,3,-1
 568 -19 l 1,4,-1
 64 707 l 1,5,-1
 92 730 l 1,0,-1
594 730 m 1,6,-1
 627 707 l 1,7,-1
 377 343 l 1,8,-1
 345 366 l 1,9,-1
 312 389 l 1,10,-1
 562 754 l 1,11,-1
 594 730 l 1,6,-1
345 366 m 1,12,-1
 377 343 l 1,13,-1
 121 -19 l 1,14,-1
 88 4 l 1,15,-1
 56 27 l 1,16,-1
 312 389 l 1,17,-1
 345 366 l 1,12,-1
EndSplineSet
EndChar

StartChar: Y
Encoding: 89 89 60
Width: 583
Flags: W
LayerCount: 2
Fore
SplineSet
34 728 m 5,0,-1
 67 751 l 5,1,-1
 322 390 l 6,2,3
 329 380 329 380 329 367 c 6,4,-1
 329 1 l 5,5,-1
 289 1 l 5,6,-1
 249 1 l 5,7,-1
 249 354 l 5,8,-1
 2 705 l 5,9,-1
 34 728 l 5,0,-1
548 730 m 5,10,-1
 581 707 l 5,11,-1
 322 344 l 5,12,-1
 289 367 l 5,13,-1
 256 390 l 5,14,-1
 516 753 l 5,15,-1
 548 730 l 5,10,-1
EndSplineSet
EndChar

StartChar: Z
Encoding: 90 90 61
Width: 699
Flags: W
LayerCount: 2
Fore
SplineSet
132 651 m 1,0,-1
 92 651 l 1,1,-1
 92 711 l 2,2,3
 92 718 92 718 92.5 721.5 c 128,-1,4
 93 725 93 725 93 727.5 c 128,-1,5
 93 730 93 730 95.5 730.5 c 128,-1,6
 98 731 98 731 99 731.5 c 128,-1,7
 100 732 100 732 105 731.5 c 128,-1,8
 110 731 110 731 112 731 c 2,9,-1
 599 731 l 2,10,11
 610 731 610 731 615 725 c 128,-1,12
 620 719 620 719 620 709.5 c 128,-1,13
 620 700 620 700 619 688 c 0,14,15
 618 677 618 677 612 668 c 2,16,-1
 191 79 l 1,17,-1
 539 79 l 1,18,-1
 579 79 l 1,19,-1
 619 79 l 1,20,-1
 619 19 l 2,21,22
 619 17 619 17 619 13 c 128,-1,23
 619 9 619 9 619 8 c 128,-1,24
 619 7 619 7 618.5 4.5 c 128,-1,25
 618 2 618 2 617 1.5 c 128,-1,26
 616 1 616 1 613.5 0.5 c 128,-1,27
 611 0 611 0 607.5 -0.5 c 128,-1,28
 604 -1 604 -1 599 -1 c 2,29,-1
 113 -1 l 2,30,31
 102 -1 102 -1 93 5 c 0,32,33
 78 14 78 14 74.5 31.5 c 128,-1,34
 71 49 71 49 81 63 c 2,35,-1
 501 651 l 1,36,-1
 172 651 l 1,37,-1
 132 651 l 1,0,-1
EndSplineSet
EndChar

StartChar: bracketleft
Encoding: 91 91 62
Width: 348
Flags: W
LayerCount: 2
Fore
SplineSet
251 776 m 1,0,-1
 251 736 l 1,1,-1
 179 736 l 1,2,-1
 179 37 l 1,3,-1
 251 37 l 1,4,-1
 251 -3 l 1,5,-1
 251 -43 l 1,6,-1
 119 -43 l 2,7,8
 116 -43 116 -43 112 -43 c 128,-1,9
 108 -43 108 -43 107 -43 c 128,-1,10
 106 -43 106 -43 104 -42.5 c 128,-1,11
 102 -42 102 -42 101.5 -41 c 128,-1,12
 101 -40 101 -40 100 -37.5 c 128,-1,13
 99 -35 99 -35 99 -31.5 c 128,-1,14
 99 -28 99 -28 99 -23 c 2,15,-1
 99 796 l 2,16,17
 99 798 99 798 98.5 802 c 128,-1,18
 98 806 98 806 98 807 c 128,-1,19
 98 808 98 808 99 810.5 c 128,-1,20
 100 813 100 813 101 813.5 c 128,-1,21
 102 814 102 814 104.5 814.5 c 128,-1,22
 107 815 107 815 110 815.5 c 128,-1,23
 113 816 113 816 119 816 c 2,24,-1
 251 816 l 1,25,-1
 251 776 l 1,0,-1
EndSplineSet
EndChar

StartChar: bracketright
Encoding: 93 93 63
Width: 334
Flags: W
LayerCount: 2
Fore
SplineSet
84 776 m 1,0,-1
 84 736 l 1,1,-1
 156 736 l 1,2,-1
 156 37 l 1,3,-1
 84 37 l 1,4,-1
 84 -3 l 1,5,-1
 84 -43 l 1,6,-1
 216 -43 l 2,7,8
 218 -43 218 -43 223 -43 c 128,-1,9
 228 -43 228 -43 229 -43 c 128,-1,10
 230 -43 230 -43 232.5 -42 c 128,-1,11
 235 -41 235 -41 235 -39 c 128,-1,12
 235 -37 235 -37 235.5 -33 c 128,-1,13
 236 -29 236 -29 236 -23 c 2,14,-1
 236 796 l 2,15,16
 236 798 236 798 236 802 c 128,-1,17
 236 806 236 806 236 807 c 128,-1,18
 236 808 236 808 235.5 810.5 c 128,-1,19
 235 813 235 813 234 813.5 c 128,-1,20
 233 814 233 814 230.5 814.5 c 128,-1,21
 228 815 228 815 224.5 815.5 c 128,-1,22
 221 816 221 816 216 816 c 2,23,-1
 84 816 l 1,24,-1
 84 776 l 1,0,-1
EndSplineSet
EndChar

StartChar: asciicircum
Encoding: 94 94 64
Width: 434
Flags: W
LayerCount: 2
Fore
SplineSet
72 791 m 5,0,-1
 50 824 l 5,1,-1
 196 921 l 6,2,3
 218 936 218 936 240 921 c 6,4,-1
 386 824 l 5,5,-1
 364 791 l 5,6,-1
 342 757 l 5,7,-1
 218 840 l 5,8,-1
 94 757 l 5,9,-1
 72 791 l 5,0,-1
EndSplineSet
EndChar

StartChar: underscore
Encoding: 95 95 65
Width: 553
Flags: W
LayerCount: 2
Fore
SplineSet
478 -39 m 1,0,-1
 478 -79 l 1,1,-1
 89 -79 l 1,2,-1
 89 -39 l 1,3,-1
 89 1 l 1,4,-1
 478 1 l 1,5,-1
 478 -39 l 1,0,-1
EndSplineSet
EndChar

StartChar: grave
Encoding: 96 96 66
Width: 1469
Flags: W
LayerCount: 2
Fore
SplineSet
-50 817 m 5,0,-1
 -37 855 l 5,1,-1
 255 757 l 5,2,-1
 242 719 l 5,3,-1
 229 681 l 5,4,-1
 -63 779 l 5,5,-1
 -50 817 l 5,0,-1
EndSplineSet
EndChar

StartChar: a
Encoding: 97 97 67
Width: 530
Flags: W
LayerCount: 2
Fore
SplineSet
131 398 m 1,0,-1
 93 412 l 1,1,2
 107 451 107 451 134 478.5 c 128,-1,3
 161 506 161 506 193 519 c 128,-1,4
 225 532 225 532 261 533 c 0,5,6
 334 534 334 534 391 484.5 c 128,-1,7
 448 435 448 435 450 352 c 2,8,-1
 450 82 l 1,9,-1
 451 82 l 1,10,-1
 451 42 l 1,11,-1
 451 2 l 1,12,-1
 390 2 l 2,13,14
 388 2 388 2 384 2 c 128,-1,15
 380 2 380 2 378.5 2 c 128,-1,16
 377 2 377 2 375 2.5 c 128,-1,17
 373 3 373 3 372.5 4 c 128,-1,18
 372 5 372 5 371 7.5 c 128,-1,19
 370 10 370 10 370 13.5 c 128,-1,20
 370 17 370 17 370 22 c 2,21,-1
 370 351 l 2,22,23
 369 399 369 399 337 426.5 c 128,-1,24
 305 454 305 454 262 453 c 0,25,26
 192 451 192 451 168 384 c 1,27,-1
 131 398 l 1,0,-1
408 265 m 1,28,-1
 408 225 l 1,29,-1
 145 225 l 1,30,31
 140 221 140 221 137 217 c 0,32,33
 126 205 126 205 125 184.5 c 128,-1,34
 124 164 124 164 135.5 141 c 128,-1,35
 147 118 147 118 168 99 c 0,36,37
 186 84 186 84 208.5 76.5 c 128,-1,38
 231 69 231 69 258.5 70.5 c 128,-1,39
 286 72 286 72 317.5 90 c 128,-1,40
 349 108 349 108 377 142 c 1,41,-1
 408 116 l 1,42,-1
 439 90 l 1,43,44
 389 31 389 31 326.5 7.5 c 128,-1,45
 264 -16 264 -16 210.5 -6 c 128,-1,46
 157 4 157 4 117 38 c 0,47,48
 84 66 84 66 63.5 105 c 128,-1,49
 43 144 43 144 44.5 189 c 128,-1,50
 46 234 46 234 76 269 c 0,51,52
 91 287 91 287 113 300 c 0,53,54
 122 305 122 305 133 305 c 2,55,-1
 408 305 l 1,56,-1
 408 265 l 1,28,-1
EndSplineSet
EndChar

StartChar: b
Encoding: 98 98 68
Width: 636
Flags: W
LayerCount: 2
Fore
SplineSet
128 406 m 1,0,-1
 94 433 l 1,1,2
 139 491 139 491 202 514.5 c 128,-1,3
 265 538 265 538 323 530 c 128,-1,4
 381 522 381 522 435 491 c 0,5,6
 493 457 493 457 532 396.5 c 128,-1,7
 571 336 571 336 579.5 262 c 128,-1,8
 588 188 588 188 545 112 c 0,9,10
 525 77 525 77 494 51 c 0,11,12
 440 5 440 5 366.5 -5.5 c 128,-1,13
 293 -16 293 -16 220 10.5 c 128,-1,14
 147 37 147 37 98 97 c 1,15,-1
 128 122 l 1,16,-1
 159 148 l 1,17,18
 196 103 196 103 250.5 84.5 c 128,-1,19
 305 66 305 66 356.5 74.5 c 128,-1,20
 408 83 408 83 443 112 c 0,21,22
 463 129 463 129 476 152 c 0,23,24
 506 206 506 206 500 258.5 c 128,-1,25
 494 311 494 311 466 354 c 0,26,27
 439 395 439 395 395 421 c 0,28,29
 356 444 356 444 316.5 450.5 c 128,-1,30
 277 457 277 457 233 441.5 c 128,-1,31
 189 426 189 426 157 384 c 1,32,-1
 128 406 l 1,0,-1
82 787 m 1,33,-1
 82 827 l 1,34,-1
 142 827 l 2,35,36
 148 827 148 827 152 826.5 c 128,-1,37
 156 826 156 826 158 826 c 128,-1,38
 160 826 160 826 161 823.5 c 128,-1,39
 162 821 162 821 162 820 c 128,-1,40
 162 819 162 819 162 814 c 128,-1,41
 162 809 162 809 162 807 c 2,42,-1
 162 22 l 2,43,44
 162 15 162 15 161.5 11.5 c 128,-1,45
 161 8 161 8 161 5.5 c 128,-1,46
 161 3 161 3 158.5 2.5 c 128,-1,47
 156 2 156 2 155 1.5 c 128,-1,48
 154 1 154 1 149 1.5 c 128,-1,49
 144 2 144 2 142 2 c 2,50,-1
 82 2 l 1,51,-1
 82 42 l 1,52,-1
 82 82 l 1,53,-1
 82 747 l 1,54,-1
 82 787 l 1,33,-1
EndSplineSet
EndChar

StartChar: c
Encoding: 99 99 69
Width: 587
Flags: WO
LayerCount: 2
Fore
SplineSet
511 377 m 1,0,-1
 481 351 l 1,1,2
 464 371 464 371 444 388 c 0,3,4
 373 447 373 447 294.5 450 c 128,-1,5
 216 453 216 453 169 397 c 0,6,7
 133 354 133 354 127.5 299 c 128,-1,8
 122 244 122 244 143 196.5 c 128,-1,9
 164 149 164 149 203 117 c 0,10,11
 243 83 243 83 288 71.5 c 128,-1,12
 333 60 333 60 385 77.5 c 128,-1,13
 437 95 437 95 481 147 c 1,14,-1
 512 122 l 1,15,-1
 542 96 l 1,16,17
 498 43 498 43 444.5 16 c 128,-1,18
 391 -11 391 -11 339.5 -11.5 c 128,-1,19
 288 -12 288 -12 239.5 5 c 128,-1,20
 191 22 191 22 151 56 c 0,21,22
 113 88 113 88 87.5 134.5 c 128,-1,23
 62 181 62 181 52.5 233.5 c 128,-1,24
 43 286 43 286 56.5 343.5 c 128,-1,25
 70 401 70 401 108 449 c 0,26,27
 156 509 156 509 227 525.5 c 128,-1,28
 298 542 298 542 367 520.5 c 128,-1,29
 436 499 436 499 495 449 c 0,30,31
 521 428 521 428 542 402 c 1,32,-1
 511 377 l 1,0,-1
EndSplineSet
EndChar

StartChar: d
Encoding: 100 100 70
Width: 642
Flags: W
LayerCount: 2
Fore
SplineSet
502 377 m 1,0,-1
 472 351 l 1,1,2
 455 371 455 371 435 388 c 0,3,4
 364 447 364 447 285.5 450 c 128,-1,5
 207 453 207 453 160 397 c 0,6,7
 124 354 124 354 118.5 299 c 128,-1,8
 113 244 113 244 134 196.5 c 128,-1,9
 155 149 155 149 194 117 c 0,10,11
 234 83 234 83 279 71.5 c 128,-1,12
 324 60 324 60 376 77.5 c 128,-1,13
 428 95 428 95 472 147 c 1,14,-1
 503 122 l 1,15,-1
 533 96 l 1,16,17
 489 43 489 43 435.5 16 c 128,-1,18
 382 -11 382 -11 330.5 -11.5 c 128,-1,19
 279 -12 279 -12 230.5 5 c 128,-1,20
 182 22 182 22 142 56 c 0,21,22
 104 88 104 88 78.5 134.5 c 128,-1,23
 53 181 53 181 43.5 233.5 c 128,-1,24
 34 286 34 286 47.5 343.5 c 128,-1,25
 61 401 61 401 99 449 c 0,26,27
 147 509 147 509 218 525.5 c 128,-1,28
 289 542 289 542 358 520.5 c 128,-1,29
 427 499 427 499 486 449 c 0,30,31
 512 428 512 428 533 402 c 1,32,-1
 502 377 l 1,0,-1
552 786 m 1,33,-1
 552 746 l 1,34,-1
 551 746 l 1,35,-1
 551 80 l 1,36,-1
 552 80 l 1,37,-1
 552 40 l 1,38,-1
 552 0 l 1,39,-1
 491 0 l 2,40,41
 489 0 489 0 485 0 c 128,-1,42
 481 0 481 0 479.5 0 c 128,-1,43
 478 0 478 0 476 0.5 c 128,-1,44
 474 1 474 1 473.5 2 c 128,-1,45
 473 3 473 3 472 5.5 c 128,-1,46
 471 8 471 8 471 11.5 c 128,-1,47
 471 15 471 15 471 20 c 2,48,-1
 471 806 l 2,49,50
 471 808 471 808 471 812 c 128,-1,51
 471 816 471 816 471 817 c 128,-1,52
 471 818 471 818 471.5 820.5 c 128,-1,53
 472 823 472 823 473 823.5 c 128,-1,54
 474 824 474 824 476.5 824.5 c 128,-1,55
 479 825 479 825 482.5 825.5 c 128,-1,56
 486 826 486 826 491 826 c 2,57,-1
 552 826 l 1,58,-1
 552 786 l 1,33,-1
EndSplineSet
EndChar

StartChar: e
Encoding: 101 101 71
Width: 585
Flags: W
LayerCount: 2
Fore
SplineSet
497 339 m 5,0,-1
 454 330 l 5,1,2
 445.418945312 370.51171875 445.418945312 370.51171875 427 392 c 4,3,4
 379 448 379 448 296 450.5 c 132,-1,5
 213 453 213 453 166 397 c 4,6,7
 130 354 130 354 124.5 299 c 132,-1,8
 119 244 119 244 140 196.5 c 132,-1,9
 161 149 161 149 200 117 c 4,10,11
 240 83 240 83 285 71.5 c 132,-1,12
 330 60 330 60 382 77.5 c 132,-1,13
 434 95 434 95 478 147 c 5,14,-1
 509 122 l 5,15,-1
 539 96 l 5,16,17
 495 43 495 43 441.5 16 c 132,-1,18
 388 -11 388 -11 336.5 -11.5 c 132,-1,19
 285 -12 285 -12 236.5 5 c 132,-1,20
 188 22 188 22 148 56 c 4,21,22
 110 88 110 88 84.5 134.5 c 132,-1,23
 59 181 59 181 49.5 233.5 c 132,-1,24
 40 286 40 286 53.5 343.5 c 132,-1,25
 67 401 67 401 105 449 c 4,26,27
 153 509 153 509 224 525.5 c 4,28,29
 297 543 297 543 364 520.5 c 4,30,31
 438 496 438 496 485 449 c 4,32,-1
 528 366 l 28,33,-1
 497 339 l 5,0,-1
105 243 m 5,34,-1
 91 281 l 5,35,-1
 478 356 l 5,36,-1
 528 366 l 5,37,-1
 541 288 l 5,38,-1
 119 206 l 5,39,-1
 105 243 l 5,34,-1
EndSplineSet
EndChar

StartChar: f
Encoding: 102 102 72
Width: 453
Flags: W
LayerCount: 2
Fore
SplineSet
457 747 m 1,0,-1
 437 712 l 1,1,2
 406 730 406 730 371 730 c 0,3,4
 311 730 311 730 264 681.5 c 128,-1,5
 217 633 217 633 217 560 c 2,6,-1
 217 1 l 1,7,-1
 177 1 l 1,8,-1
 137 1 l 1,9,-1
 137 560 l 2,10,11
 137 665 137 665 207 737.5 c 128,-1,12
 277 810 277 810 371 810 c 0,13,14
 427 810 427 810 477 781 c 1,15,-1
 457 747 l 1,0,-1
59 482 m 1,16,-1
 59 522 l 1,17,-1
 388 522 l 1,18,-1
 388 482 l 1,19,-1
 388 442 l 1,20,-1
 59 442 l 1,21,-1
 59 482 l 1,16,-1
EndSplineSet
EndChar

StartChar: g
Encoding: 103 103 73
Width: 604
Flags: W
LayerCount: 2
Fore
SplineSet
501 377 m 1,0,-1
 471 351 l 1,1,2
 454 371 454 371 434 388 c 0,3,4
 363 447 363 447 284.5 450 c 128,-1,5
 206 453 206 453 159 397 c 0,6,7
 123 354 123 354 117.5 299 c 128,-1,8
 112 244 112 244 133 196.5 c 128,-1,9
 154 149 154 149 193 117 c 0,10,11
 233 83 233 83 278 71.5 c 128,-1,12
 323 60 323 60 375 77.5 c 128,-1,13
 427 95 427 95 471 147 c 1,14,-1
 502 122 l 1,15,-1
 532 96 l 1,16,17
 488 43 488 43 434.5 16 c 128,-1,18
 381 -11 381 -11 329.5 -11.5 c 128,-1,19
 278 -12 278 -12 229.5 5 c 128,-1,20
 181 22 181 22 141 56 c 0,21,22
 103 88 103 88 77.5 134.5 c 128,-1,23
 52 181 52 181 42.5 233.5 c 128,-1,24
 33 286 33 286 46.5 343.5 c 128,-1,25
 60 401 60 401 98 449 c 0,26,27
 146 509 146 509 217 525.5 c 128,-1,28
 288 542 288 542 357 520.5 c 128,-1,29
 426 499 426 499 485 449 c 0,30,31
 511 428 511 428 532 402 c 1,32,-1
 501 377 l 1,0,-1
533 480 m 1,33,-1
 533 440 l 1,34,-1
 532 440 l 1,35,-1
 532 -60 l 2,36,37
 532 -133 532 -133 477 -180 c 0,38,39
 430 -219 430 -219 362 -224.5 c 128,-1,40
 294 -230 294 -230 220.5 -197 c 128,-1,41
 147 -164 147 -164 89 -95 c 1,42,-1
 120 -69 l 1,43,-1
 151 -44 l 1,44,45
 186 -86 186 -86 228 -111 c 128,-1,46
 270 -136 270 -136 307 -141 c 128,-1,47
 344 -146 344 -146 375 -140 c 128,-1,48
 406 -134 406 -134 426 -118 c 0,49,50
 452 -96 452 -96 452 -60 c 2,51,-1
 452 500 l 2,52,53
 452 503 452 503 452 506.5 c 128,-1,54
 452 510 452 510 452 511.5 c 128,-1,55
 452 513 452 513 452.5 515 c 128,-1,56
 453 517 453 517 454 517.5 c 128,-1,57
 455 518 455 518 457.5 519 c 128,-1,58
 460 520 460 520 463.5 520 c 128,-1,59
 467 520 467 520 472 520 c 2,60,-1
 533 520 l 1,61,-1
 533 480 l 1,33,-1
EndSplineSet
EndChar

StartChar: h
Encoding: 104 104 74
Width: 598
Flags: W
LayerCount: 2
Fore
SplineSet
129 2 m 1,0,-1
 89 2 l 1,1,-1
 89 720 l 1,2,-1
 90 720 l 1,3,-1
 90 760 l 1,4,-1
 90 800 l 1,5,-1
 149 800 l 2,6,7
 152 800 152 800 155 800 c 128,-1,8
 158 800 158 800 159.5 800 c 128,-1,9
 161 800 161 800 163 800 c 128,-1,10
 165 800 165 800 166 799 c 128,-1,11
 167 798 167 798 168 797 c 128,-1,12
 169 796 169 796 169 793.5 c 128,-1,13
 169 791 169 791 169 788 c 128,-1,14
 169 785 169 785 169 780 c 2,15,-1
 169 2 l 1,16,-1
 129 2 l 1,0,-1
136 405 m 5,17,-1
 111 435 l 5,18,19
 139 459 139 459 172 478.5 c 132,-1,20
 205 498 205 498 237.5 510 c 132,-1,21
 270 522 270 522 302 528.5 c 132,-1,22
 334 535 334 535 362 535 c 4,23,24
 424 535 424 535 468 501 c 132,-1,25
 512 467 512 467 512 405 c 6,26,-1
 512 2 l 5,27,-1
 472 2 l 5,28,-1
 432 2 l 5,29,-1
 432 405 l 6,30,31
 432 455 432 455 362 455 c 4,32,33
 316 455 316 455 261.5 438 c 132,-1,34
 207 421 207 421 162 383 c 5,35,-1
 136 405 l 5,17,-1
EndSplineSet
EndChar

StartChar: i
Encoding: 105 105 75
Width: 276
Flags: W
LayerCount: 2
Fore
SplineSet
141 2 m 5,0,-1
 101 2 l 5,1,-1
 101 443 l 5,2,-1
 101 491 l 5,3,-1
 101 531 l 5,4,-1
 161 531 l 6,5,6
 164 531 164 531 166.5 531 c 4,7,8
 170 531 170 531 171 531 c 132,-1,9
 172 531 172 531 174 531 c 132,-1,10
 176 531 176 531 177 530 c 132,-1,11
 178 529 178 529 179 528 c 132,-1,12
 180 527 180 527 180 524.5 c 132,-1,13
 180 522 180 522 180.5 519 c 132,-1,14
 181 516 181 516 181 511 c 6,15,-1
 181 2 l 5,16,-1
 141 2 l 5,0,-1
94 633 m 5,17,-1
 76 669 l 5,18,-1
 169 716 l 5,19,-1
 187 680 l 5,20,-1
 205 644 l 5,21,-1
 112 597 l 5,22,-1
 94 633 l 5,17,-1
EndSplineSet
EndChar

StartChar: j
Encoding: 106 106 76
Width: 287
Flags: W
LayerCount: 2
Fore
SplineSet
12 -159 m 1,0,-1
 32 -125 l 1,1,2
 47 -135 47 -135 67.5 -128 c 128,-1,3
 88 -121 88 -121 101 -98 c 0,4,5
 111 -80 111 -80 111 -57 c 2,6,-1
 111 443 l 1,7,-1
 111 523 l 1,8,-1
 171 523 l 2,9,10
 178 523 178 523 181.5 522.5 c 128,-1,11
 185 522 185 522 187.5 522 c 128,-1,12
 190 522 190 522 190.5 519.5 c 128,-1,13
 191 517 191 517 191.5 516.5 c 128,-1,14
 192 516 192 516 191.5 511 c 128,-1,15
 191 506 191 506 191 503 c 2,16,-1
 191 -57 l 2,17,18
 191 -101 191 -101 170 -138 c 0,19,20
 143 -185 143 -185 93.5 -203 c 128,-1,21
 44 -221 44 -221 -8 -194 c 1,22,-1
 12 -159 l 1,0,-1
105 622 m 1,23,-1
 87 658 l 1,24,-1
 180 705 l 1,25,-1
 198 669 l 1,26,-1
 216 633 l 1,27,-1
 123 587 l 1,28,-1
 105 622 l 1,23,-1
EndSplineSet
EndChar

StartChar: k
Encoding: 107 107 77
Width: 577
Flags: W
LayerCount: 2
Fore
SplineSet
129 -1 m 1,0,-1
 89 -1 l 1,1,-1
 89 720 l 1,2,-1
 88 720 l 1,3,-1
 88 760 l 1,4,-1
 88 800 l 1,5,-1
 150 800 l 2,6,7
 152 800 152 800 156 800 c 128,-1,8
 160 800 160 800 161 800.5 c 128,-1,9
 162 801 162 801 164 800 c 128,-1,10
 166 799 166 799 166.5 798 c 128,-1,11
 167 797 167 797 168 794.5 c 128,-1,12
 169 792 169 792 169 789 c 128,-1,13
 169 786 169 786 169 780 c 2,14,-1
 169 -1 l 1,15,-1
 129 -1 l 1,0,-1
435 523 m 1,16,-1
 457 490 l 1,17,-1
 151 285 l 1,18,-1
 129 318 l 1,19,-1
 107 352 l 1,20,-1
 413 556 l 1,21,-1
 435 523 l 1,16,-1
203 365 m 1,22,-1
 233 392 l 1,23,-1
 555 40 l 1,24,-1
 525 13 l 1,25,-1
 495 -14 l 1,26,-1
 174 338 l 1,27,-1
 203 365 l 1,22,-1
EndSplineSet
EndChar

StartChar: l
Encoding: 108 108 78
Width: 252
Flags: W
LayerCount: 2
Fore
SplineSet
125 2 m 5,0,-1
 85 2 l 5,1,-1
 85 720 l 5,2,-1
 85 760 l 5,3,-1
 85 800 l 5,4,-1
 145 800 l 6,5,6
 147 800 147 800 151 800 c 132,-1,7
 155 800 155 800 156.5 800.5 c 132,-1,8
 158 801 158 801 160 800 c 132,-1,9
 162 799 162 799 162.5 798 c 132,-1,10
 163 797 163 797 164 794.5 c 132,-1,11
 165 792 165 792 165 789 c 132,-1,12
 165 786 165 786 165 780 c 6,13,-1
 165 2 l 5,14,-1
 125 2 l 5,0,-1
EndSplineSet
EndChar

StartChar: m
Encoding: 109 109 79
Width: 811
Flags: W
LayerCount: 2
Fore
SplineSet
127 1 m 1,0,-1
 87 1 l 1,1,-1
 87 455 l 1,2,-1
 87 495 l 1,3,-1
 87 523 l 1,4,-1
 147 523 l 2,5,6
 148 523 148 523 152 523 c 128,-1,7
 156 523 156 523 157 523 c 128,-1,8
 158 523 158 523 160.5 522.5 c 128,-1,9
 163 522 163 522 163 521 c 128,-1,10
 163 520 163 520 164.5 519 c 128,-1,11
 166 518 166 518 166 515.5 c 128,-1,12
 166 513 166 513 166.5 509.5 c 128,-1,13
 167 506 167 506 167 502 c 2,14,-1
 167 1 l 1,15,-1
 127 1 l 1,0,-1
127 426 m 1,16,-1
 107 460 l 1,17,18
 233 533 233 533 327 534 c 0,19,20
 345 534 345 534 362 530 c 128,-1,21
 379 526 379 526 394.5 517 c 128,-1,22
 410 508 410 508 421.5 495.5 c 128,-1,23
 433 483 433 483 439.5 465 c 128,-1,24
 446 447 446 447 446 426 c 2,25,-1
 446 1 l 1,26,-1
 406 1 l 1,27,-1
 366 1 l 1,28,-1
 366 426 l 2,29,30
 366 443 366 443 359.5 448.5 c 128,-1,31
 353 454 353 454 327 454 c 0,32,33
 295 453 295 453 245.5 436.5 c 128,-1,34
 196 420 196 420 147 391 c 1,35,-1
 127 426 l 1,16,-1
406 426 m 1,36,-1
 386 460 l 1,37,38
 513 533 513 533 607 534 c 0,39,40
 638 534 638 534 664 522.5 c 128,-1,41
 690 511 690 511 707.5 486 c 128,-1,42
 725 461 725 461 725 426 c 2,43,-1
 725 1 l 1,44,-1
 685 1 l 1,45,-1
 645 1 l 1,46,-1
 645 426 l 2,47,48
 645 437 645 437 643 442.5 c 128,-1,49
 641 448 641 448 632.5 451 c 128,-1,50
 624 454 624 454 607 454 c 0,51,52
 574 453 574 453 525 436.5 c 128,-1,53
 476 420 476 420 426 391 c 1,54,-1
 406 426 l 1,36,-1
EndSplineSet
EndChar

StartChar: n
Encoding: 110 110 80
Width: 578
Flags: W
LayerCount: 2
Fore
SplineSet
123 1 m 1,0,-1
 83 1 l 1,1,-1
 83 445 l 1,2,-1
 83 485 l 1,3,-1
 83 525 l 1,4,-1
 143 525 l 2,5,6
 145 525 145 525 149 525 c 128,-1,7
 153 525 153 525 154 525 c 128,-1,8
 155 525 155 525 157.5 524.5 c 128,-1,9
 160 524 160 524 160.5 523 c 128,-1,10
 161 522 161 522 161.5 519.5 c 128,-1,11
 162 517 162 517 162.5 513.5 c 128,-1,12
 163 510 163 510 163 505 c 2,13,-1
 163 1 l 1,14,-1
 123 1 l 1,0,-1
123 414 m 1,15,-1
 103 448 l 1,16,17
 249 533 249 533 357 533 c 0,18,19
 412 533 412 533 450.5 502.5 c 128,-1,20
 489 472 489 472 489 414 c 2,21,-1
 489 1 l 1,22,-1
 449 1 l 1,23,-1
 409 1 l 1,24,-1
 409 414 l 2,25,26
 409 429 409 429 404.5 437 c 128,-1,27
 400 445 400 445 389 449 c 128,-1,28
 378 453 378 453 357 453 c 0,29,30
 318 453 318 453 259.5 433 c 128,-1,31
 201 413 201 413 143 379 c 1,32,-1
 123 414 l 1,15,-1
EndSplineSet
EndChar

StartChar: o
Encoding: 111 111 81
Width: 630
Flags: WO
LayerCount: 2
Fore
SplineSet
171 451 m 5,0,-1
 197 420 l 5,1,2
 148 382 148 382 134.5 345.5 c 4,3,4
 118 299 118 299 124.5 251.5 c 132,-1,5
 131 204 131 204 159 162 c 4,6,7
 192 114 192 114 227.5 94.5 c 4,8,9
 269 72 269 72 322 68 c 4,10,11
 378 64 378 64 433 101 c 5,12,-1
 455 68 l 5,13,-1
 477 34 l 5,14,15
 403 -15 403 -15 324 -11 c 4,16,17
 248 -7 248 -7 188.5 25.5 c 4,18,19
 135 55 135 55 93 117 c 4,20,21
 55 173 55 173 45.5 239.5 c 132,-1,22
 36 306 36 306 59.5 372.5 c 4,23,24
 79 429 79 429 145 482 c 5,25,-1
 171 451 l 5,0,-1
455 68 m 5,26,-1
 429 98 l 5,27,28
 478 137 478 137 491.5 174 c 4,29,30
 513 232 513 232 501 283.5 c 4,31,32
 491 327 491 327 462 369 c 4,33,34
 432 413 432 413 383 433.5 c 132,-1,35
 334 454 334 454 283.5 454 c 4,36,37
 248 454 248 454 193 418 c 5,38,-1
 171 451 l 5,39,-1
 149 484 l 5,40,41
 223 534 223 534 281.5 533.5 c 4,42,43
 368 533 368 533 428.5 501.5 c 4,44,45
 492 467 492 467 528 413 c 4,46,47
 571 348 571 348 580 295 c 4,48,49
 592 218 592 218 566.5 146.5 c 4,50,51
 546 89 546 89 481 37 c 5,52,-1
 455 68 l 5,26,-1
EndSplineSet
EndChar

StartChar: p
Encoding: 112 112 82
Width: 632
Flags: W
LayerCount: 2
Fore
SplineSet
78 484 m 1,0,-1
 78 524 l 1,1,-1
 138 524 l 2,2,3
 145 524 145 524 148.5 523.5 c 128,-1,4
 152 523 152 523 154.5 523 c 128,-1,5
 157 523 157 523 157.5 520.5 c 128,-1,6
 158 518 158 518 158.5 517 c 128,-1,7
 159 516 159 516 158.5 511.5 c 128,-1,8
 158 507 158 507 158 504 c 2,9,-1
 158 -200 l 1,10,-1
 118 -200 l 1,11,-1
 78 -200 l 1,12,-1
 78 444 l 1,13,-1
 78 484 l 1,0,-1
126 406 m 1,14,-1
 92 433 l 1,15,16
 137 491 137 491 200 514.5 c 128,-1,17
 263 538 263 538 322.5 530 c 128,-1,18
 382 522 382 522 436 491 c 0,19,20
 494 457 494 457 533 396.5 c 128,-1,21
 572 336 572 336 579 262 c 128,-1,22
 586 188 586 188 543 112 c 0,23,24
 523 77 523 77 492 51 c 0,25,26
 438 5 438 5 364.5 -5.5 c 128,-1,27
 291 -16 291 -16 218 10.5 c 128,-1,28
 145 37 145 37 96 97 c 1,29,-1
 126 122 l 1,30,-1
 157 148 l 1,31,32
 194 103 194 103 248.5 84.5 c 128,-1,33
 303 66 303 66 354.5 74.5 c 128,-1,34
 406 83 406 83 441 112 c 0,35,36
 461 129 461 129 474 152 c 0,37,38
 504 206 504 206 499.5 258.5 c 128,-1,39
 495 311 495 311 467 354 c 0,40,41
 440 395 440 395 396 421 c 0,42,43
 357 444 357 444 316 450.5 c 128,-1,44
 275 457 275 457 231 441.5 c 128,-1,45
 187 426 187 426 155 384 c 1,46,-1
 126 406 l 1,14,-1
EndSplineSet
EndChar

StartChar: q
Encoding: 113 113 83
Width: 619
Flags: W
LayerCount: 2
Fore
SplineSet
542 482 m 1,0,-1
 542 442 l 1,1,-1
 541 442 l 1,2,-1
 540 -198 l 1,3,-1
 500 -198 l 1,4,-1
 460 -198 l 1,5,-1
 461 502 l 2,6,7
 461 505 461 505 461 508.5 c 128,-1,8
 461 512 461 512 461 513.5 c 128,-1,9
 461 515 461 515 461.5 517 c 128,-1,10
 462 519 462 519 463 519.5 c 128,-1,11
 464 520 464 520 466.5 521 c 128,-1,12
 469 522 469 522 472.5 522 c 128,-1,13
 476 522 476 522 481 522 c 2,14,-1
 542 522 l 1,15,-1
 542 482 l 1,0,-1
501 377 m 1,16,-1
 471 351 l 1,17,18
 454 371 454 371 434 388 c 0,19,20
 363 447 363 447 284.5 450 c 128,-1,21
 206 453 206 453 159 397 c 0,22,23
 123 354 123 354 117.5 299 c 128,-1,24
 112 244 112 244 133 196.5 c 128,-1,25
 154 149 154 149 193 117 c 0,26,27
 233 83 233 83 278 71.5 c 128,-1,28
 323 60 323 60 375 77.5 c 128,-1,29
 427 95 427 95 471 147 c 1,30,-1
 502 122 l 1,31,-1
 532 96 l 1,32,33
 488 43 488 43 434.5 16 c 128,-1,34
 381 -11 381 -11 329.5 -11.5 c 128,-1,35
 278 -12 278 -12 229.5 5 c 128,-1,36
 181 22 181 22 141 56 c 0,37,38
 103 88 103 88 77.5 134.5 c 128,-1,39
 52 181 52 181 42.5 233.5 c 128,-1,40
 33 286 33 286 46.5 343.5 c 128,-1,41
 60 401 60 401 98 449 c 0,42,43
 146 509 146 509 217 525.5 c 128,-1,44
 288 542 288 542 357 520.5 c 128,-1,45
 426 499 426 499 485 449 c 0,46,47
 511 428 511 428 532 402 c 1,48,-1
 501 377 l 1,16,-1
EndSplineSet
EndChar

StartChar: r
Encoding: 114 114 84
Width: 483
Flags: W
LayerCount: 2
Fore
SplineSet
122 0 m 1,0,-1
 82 0 l 1,1,-1
 82 453 l 1,2,-1
 83 453 l 1,3,-1
 83 493 l 1,4,-1
 83 523 l 1,5,-1
 142 523 l 2,6,7
 145 523 145 523 149 523 c 128,-1,8
 153 523 153 523 154 523 c 128,-1,9
 155 523 155 523 157.5 522.5 c 128,-1,10
 160 522 160 522 160.5 521 c 128,-1,11
 161 520 161 520 161.5 517.5 c 128,-1,12
 162 515 162 515 162 511.5 c 128,-1,13
 162 508 162 508 162 503 c 2,14,-1
 162 0 l 1,15,-1
 122 0 l 1,0,-1
410 400 m 1,16,-1
 370 407 l 1,17,18
 376 441 376 441 330 452 c 0,19,20
 294 460 294 460 253 441 c 128,-1,21
 212 422 212 422 148 369 c 1,22,-1
 122 400 l 1,23,-1
 97 430 l 1,24,25
 147 472 147 472 186.5 496 c 128,-1,26
 226 520 226 520 265 529 c 128,-1,27
 304 538 304 538 344 531 c 0,28,29
 397 521 397 521 427.5 487.5 c 128,-1,30
 458 454 458 454 449 401 c 1,31,-1
 410 400 l 1,16,-1
EndSplineSet
EndChar

StartChar: s
Encoding: 115 115 85
Width: 497
Flags: W
LayerCount: 2
Fore
SplineSet
380 419 m 5,0,-1
 349 394 l 5,1,2
 319 430 319 430 278 445 c 4,3,4
 233 460 233 460 199.5 448.5 c 132,-1,5
 166 437 166 437 154 406 c 4,6,7
 149 390 149 390 162.5 377 c 132,-1,8
 176 364 176 364 205 352 c 132,-1,9
 234 340 234 340 266.5 327.5 c 132,-1,10
 299 315 299 315 338.5 294.5 c 132,-1,11
 378 274 378 274 407 250 c 4,12,13
 450 214 450 214 453 164 c 132,-1,14
 456 114 456 114 410 56 c 4,15,16
 408 53 408 53 405 51 c 4,17,18
 392 40 392 40 378 31 c 4,19,20
 292 -24 292 -24 191 -1.5 c 132,-1,21
 90 21 90 21 34 109 c 5,22,-1
 68 130 l 5,23,-1
 102 152 l 5,24,25
 140 92 140 92 208.5 76.5 c 132,-1,26
 277 61 277 61 335 99 c 4,27,28
 343 104 343 104 351 110 c 4,29,30
 370 134 370 134 375 148.5 c 132,-1,31
 380 163 380 163 374.5 171.5 c 132,-1,32
 369 180 369 180 354 190 c 4,33,34
 337 200 337 200 314 211 c 132,-1,35
 291 222 291 222 269.5 231 c 132,-1,36
 248 240 248 240 222.5 250.5 c 132,-1,37
 197 261 197 261 177 270.5 c 132,-1,38
 157 280 157 280 136 292.5 c 132,-1,39
 115 305 115 305 102 318.5 c 132,-1,40
 89 332 89 332 79.5 350 c 132,-1,41
 70 368 70 368 71 387.5 c 132,-1,42
 72 407 72 407 79 433 c 4,43,44
 92 467 92 467 117 490.5 c 132,-1,45
 142 514 142 514 173 524 c 132,-1,46
 204 534 204 534 238.5 533 c 132,-1,47
 273 532 273 532 305 520 c 4,48,49
 366 497 366 497 410 445 c 5,50,-1
 380 419 l 5,0,-1
EndSplineSet
EndChar

StartChar: t
Encoding: 116 116 86
Width: 344
Flags: W
LayerCount: 2
Fore
SplineSet
273 37 m 1,0,-1
 273 -9 l 1,1,2
 251 -9 251 -9 225.5 -3 c 128,-1,3
 200 3 200 3 174.5 14.5 c 128,-1,4
 149 26 149 26 132 47.5 c 128,-1,5
 115 69 115 69 115 96 c 2,6,-1
 115 618 l 1,7,-1
 155 618 l 1,8,-1
 195 618 l 1,9,-1
 195 96 l 2,10,11
 195 93 195 93 206 87 c 128,-1,12
 217 81 217 81 236 76 c 128,-1,13
 255 71 255 71 273 71 c 1,14,-1
 273 37 l 1,0,-1
36 494 m 1,15,-1
 36 534 l 1,16,-1
 290 534 l 1,17,-1
 290 494 l 1,18,-1
 290 454 l 1,19,-1
 36 454 l 1,20,-1
 36 494 l 1,15,-1
EndSplineSet
EndChar

StartChar: u
Encoding: 117 117 87
Width: 584
Flags: W
LayerCount: 2
Fore
SplineSet
495 39 m 5,0,-1
 495 -1 l 5,1,-1
 435 -1 l 6,2,3
 428 -1 428 -1 424.5 -0.5 c 132,-1,4
 421 0 421 0 418.5 0.5 c 132,-1,5
 416 1 416 1 415.5 3 c 132,-1,6
 415 5 415 5 414.5 6 c 132,-1,7
 414 7 414 7 414.5 12 c 132,-1,8
 415 17 415 17 415 19 c 6,9,-1
 415 452 l 5,10,-1
 415 492 l 5,11,-1
 415 532 l 5,12,-1
 475 532 l 6,13,14
 478 532 478 532 481 532 c 4,15,16
 485 532 485 532 486 532 c 132,-1,17
 487 532 487 532 489.5 531.5 c 132,-1,18
 492 531 492 531 492.5 530 c 132,-1,19
 493 529 493 529 493.5 526.5 c 132,-1,20
 494 524 494 524 494.5 520.5 c 132,-1,21
 495 517 495 517 495 512 c 6,22,-1
 495 79 l 5,23,-1
 495 39 l 5,0,-1
455 118 m 5,24,-1
 480 88 l 5,25,26
 423 39 423 39 359.5 13.5 c 132,-1,27
 296 -12 296 -12 239 -12 c 4,28,29
 177 -12 177 -12 133 22 c 132,-1,30
 89 56 89 56 89 118 c 6,31,-1
 89 452 l 5,32,-1
 89 492 l 5,33,-1
 89 532 l 5,34,-1
 149 532 l 6,35,36
 152 532 152 532 155 532 c 4,37,38
 159 532 159 532 160 532 c 132,-1,39
 161 532 161 532 163.5 531.5 c 132,-1,40
 166 531 166 531 166.5 530 c 132,-1,41
 167 529 167 529 167.5 526.5 c 132,-1,42
 168 524 168 524 168.5 520.5 c 132,-1,43
 169 517 169 517 169 512 c 6,44,-1
 169 118 l 6,45,46
 169 68 169 68 239 68 c 4,47,48
 265 68 265 68 295.5 76.5 c 132,-1,49
 326 85 326 85 361.5 103.5 c 132,-1,50
 397 122 397 122 429 149 c 5,51,-1
 455 118 l 5,24,-1
EndSplineSet
EndChar

StartChar: v
Encoding: 118 118 88
Width: 555
Flags: W
LayerCount: 2
Fore
SplineSet
72 518 m 1,0,-1
 109 533 l 1,1,-1
 275 141 l 1,2,-1
 439 535 l 1,3,-1
 476 520 l 1,4,-1
 513 505 l 1,5,-1
 312 19 l 2,6,7
 306 4 306 4 292 -2 c 0,8,9
 277 -10 277 -10 260.5 -3.5 c 128,-1,10
 244 3 244 3 238 19 c 2,11,-1
 35 503 l 1,12,-1
 72 518 l 1,0,-1
EndSplineSet
EndChar

StartChar: w
Encoding: 119 119 89
Width: 866
Flags: W
LayerCount: 2
Fore
SplineSet
66 523 m 5,0,-1
 103 538 l 5,1,-1
 246 139 l 5,2,-1
 394 457 l 5,3,-1
 467 457 l 5,4,-1
 467 424 l 5,5,-1
 281 20 l 6,6,7
 275 7 275 7 262 0 c 4,8,9
 247 -7 247 -7 230 -1 c 132,-1,10
 213 5 213 5 207 21 c 6,11,-1
 29 508 l 5,12,-1
 66 523 l 5,0,-1
431 440 m 5,13,-1
 467 457 l 5,14,-1
 615 139 l 5,15,-1
 761 535 l 5,16,-1
 798 520 l 5,17,-1
 835 505 l 5,18,-1
 654 21 l 6,19,20
 649 8 649 8 636 1 c 4,21,22
 621 -7 621 -7 604 -1.5 c 132,-1,23
 587 4 587 4 580 20 c 6,24,-1
 394 424 l 5,25,-1
 431 440 l 5,13,-1
EndSplineSet
EndChar

StartChar: x
Encoding: 120 120 90
Width: 581
Flags: W
LayerCount: 2
Fore
SplineSet
100 508 m 1,0,-1
 131 533 l 1,1,-1
 533 36 l 1,2,-1
 502 11 l 1,3,-1
 471 -14 l 1,4,-1
 69 483 l 1,5,-1
 100 508 l 1,0,-1
486 507 m 1,6,-1
 517 482 l 1,7,-1
 310 227 l 1,8,-1
 279 252 l 1,9,-1
 248 277 l 1,10,-1
 455 532 l 1,11,-1
 486 507 l 1,6,-1
279 252 m 1,12,-1
 310 227 l 1,13,-1
 109 -13 l 1,14,-1
 78 12 l 1,15,-1
 47 37 l 1,16,-1
 248 277 l 1,17,-1
 279 252 l 1,12,-1
EndSplineSet
EndChar

StartChar: y
Encoding: 121 121 91
Width: 603
Flags: W
LayerCount: 2
Fore
SplineSet
486 131 m 5,0,-1
 511 101 l 5,1,2
 485 79 485 79 457 60.5 c 132,-1,3
 429 42 429 42 401.5 28.5 c 132,-1,4
 374 15 374 15 346 6 c 132,-1,5
 318 -3 318 -3 291.5 -7.5 c 132,-1,6
 265 -12 265 -12 239 -12 c 4,7,8
 170 -12 170 -12 121.5 25.5 c 132,-1,9
 73 63 73 63 73 131 c 6,10,-1
 73 451 l 5,11,-1
 74 451 l 5,12,-1
 74 491 l 5,13,-1
 74 531 l 5,14,-1
 133 531 l 6,15,16
 136 531 136 531 139 531 c 132,-1,17
 142 531 142 531 143.5 531 c 132,-1,18
 145 531 145 531 147 531 c 132,-1,19
 149 531 149 531 149.5 530 c 132,-1,20
 150 529 150 529 151 528 c 132,-1,21
 152 527 152 527 152.5 524.5 c 132,-1,22
 153 522 153 522 153 519 c 132,-1,23
 153 516 153 516 153 511 c 6,24,-1
 153 131 l 6,25,26
 153 68 153 68 239 68 c 4,27,28
 287 68 287 68 346 92 c 132,-1,29
 405 116 405 116 460 162 c 5,30,-1
 486 131 l 5,0,-1
486 532 m 5,31,-1
 526 532 l 5,32,-1
 526 -36 l 6,33,34
 526 -99 526 -99 486 -146 c 4,35,36
 445 -196 445 -196 377 -212.5 c 132,-1,37
 309 -229 309 -229 231.5 -208.5 c 132,-1,38
 154 -188 154 -188 87 -132 c 5,39,-1
 113 -102 l 5,40,-1
 139 -71 l 5,41,42
 192 -116 192 -116 252.5 -130.5 c 132,-1,43
 313 -145 313 -145 357.5 -134 c 132,-1,44
 402 -123 402 -123 425 -95 c 4,45,46
 446 -70 446 -70 446 -36 c 6,47,-1
 446 532 l 5,48,-1
 486 532 l 5,31,-1
EndSplineSet
EndChar

StartChar: z
Encoding: 122 122 92
Width: 587
Flags: W
LayerCount: 2
Fore
SplineSet
117 443 m 1,0,-1
 77 443 l 1,1,-1
 77 503 l 2,2,3
 77 509 77 509 77.5 513 c 128,-1,4
 78 517 78 517 78 519 c 128,-1,5
 78 521 78 521 80.5 522 c 128,-1,6
 83 523 83 523 84 523.5 c 128,-1,7
 85 524 85 524 90 523.5 c 128,-1,8
 95 523 95 523 97 523 c 2,9,-1
 491 523 l 2,10,11
 499 523 499 523 504 520 c 128,-1,12
 509 517 509 517 510.5 510 c 128,-1,13
 512 503 512 503 512 497 c 128,-1,14
 512 491 512 491 511 480 c 0,15,16
 510 468 510 468 502 458 c 2,17,-1
 182 82 l 1,18,-1
 431 82 l 1,19,-1
 431 83 l 1,20,-1
 471 83 l 1,21,-1
 511 83 l 1,22,-1
 511 22 l 2,23,24
 511 21 511 21 511 18 c 0,25,26
 511 8 511 8 508 5 c 128,-1,27
 505 2 505 2 489 2 c 2,28,-1
 78 2 l 2,29,30
 66 2 66 2 56 9 c 0,31,32
 33 25 33 25 67 67 c 2,33,-1
 388 443 l 1,34,-1
 157 443 l 1,35,-1
 117 443 l 1,0,-1
EndSplineSet
EndChar

StartChar: braceleft
Encoding: 123 123 93
Width: 302
Flags: W
LayerCount: 2
Fore
SplineSet
74 372 m 1,0,-1
 74 406 l 1,1,2
 103 406 103 406 110.5 416.5 c 128,-1,3
 118 427 118 427 117 462 c 0,4,5
 117 476 117 476 111.5 511.5 c 128,-1,6
 106 547 106 547 100.5 581 c 128,-1,7
 95 615 95 615 95.5 655.5 c 128,-1,8
 96 696 96 696 106 725.5 c 128,-1,9
 116 755 116 755 144.5 775.5 c 128,-1,10
 173 796 173 796 220 796 c 1,11,-1
 220 752 l 1,12,-1
 220 716 l 1,13,14
 196 716 196 716 186 705.5 c 128,-1,15
 176 695 176 695 176.5 671 c 128,-1,16
 177 647 177 647 181.5 620.5 c 128,-1,17
 186 594 186 594 191.5 548.5 c 128,-1,18
 197 503 197 503 197 462 c 0,19,20
 198 436 198 436 191.5 413.5 c 128,-1,21
 185 391 185 391 171.5 370.5 c 128,-1,22
 158 350 158 350 133 338 c 128,-1,23
 108 326 108 326 74 326 c 1,24,-1
 74 372 l 1,0,-1
220 -17 m 1,25,-1
 220 -63 l 1,26,27
 186 -63 186 -63 161 -51 c 128,-1,28
 136 -39 136 -39 122.5 -19 c 128,-1,29
 109 1 109 1 102.5 24 c 128,-1,30
 96 47 96 47 96 73 c 0,31,32
 97 114 97 114 102.5 159 c 128,-1,33
 108 204 108 204 112.5 231 c 128,-1,34
 117 258 117 258 117.5 282 c 128,-1,35
 118 306 118 306 108 316 c 128,-1,36
 98 326 98 326 74 326 c 1,37,-1
 74 363 l 1,38,-1
 74 406 l 1,39,40
 121 406 121 406 149.5 386 c 128,-1,41
 178 366 178 366 188 336 c 128,-1,42
 198 306 198 306 198.5 266 c 128,-1,43
 199 226 199 226 193.5 191.5 c 128,-1,44
 188 157 188 157 182.5 121.5 c 128,-1,45
 177 86 177 86 176 73 c 0,46,47
 176 37 176 37 183.5 27 c 128,-1,48
 191 17 191 17 220 17 c 1,49,-1
 220 -17 l 1,25,-1
EndSplineSet
EndChar

StartChar: braceright
Encoding: 125 125 94
Width: 323
Flags: W
LayerCount: 2
Fore
SplineSet
231 372 m 1,0,-1
 231 406 l 1,1,2
 202 406 202 406 194.5 416.5 c 128,-1,3
 187 427 187 427 187 462 c 0,4,5
 188 475 188 475 192.5 503 c 128,-1,6
 197 531 197 531 201.5 560 c 128,-1,7
 206 589 206 589 209 623.5 c 128,-1,8
 212 658 212 658 207.5 687.5 c 128,-1,9
 203 717 203 717 191 742 c 128,-1,10
 179 767 179 767 152 781.5 c 128,-1,11
 125 796 125 796 85 796 c 1,12,-1
 85 752 l 1,13,-1
 85 716 l 1,14,15
 109 716 109 716 119 705.5 c 128,-1,16
 129 695 129 695 128.5 671 c 128,-1,17
 128 647 128 647 123.5 620.5 c 128,-1,18
 119 594 119 594 113.5 548.5 c 128,-1,19
 108 503 108 503 107 462 c 0,20,21
 107 436 107 436 113.5 413.5 c 128,-1,22
 120 391 120 391 133.5 370.5 c 128,-1,23
 147 350 147 350 172 338 c 128,-1,24
 197 326 197 326 231 326 c 1,25,-1
 231 372 l 1,0,-1
85 -17 m 1,26,-1
 85 -63 l 1,27,28
 119 -63 119 -63 144 -51 c 128,-1,29
 169 -39 169 -39 182.5 -19 c 128,-1,30
 196 1 196 1 202.5 24 c 128,-1,31
 209 47 209 47 208 73 c 0,32,33
 208 114 208 114 202.5 159 c 128,-1,34
 197 204 197 204 192.5 231 c 128,-1,35
 188 258 188 258 187.5 282 c 128,-1,36
 187 306 187 306 197 316 c 128,-1,37
 207 326 207 326 231 326 c 1,38,-1
 231 363 l 1,39,-1
 231 406 l 1,40,41
 184 406 184 406 155.5 386 c 128,-1,42
 127 366 127 366 117 336 c 128,-1,43
 107 306 107 306 106.5 266 c 128,-1,44
 106 226 106 226 111.5 191.5 c 128,-1,45
 117 157 117 157 122.5 121.5 c 128,-1,46
 128 86 128 86 128 73 c 0,47,48
 129 37 129 37 121.5 27 c 128,-1,49
 114 17 114 17 85 17 c 1,50,-1
 85 -17 l 1,26,-1
EndSplineSet
EndChar

StartChar: cent
Encoding: 162 162 95
Width: 828
Flags: W
LayerCount: 2
Fore
SplineSet
724 613 m 5,0,-1
 693 588 l 5,1,2
 677 607 677 607 659 622 c 4,3,4
 602 670 602 670 527 685 c 132,-1,5
 452 700 452 700 382 676.5 c 132,-1,6
 312 653 312 653 263 595 c 4,7,8
 210 532 210 532 198 460.5 c 132,-1,9
 186 389 186 389 202 329 c 132,-1,10
 218 269 218 269 258 211 c 4,11,12
 294 159 294 159 343 124.5 c 132,-1,13
 392 90 392 90 449.5 76 c 132,-1,14
 507 62 507 62 572.5 76.5 c 132,-1,15
 638 91 638 91 701 134 c 5,16,-1
 724 101 l 5,17,-1
 746 68 l 5,18,19
 669 15 669 15 586 -2 c 132,-1,20
 503 -19 503 -19 431 -1.5 c 132,-1,21
 359 16 359 16 297.5 59 c 132,-1,22
 236 102 236 102 192 165 c 4,23,24
 144 236 144 236 124 313 c 132,-1,25
 104 390 104 390 120.5 479.5 c 132,-1,26
 137 569 137 569 201 646 c 4,27,28
 265 721 265 721 355.5 751.5 c 132,-1,29
 446 782 446 782 541.5 763.5 c 132,-1,30
 637 745 637 745 710 683 c 4,31,32
 734 663 734 663 754 639 c 5,33,-1
 724 613 l 5,0,-1
49 433 m 1,34,-1
 49 473 l 1,35,-1
 421 473 l 1,36,-1
 421 433 l 1,37,-1
 421 393 l 1,38,-1
 49 393 l 1,39,-1
 49 433 l 1,34,-1
49 310 m 1,40,-1
 49 350 l 1,41,-1
 421 350 l 1,42,-1
 421 310 l 1,43,-1
 421 270 l 1,44,-1
 49 270 l 1,45,-1
 49 310 l 1,40,-1
EndSplineSet
EndChar

StartChar: yen
Encoding: 165 165 96
Width: 947
Flags: W
LayerCount: 2
Fore
SplineSet
118 730 m 1,0,-1
 151 753 l 1,1,-1
 414 390 l 2,2,3
 421 380 421 380 421 367 c 2,4,-1
 421 1 l 1,5,-1
 381 1 l 1,6,-1
 341 1 l 1,7,-1
 341 354 l 1,8,-1
 86 706 l 1,9,-1
 118 730 l 1,0,-1
640 730 m 1,10,-1
 673 707 l 1,11,-1
 414 344 l 1,12,-1
 381 367 l 1,13,-1
 349 390 l 1,14,-1
 608 753 l 1,15,-1
 640 730 l 1,10,-1
242 214 m 1,16,-1
 242 254 l 1,17,-1
 521 254 l 1,18,-1
 521 214 l 1,19,-1
 521 174 l 1,20,-1
 242 174 l 1,21,-1
 242 214 l 1,16,-1
242 342 m 1,22,-1
 242 382 l 1,23,-1
 521 382 l 1,24,-1
 521 342 l 1,25,-1
 521 302 l 1,26,-1
 242 302 l 1,27,-1
 242 342 l 1,22,-1
EndSplineSet
EndChar

StartChar: dieresis
Encoding: 168 168 97
Width: 468
Flags: W
LayerCount: 2
Fore
SplineSet
133 760 m 5,0,-1
 93 760 l 5,1,-1
 93 853 l 5,2,-1
 133 853 l 5,3,-1
 173 853 l 5,4,-1
 173 760 l 5,5,-1
 133 760 l 5,0,-1
327 760 m 5,6,-1
 287 760 l 5,7,-1
 287 853 l 5,8,-1
 327 853 l 5,9,-1
 367 853 l 5,10,-1
 367 760 l 5,11,-1
 327 760 l 5,6,-1
EndSplineSet
EndChar

StartChar: guillemotleft
Encoding: 171 171 98
Width: 478
Flags: W
LayerCount: 2
Fore
SplineSet
402 134 m 1,0,-1
 369 112 l 1,1,-1
 272 258 l 2,2,3
 257 280 257 280 272 302 c 2,4,-1
 369 448 l 1,5,-1
 402 426 l 1,6,-1
 436 404 l 1,7,-1
 353 280 l 1,8,-1
 436 156 l 1,9,-1
 402 134 l 1,0,-1
189 134 m 1,10,-1
 156 112 l 1,11,-1
 59 258 l 2,12,13
 44 280 44 280 59 302 c 2,14,-1
 156 448 l 1,15,-1
 189 426 l 1,16,-1
 223 404 l 1,17,-1
 140 280 l 1,18,-1
 223 156 l 1,19,-1
 189 134 l 1,10,-1
EndSplineSet
EndChar

StartChar: uni00AD
Encoding: 173 173 99
Width: 1452
Flags: W
LayerCount: 2
Fore
SplineSet
622 316 m 1,0,-1
 622 276 l 1,1,-1
 233 276 l 1,2,-1
 233 316 l 1,3,-1
 233 356 l 1,4,-1
 622 356 l 1,5,-1
 622 316 l 1,0,-1
EndSplineSet
EndChar

StartChar: macron
Encoding: 175 175 100
Width: 1536
Flags: W
LayerCount: 2
Fore
SplineSet
752 342 m 1,0,-1
 752 302 l 1,1,-1
 265 302 l 1,2,-1
 265 342 l 1,3,-1
 265 382 l 1,4,-1
 752 382 l 1,5,-1
 752 342 l 1,0,-1
EndSplineSet
EndChar

StartChar: acute
Encoding: 180 180 101
Width: 1469
Flags: W
LayerCount: 2
Fore
SplineSet
-50 719 m 5,0,-1
 -63 757 l 5,1,-1
 229 855 l 5,2,-1
 242 817 l 5,3,-1
 255 779 l 5,4,-1
 -37 681 l 5,5,-1
 -50 719 l 5,0,-1
EndSplineSet
EndChar

StartChar: guillemotright
Encoding: 187 187 102
Width: 484
Flags: W
LayerCount: 2
Fore
SplineSet
82 426 m 1,0,-1
 115 448 l 1,1,-1
 213 302 l 2,2,3
 227 280 227 280 213 258 c 2,4,-1
 115 112 l 1,5,-1
 82 134 l 1,6,-1
 49 156 l 1,7,-1
 131 280 l 1,8,-1
 49 404 l 1,9,-1
 82 426 l 1,0,-1
295 426 m 1,10,-1
 328 448 l 1,11,-1
 426 302 l 2,12,13
 440 280 440 280 426 258 c 2,14,-1
 328 112 l 1,15,-1
 295 134 l 1,16,-1
 262 156 l 1,17,-1
 344 280 l 1,18,-1
 262 404 l 1,19,-1
 295 426 l 1,10,-1
EndSplineSet
EndChar

StartChar: Agrave
Encoding: 192 192 103
Width: 744
Flags: W
LayerCount: 2
Fore
SplineSet
230 919 m 5,0,-1
 243 957 l 5,1,-1
 535 859 l 5,2,-1
 522 821 l 5,3,-1
 509 783 l 5,4,-1
 217 881 l 5,5,-1
 230 919 l 5,0,-1
75 -4 m 1,6,-1
 38 12 l 1,7,-1
 337 708 l 2,8,9
 344 723 344 723 360.5 729 c 128,-1,10
 377 735 377 735 392 727 c 0,11,12
 405 721 405 721 410 708 c 2,13,-1
 710 14 l 1,14,-1
 673 -2 l 1,15,-1
 636 -18 l 1,16,-1
 374 590 l 1,17,-1
 112 -20 l 1,18,-1
 75 -4 l 1,6,-1
187 226 m 1,19,-1
 187 266 l 1,20,-1
 560 266 l 1,21,-1
 560 226 l 1,22,-1
 560 186 l 1,23,-1
 187 186 l 1,24,-1
 187 226 l 1,19,-1
EndSplineSet
EndChar

StartChar: Aacute
Encoding: 193 193 104
Width: 744
Flags: W
LayerCount: 2
Fore
SplineSet
211 822 m 5,0,-1
 198 860 l 5,1,-1
 490 958 l 5,2,-1
 503 920 l 5,3,-1
 516 882 l 5,4,-1
 224 784 l 5,5,-1
 211 822 l 5,0,-1
75 -4 m 1,6,-1
 38 12 l 1,7,-1
 337 708 l 2,8,9
 344 723 344 723 360.5 729 c 128,-1,10
 377 735 377 735 392 727 c 0,11,12
 405 721 405 721 410 708 c 2,13,-1
 710 14 l 1,14,-1
 673 -2 l 1,15,-1
 636 -18 l 1,16,-1
 374 590 l 1,17,-1
 112 -20 l 1,18,-1
 75 -4 l 1,6,-1
187 226 m 1,19,-1
 187 266 l 1,20,-1
 560 266 l 1,21,-1
 560 226 l 1,22,-1
 560 186 l 1,23,-1
 187 186 l 1,24,-1
 187 226 l 1,19,-1
EndSplineSet
EndChar

StartChar: Acircumflex
Encoding: 194 194 105
Width: 744
Flags: W
LayerCount: 2
Fore
SplineSet
228 815 m 5,0,-1
 206 848 l 5,1,-1
 352 945 l 6,2,3
 374 960 374 960 396 945 c 6,4,-1
 542 848 l 5,5,-1
 520 815 l 5,6,-1
 498 781 l 5,7,-1
 374 864 l 5,8,-1
 250 781 l 5,9,-1
 228 815 l 5,0,-1
75 -4 m 1,10,-1
 38 12 l 1,11,-1
 337 708 l 2,12,13
 344 723 344 723 360.5 729 c 128,-1,14
 377 735 377 735 392 727 c 0,15,16
 405 721 405 721 410 708 c 2,17,-1
 710 14 l 1,18,-1
 673 -2 l 1,19,-1
 636 -18 l 1,20,-1
 374 590 l 1,21,-1
 112 -20 l 1,22,-1
 75 -4 l 1,10,-1
187 226 m 1,23,-1
 187 266 l 1,24,-1
 560 266 l 1,25,-1
 560 226 l 1,26,-1
 560 186 l 1,27,-1
 187 186 l 1,28,-1
 187 226 l 1,23,-1
EndSplineSet
EndChar

StartChar: Adieresis
Encoding: 196 196 106
Width: 744
Flags: W
LayerCount: 2
Fore
SplineSet
275 796 m 5,0,-1
 235 796 l 5,1,-1
 235 889 l 5,2,-1
 275 889 l 5,3,-1
 315 889 l 5,4,-1
 315 796 l 5,5,-1
 275 796 l 5,0,-1
469 796 m 5,6,-1
 429 796 l 5,7,-1
 429 889 l 5,8,-1
 469 889 l 5,9,-1
 509 889 l 5,10,-1
 509 796 l 5,11,-1
 469 796 l 5,6,-1
75 -4 m 1,12,-1
 38 12 l 1,13,-1
 337 708 l 2,14,15
 344 723 344 723 360.5 729 c 128,-1,16
 377 735 377 735 392 727 c 0,17,18
 405 721 405 721 410 708 c 2,19,-1
 710 14 l 1,20,-1
 673 -2 l 1,21,-1
 636 -18 l 1,22,-1
 374 590 l 1,23,-1
 112 -20 l 1,24,-1
 75 -4 l 1,12,-1
187 226 m 1,25,-1
 187 266 l 1,26,-1
 560 266 l 1,27,-1
 560 226 l 1,28,-1
 560 186 l 1,29,-1
 187 186 l 1,30,-1
 187 226 l 1,25,-1
EndSplineSet
EndChar

StartChar: Ccedilla
Encoding: 199 199 107
Width: 749
Flags: W
LayerCount: 2
Fore
SplineSet
405 -226 m 5,0,-1
 368 -211 l 5,1,2
 414 -102 414 -102 414 17 c 5,3,-1
 454 17 l 5,4,-1
 494 17 l 5,5,6
 494 -117 494 -117 442 -242 c 5,7,-1
 405 -226 l 5,0,-1
669 613 m 1,8,-1
 638 588 l 1,9,10
 622 607 622 607 604 622 c 0,11,12
 547 670 547 670 472 685 c 128,-1,13
 397 700 397 700 327 676.5 c 128,-1,14
 257 653 257 653 208 595 c 0,15,16
 155 532 155 532 143 460.5 c 128,-1,17
 131 389 131 389 147 329 c 128,-1,18
 163 269 163 269 203 211 c 0,19,20
 239 159 239 159 288 124.5 c 128,-1,21
 337 90 337 90 394.5 76 c 128,-1,22
 452 62 452 62 517.5 76.5 c 128,-1,23
 583 91 583 91 646 134 c 1,24,-1
 669 101 l 1,25,-1
 691 68 l 1,26,27
 614 15 614 15 531 -2 c 128,-1,28
 448 -19 448 -19 376 -1.5 c 128,-1,29
 304 16 304 16 242.5 59 c 128,-1,30
 181 102 181 102 137 165 c 0,31,32
 89 236 89 236 69 313 c 128,-1,33
 49 390 49 390 65.5 479.5 c 128,-1,34
 82 569 82 569 146 646 c 0,35,36
 210 721 210 721 300.5 751.5 c 128,-1,37
 391 782 391 782 486.5 763.5 c 128,-1,38
 582 745 582 745 655 683 c 0,39,40
 679 663 679 663 699 639 c 1,41,-1
 669 613 l 1,8,-1
EndSplineSet
EndChar

StartChar: Egrave
Encoding: 200 200 108
Width: 602
Flags: W
LayerCount: 2
Fore
SplineSet
152 919 m 5,0,-1
 165 957 l 5,1,-1
 457 859 l 5,2,-1
 444 821 l 5,3,-1
 431 783 l 5,4,-1
 139 881 l 5,5,-1
 152 919 l 5,0,-1
131 0 m 1,6,-1
 91 -2 l 1,7,-1
 91 707 l 2,8,9
 91 724 91 724 96 728 c 128,-1,10
 101 732 101 732 116 732 c 2,11,-1
 503 732 l 1,12,-1
 503 652 l 1,13,-1
 171 652 l 1,14,-1
 171 -2 l 1,15,-1
 131 0 l 1,6,-1
131 385 m 1,16,-1
 131 425 l 1,17,-1
 457 425 l 1,18,-1
 457 385 l 1,19,-1
 457 345 l 1,20,-1
 131 345 l 1,21,-1
 131 385 l 1,16,-1
131 40 m 1,22,-1
 131 80 l 1,23,-1
 550 80 l 1,24,-1
 550 0 l 1,25,-1
 131 0 l 1,26,-1
 131 40 l 1,22,-1
EndSplineSet
EndChar

StartChar: Eacute
Encoding: 201 201 109
Width: 602
Flags: W
LayerCount: 2
Fore
SplineSet
156 822 m 5,0,-1
 143 860 l 5,1,-1
 435 958 l 5,2,-1
 448 920 l 5,3,-1
 461 882 l 5,4,-1
 169 784 l 5,5,-1
 156 822 l 5,0,-1
131 0 m 1,6,-1
 91 -2 l 1,7,-1
 91 707 l 2,8,9
 91 724 91 724 96 728 c 128,-1,10
 101 732 101 732 116 732 c 2,11,-1
 503 732 l 1,12,-1
 503 652 l 1,13,-1
 171 652 l 1,14,-1
 171 -2 l 1,15,-1
 131 0 l 1,6,-1
131 385 m 1,16,-1
 131 425 l 1,17,-1
 457 425 l 1,18,-1
 457 385 l 1,19,-1
 457 345 l 1,20,-1
 131 345 l 1,21,-1
 131 385 l 1,16,-1
131 40 m 1,22,-1
 131 80 l 1,23,-1
 550 80 l 1,24,-1
 550 0 l 1,25,-1
 131 0 l 1,26,-1
 131 40 l 1,22,-1
EndSplineSet
EndChar

StartChar: Ecircumflex
Encoding: 202 202 110
Width: 602
Flags: W
LayerCount: 2
Fore
SplineSet
160 815 m 5,0,-1
 138 848 l 5,1,-1
 284 945 l 6,2,3
 306 960 306 960 328 945 c 6,4,-1
 474 848 l 5,5,-1
 452 815 l 5,6,-1
 430 781 l 5,7,-1
 306 864 l 5,8,-1
 182 781 l 5,9,-1
 160 815 l 5,0,-1
131 0 m 1,10,-1
 91 -2 l 1,11,-1
 91 707 l 2,12,13
 91 724 91 724 96 728 c 128,-1,14
 101 732 101 732 116 732 c 2,15,-1
 503 732 l 1,16,-1
 503 652 l 1,17,-1
 171 652 l 1,18,-1
 171 -2 l 1,19,-1
 131 0 l 1,10,-1
131 385 m 1,20,-1
 131 425 l 1,21,-1
 457 425 l 1,22,-1
 457 385 l 1,23,-1
 457 345 l 1,24,-1
 131 345 l 1,25,-1
 131 385 l 1,20,-1
131 40 m 1,26,-1
 131 80 l 1,27,-1
 550 80 l 1,28,-1
 550 0 l 1,29,-1
 131 0 l 1,30,-1
 131 40 l 1,26,-1
EndSplineSet
EndChar

StartChar: Edieresis
Encoding: 203 203 111
Width: 602
Flags: W
LayerCount: 2
Fore
SplineSet
213 796 m 5,0,-1
 173 796 l 5,1,-1
 173 889 l 5,2,-1
 213 889 l 5,3,-1
 253 889 l 5,4,-1
 253 796 l 5,5,-1
 213 796 l 5,0,-1
407 796 m 5,6,-1
 367 796 l 5,7,-1
 367 889 l 5,8,-1
 407 889 l 5,9,-1
 447 889 l 5,10,-1
 447 796 l 5,11,-1
 407 796 l 5,6,-1
131 0 m 1,12,-1
 91 -2 l 1,13,-1
 91 707 l 2,14,15
 91 724 91 724 96 728 c 128,-1,16
 101 732 101 732 116 732 c 2,17,-1
 503 732 l 1,18,-1
 503 652 l 1,19,-1
 171 652 l 1,20,-1
 171 -2 l 1,21,-1
 131 0 l 1,12,-1
131 385 m 1,22,-1
 131 425 l 1,23,-1
 457 425 l 1,24,-1
 457 385 l 1,25,-1
 457 345 l 1,26,-1
 131 345 l 1,27,-1
 131 385 l 1,22,-1
131 40 m 1,28,-1
 131 80 l 1,29,-1
 550 80 l 1,30,-1
 550 0 l 1,31,-1
 131 0 l 1,32,-1
 131 40 l 1,28,-1
EndSplineSet
EndChar

StartChar: Igrave
Encoding: 204 204 112
Width: 299
Flags: W
LayerCount: 2
Fore
SplineSet
16 919 m 5,0,-1
 29 957 l 5,1,-1
 321 859 l 5,2,-1
 308 821 l 5,3,-1
 295 783 l 5,4,-1
 3 881 l 5,5,-1
 16 919 l 5,0,-1
148 0 m 1,6,-1
 108 0 l 1,7,-1
 108 730 l 1,8,-1
 148 730 l 1,9,-1
 188 730 l 1,10,-1
 188 0 l 1,11,-1
 148 0 l 1,6,-1
EndSplineSet
EndChar

StartChar: Iacute
Encoding: 205 205 113
Width: 299
Flags: W
LayerCount: 2
Fore
SplineSet
15 822 m 5,0,-1
 2 860 l 5,1,-1
 294 958 l 5,2,-1
 307 920 l 5,3,-1
 320 882 l 5,4,-1
 28 784 l 5,5,-1
 15 822 l 5,0,-1
148 0 m 1,6,-1
 108 0 l 1,7,-1
 108 730 l 1,8,-1
 148 730 l 1,9,-1
 188 730 l 1,10,-1
 188 0 l 1,11,-1
 148 0 l 1,6,-1
EndSplineSet
EndChar

StartChar: Icircumflex
Encoding: 206 206 114
Width: 299
Flags: W
LayerCount: 2
Fore
SplineSet
1 815 m 5,0,-1
 -21 848 l 5,1,-1
 125 945 l 6,2,3
 147 960 147 960 169 945 c 6,4,-1
 315 848 l 5,5,-1
 293 815 l 5,6,-1
 271 781 l 5,7,-1
 147 864 l 5,8,-1
 23 781 l 5,9,-1
 1 815 l 5,0,-1
148 0 m 1,10,-1
 108 0 l 1,11,-1
 108 730 l 1,12,-1
 148 730 l 1,13,-1
 188 730 l 1,14,-1
 188 0 l 1,15,-1
 148 0 l 1,10,-1
EndSplineSet
EndChar

StartChar: Idieresis
Encoding: 207 207 115
Width: 299
Flags: W
LayerCount: 2
Fore
SplineSet
52 796 m 5,0,-1
 12 796 l 5,1,-1
 12 889 l 5,2,-1
 52 889 l 5,3,-1
 92 889 l 5,4,-1
 92 796 l 5,5,-1
 52 796 l 5,0,-1
246 796 m 5,6,-1
 206 796 l 5,7,-1
 206 889 l 5,8,-1
 246 889 l 5,9,-1
 286 889 l 5,10,-1
 286 796 l 5,11,-1
 246 796 l 5,6,-1
148 0 m 1,12,-1
 108 0 l 1,13,-1
 108 730 l 1,14,-1
 148 730 l 1,15,-1
 188 730 l 1,16,-1
 188 0 l 1,17,-1
 148 0 l 1,12,-1
EndSplineSet
EndChar

StartChar: Ograve
Encoding: 210 210 116
Width: 883
Flags: W
LayerCount: 2
Fore
SplineSet
162 613 m 5,0,-1
 193 587 l 5,1,2
 148 534 148 534 134.5 470.5 c 132,-1,3
 121 407 121 407 128.5 353 c 132,-1,4
 136 299 136 299 159.5 253.5 c 132,-1,5
 183 208 183 208 222 167 c 4,6,7
 264 122 264 122 316 95.5 c 132,-1,8
 368 69 368 69 425 62 c 132,-1,9
 482 55 482 55 548.5 73 c 132,-1,10
 615 91 615 91 670 142 c 5,11,-1
 698 113 l 5,12,-1
 725 84 l 5,13,14
 657 20 657 20 574 -2.5 c 132,-1,15
 491 -25 491 -25 419 -17 c 132,-1,16
 347 -9 347 -9 281 24.5 c 132,-1,17
 215 58 215 58 164 112 c 4,18,19
 117 163 117 163 87.5 221 c 132,-1,20
 58 279 58 279 49.5 347.5 c 132,-1,21
 41 416 41 416 59 494.5 c 132,-1,22
 77 573 77 573 131 639 c 5,23,-1
 162 613 l 5,0,-1
698 113 m 5,24,-1
 670 142 l 5,25,26
 678 150 678 150 686 159 c 4,27,28
 726 204 726 204 741 255 c 132,-1,29
 756 306 756 306 756 353 c 132,-1,30
 756 400 756 400 741.5 445.5 c 132,-1,31
 727 491 727 491 700 530.5 c 132,-1,32
 673 570 673 570 636 603 c 4,33,34
 600 636 600 636 559 657 c 132,-1,35
 518 678 518 678 472.5 685.5 c 132,-1,36
 427 693 427 693 382 685.5 c 132,-1,37
 337 678 337 678 285 655.5 c 132,-1,38
 233 633 233 633 192 586 c 5,39,-1
 162 613 l 5,40,-1
 132 640 l 5,41,42
 195 711 195 711 275 741 c 132,-1,43
 355 771 355 771 427.5 769 c 132,-1,44
 500 767 500 767 567 739.5 c 132,-1,45
 634 712 634 712 690 662.5 c 132,-1,46
 746 613 746 613 782.5 548 c 132,-1,47
 819 483 819 483 831.5 409.5 c 132,-1,48
 844 336 844 336 825.5 255.5 c 132,-1,49
 807 175 807 175 746 106 c 4,50,51
 736 95 736 95 726 85 c 5,52,-1
 698 113 l 5,24,-1
292 931 m 1,53,-1
 305 969 l 1,54,-1
 597 871 l 1,55,-1
 584 833 l 1,56,-1
 571 795 l 1,57,-1
 279 893 l 1,58,-1
 292 931 l 1,53,-1
EndSplineSet
EndChar

StartChar: Oacute
Encoding: 211 211 117
Width: 883
Flags: W
LayerCount: 2
Fore
SplineSet
162 613 m 5,0,-1
 193 587 l 5,1,2
 148 534 148 534 134.5 470.5 c 132,-1,3
 121 407 121 407 128.5 353 c 132,-1,4
 136 299 136 299 159.5 253.5 c 132,-1,5
 183 208 183 208 222 167 c 4,6,7
 264 122 264 122 316 95.5 c 132,-1,8
 368 69 368 69 425 62 c 132,-1,9
 482 55 482 55 548.5 73 c 132,-1,10
 615 91 615 91 670 142 c 5,11,-1
 698 113 l 5,12,-1
 725 84 l 5,13,14
 657 20 657 20 574 -2.5 c 132,-1,15
 491 -25 491 -25 419 -17 c 132,-1,16
 347 -9 347 -9 281 24.5 c 132,-1,17
 215 58 215 58 164 112 c 4,18,19
 117 163 117 163 87.5 221 c 132,-1,20
 58 279 58 279 49.5 347.5 c 132,-1,21
 41 416 41 416 59 494.5 c 132,-1,22
 77 573 77 573 131 639 c 5,23,-1
 162 613 l 5,0,-1
698 113 m 5,24,-1
 670 142 l 5,25,26
 678 150 678 150 686 159 c 4,27,28
 726 204 726 204 741 255 c 132,-1,29
 756 306 756 306 756 353 c 132,-1,30
 756 400 756 400 741.5 445.5 c 132,-1,31
 727 491 727 491 700 530.5 c 132,-1,32
 673 570 673 570 636 603 c 4,33,34
 600 636 600 636 559 657 c 132,-1,35
 518 678 518 678 472.5 685.5 c 132,-1,36
 427 693 427 693 382 685.5 c 132,-1,37
 337 678 337 678 285 655.5 c 132,-1,38
 233 633 233 633 192 586 c 5,39,-1
 162 613 l 5,40,-1
 132 640 l 5,41,42
 195 711 195 711 275 741 c 132,-1,43
 355 771 355 771 427.5 769 c 132,-1,44
 500 767 500 767 567 739.5 c 132,-1,45
 634 712 634 712 690 662.5 c 132,-1,46
 746 613 746 613 782.5 548 c 132,-1,47
 819 483 819 483 831.5 409.5 c 132,-1,48
 844 336 844 336 825.5 255.5 c 132,-1,49
 807 175 807 175 746 106 c 4,50,51
 736 95 736 95 726 85 c 5,52,-1
 698 113 l 5,24,-1
238 832 m 1,53,-1
 225 870 l 1,54,-1
 517 968 l 1,55,-1
 530 930 l 1,56,-1
 543 892 l 1,57,-1
 251 794 l 1,58,-1
 238 832 l 1,53,-1
EndSplineSet
EndChar

StartChar: Ocircumflex
Encoding: 212 212 118
Width: 883
Flags: W
LayerCount: 2
Fore
SplineSet
162 613 m 5,0,-1
 193 587 l 5,1,2
 148 534 148 534 134.5 470.5 c 132,-1,3
 121 407 121 407 128.5 353 c 132,-1,4
 136 299 136 299 159.5 253.5 c 132,-1,5
 183 208 183 208 222 167 c 4,6,7
 264 122 264 122 316 95.5 c 132,-1,8
 368 69 368 69 425 62 c 132,-1,9
 482 55 482 55 548.5 73 c 132,-1,10
 615 91 615 91 670 142 c 5,11,-1
 698 113 l 5,12,-1
 725 84 l 5,13,14
 657 20 657 20 574 -2.5 c 132,-1,15
 491 -25 491 -25 419 -17 c 132,-1,16
 347 -9 347 -9 281 24.5 c 132,-1,17
 215 58 215 58 164 112 c 4,18,19
 117 163 117 163 87.5 221 c 132,-1,20
 58 279 58 279 49.5 347.5 c 132,-1,21
 41 416 41 416 59 494.5 c 132,-1,22
 77 573 77 573 131 639 c 5,23,-1
 162 613 l 5,0,-1
698 113 m 5,24,-1
 670 142 l 5,25,26
 678 150 678 150 686 159 c 4,27,28
 726 204 726 204 741 255 c 132,-1,29
 756 306 756 306 756 353 c 132,-1,30
 756 400 756 400 741.5 445.5 c 132,-1,31
 727 491 727 491 700 530.5 c 132,-1,32
 673 570 673 570 636 603 c 4,33,34
 600 636 600 636 559 657 c 132,-1,35
 518 678 518 678 472.5 685.5 c 132,-1,36
 427 693 427 693 382 685.5 c 132,-1,37
 337 678 337 678 285 655.5 c 132,-1,38
 233 633 233 633 192 586 c 5,39,-1
 162 613 l 5,40,-1
 132 640 l 5,41,42
 195 711 195 711 275 741 c 132,-1,43
 355 771 355 771 427.5 769 c 132,-1,44
 500 767 500 767 567 739.5 c 132,-1,45
 634 712 634 712 690 662.5 c 132,-1,46
 746 613 746 613 782.5 548 c 132,-1,47
 819 483 819 483 831.5 409.5 c 132,-1,48
 844 336 844 336 825.5 255.5 c 132,-1,49
 807 175 807 175 746 106 c 4,50,51
 736 95 736 95 726 85 c 5,52,-1
 698 113 l 5,24,-1
277 834 m 1,53,-1
 255 867 l 1,54,-1
 401 964 l 2,55,56
 423 979 423 979 445 964 c 2,57,-1
 591 867 l 1,58,-1
 569 834 l 1,59,-1
 547 800 l 1,60,-1
 423 883 l 1,61,-1
 299 800 l 1,62,-1
 277 834 l 1,53,-1
EndSplineSet
EndChar

StartChar: Odieresis
Encoding: 214 214 119
Width: 883
Flags: W
LayerCount: 2
Fore
SplineSet
162 613 m 5,0,-1
 193 587 l 5,1,2
 148 534 148 534 134.5 470.5 c 132,-1,3
 121 407 121 407 128.5 353 c 132,-1,4
 136 299 136 299 159.5 253.5 c 132,-1,5
 183 208 183 208 222 167 c 4,6,7
 264 122 264 122 316 95.5 c 132,-1,8
 368 69 368 69 425 62 c 132,-1,9
 482 55 482 55 548.5 73 c 132,-1,10
 615 91 615 91 670 142 c 5,11,-1
 698 113 l 5,12,-1
 725 84 l 5,13,14
 657 20 657 20 574 -2.5 c 132,-1,15
 491 -25 491 -25 419 -17 c 132,-1,16
 347 -9 347 -9 281 24.5 c 132,-1,17
 215 58 215 58 164 112 c 4,18,19
 117 163 117 163 87.5 221 c 132,-1,20
 58 279 58 279 49.5 347.5 c 132,-1,21
 41 416 41 416 59 494.5 c 132,-1,22
 77 573 77 573 131 639 c 5,23,-1
 162 613 l 5,0,-1
698 113 m 5,24,-1
 670 142 l 5,25,26
 678 150 678 150 686 159 c 4,27,28
 726 204 726 204 741 255 c 132,-1,29
 756 306 756 306 756 353 c 132,-1,30
 756 400 756 400 741.5 445.5 c 132,-1,31
 727 491 727 491 700 530.5 c 132,-1,32
 673 570 673 570 636 603 c 4,33,34
 600 636 600 636 559 657 c 132,-1,35
 518 678 518 678 472.5 685.5 c 132,-1,36
 427 693 427 693 382 685.5 c 132,-1,37
 337 678 337 678 285 655.5 c 132,-1,38
 233 633 233 633 192 586 c 5,39,-1
 162 613 l 5,40,-1
 132 640 l 5,41,42
 195 711 195 711 275 741 c 132,-1,43
 355 771 355 771 427.5 769 c 132,-1,44
 500 767 500 767 567 739.5 c 132,-1,45
 634 712 634 712 690 662.5 c 132,-1,46
 746 613 746 613 782.5 548 c 132,-1,47
 819 483 819 483 831.5 409.5 c 132,-1,48
 844 336 844 336 825.5 255.5 c 132,-1,49
 807 175 807 175 746 106 c 4,50,51
 736 95 736 95 726 85 c 5,52,-1
 698 113 l 5,24,-1
333 814 m 1,53,-1
 293 814 l 1,54,-1
 293 907 l 1,55,-1
 333 907 l 1,56,-1
 373 907 l 1,57,-1
 373 814 l 1,58,-1
 333 814 l 1,53,-1
527 814 m 1,59,-1
 487 814 l 1,60,-1
 487 907 l 1,61,-1
 527 907 l 1,62,-1
 567 907 l 1,63,-1
 567 814 l 1,64,-1
 527 814 l 1,59,-1
EndSplineSet
EndChar

StartChar: Oslash
Encoding: 216 216 120
Width: 883
Flags: W
LayerCount: 2
Fore
SplineSet
162 613 m 5,0,-1
 193 587 l 5,1,2
 148 534 148 534 134.5 470.5 c 132,-1,3
 121 407 121 407 128.5 353 c 132,-1,4
 136 299 136 299 159.5 253.5 c 132,-1,5
 183 208 183 208 222 167 c 4,6,7
 264 122 264 122 316 95.5 c 132,-1,8
 368 69 368 69 425 62 c 132,-1,9
 482 55 482 55 548.5 73 c 132,-1,10
 615 91 615 91 670 142 c 5,11,-1
 698 113 l 5,12,-1
 725 84 l 5,13,14
 657 20 657 20 574 -2.5 c 132,-1,15
 491 -25 491 -25 419 -17 c 132,-1,16
 347 -9 347 -9 281 24.5 c 132,-1,17
 215 58 215 58 164 112 c 4,18,19
 117 163 117 163 87.5 221 c 132,-1,20
 58 279 58 279 49.5 347.5 c 132,-1,21
 41 416 41 416 59 494.5 c 132,-1,22
 77 573 77 573 131 639 c 5,23,-1
 162 613 l 5,0,-1
698 113 m 5,24,-1
 670 142 l 5,25,26
 678 150 678 150 686 159 c 4,27,28
 726 204 726 204 741 255 c 132,-1,29
 756 306 756 306 756 353 c 132,-1,30
 756 400 756 400 741.5 445.5 c 132,-1,31
 727 491 727 491 700 530.5 c 132,-1,32
 673 570 673 570 636 603 c 4,33,34
 600 636 600 636 559 657 c 132,-1,35
 518 678 518 678 472.5 685.5 c 132,-1,36
 427 693 427 693 382 685.5 c 132,-1,37
 337 678 337 678 285 655.5 c 132,-1,38
 233 633 233 633 192 586 c 5,39,-1
 162 613 l 5,40,-1
 132 640 l 5,41,42
 195 711 195 711 275 741 c 132,-1,43
 355 771 355 771 427.5 769 c 132,-1,44
 500 767 500 767 567 739.5 c 132,-1,45
 634 712 634 712 690 662.5 c 132,-1,46
 746 613 746 613 782.5 548 c 132,-1,47
 819 483 819 483 831.5 409.5 c 132,-1,48
 844 336 844 336 825.5 255.5 c 132,-1,49
 807 175 807 175 746 106 c 4,50,51
 736 95 736 95 726 85 c 5,52,-1
 698 113 l 5,24,-1
743.653320312 704.530273438 m 1,53,-1
 772.94921875 676.840820312 l 1,54,-1
 156 21 l 1,55,-1
 126.703125 48.6904296875 l 1,56,-1
 97.4072265625 76.3798828125 l 1,57,-1
 714.356445312 732.220703125 l 1,58,-1
 743.653320312 704.530273438 l 1,53,-1
EndSplineSet
EndChar

StartChar: Ugrave
Encoding: 217 217 121
Width: 735
Flags: W
LayerCount: 2
Fore
SplineSet
230 919 m 5,0,-1
 243 957 l 5,1,-1
 535 859 l 5,2,-1
 522 821 l 5,3,-1
 509 783 l 5,4,-1
 217 881 l 5,5,-1
 230 919 l 5,0,-1
639 40 m 1,6,-1
 639 0 l 1,7,-1
 577 0 l 2,8,9
 571 0 571 0 567 1 c 128,-1,10
 563 2 563 2 561 2.5 c 128,-1,11
 559 3 559 3 558 6 c 128,-1,12
 557 9 557 9 557 10.5 c 128,-1,13
 557 12 557 12 557 17.5 c 128,-1,14
 557 23 557 23 557 25 c 2,15,-1
 557 652 l 1,16,-1
 556 652 l 1,17,-1
 556 692 l 1,18,-1
 556 732 l 1,19,-1
 617 732 l 2,20,21
 619 732 619 732 623 732 c 128,-1,22
 627 732 627 732 628.5 732 c 128,-1,23
 630 732 630 732 632 731.5 c 128,-1,24
 634 731 634 731 634.5 730 c 128,-1,25
 635 729 635 729 636 726.5 c 128,-1,26
 637 724 637 724 637 720.5 c 128,-1,27
 637 717 637 717 637 712 c 2,28,-1
 637 80 l 1,29,-1
 639 80 l 1,30,-1
 639 40 l 1,6,-1
597 133 m 1,31,-1
 617 99 l 1,32,33
 557 64 557 64 494 39.5 c 128,-1,34
 431 15 431 15 372.5 2.5 c 128,-1,35
 314 -10 314 -10 262 -10 c 0,36,37
 189 -10 189 -10 140 29 c 128,-1,38
 91 68 91 68 91 143 c 2,39,-1
 91 652 l 1,40,-1
 91 692 l 1,41,-1
 91 732 l 1,42,-1
 151 732 l 2,43,44
 154 732 154 732 158 732 c 128,-1,45
 162 732 162 732 163 732 c 128,-1,46
 164 732 164 732 166 731.5 c 128,-1,47
 168 731 168 731 168.5 730 c 128,-1,48
 169 729 169 729 170 726.5 c 128,-1,49
 171 724 171 724 171 720.5 c 128,-1,50
 171 717 171 717 171 712 c 2,51,-1
 171 143 l 2,52,53
 171 103 171 103 191.5 86.5 c 128,-1,54
 212 70 212 70 262 70 c 0,55,56
 325 70 325 70 410 95 c 128,-1,57
 495 120 495 120 577 168 c 1,58,-1
 597 133 l 1,31,-1
EndSplineSet
EndChar

StartChar: Uacute
Encoding: 218 218 122
Width: 735
Flags: W
LayerCount: 2
Fore
SplineSet
222 822 m 5,0,-1
 209 860 l 5,1,-1
 501 958 l 5,2,-1
 514 920 l 5,3,-1
 527 882 l 5,4,-1
 235 784 l 5,5,-1
 222 822 l 5,0,-1
639 40 m 1,6,-1
 639 0 l 1,7,-1
 577 0 l 2,8,9
 571 0 571 0 567 1 c 128,-1,10
 563 2 563 2 561 2.5 c 128,-1,11
 559 3 559 3 558 6 c 128,-1,12
 557 9 557 9 557 10.5 c 128,-1,13
 557 12 557 12 557 17.5 c 128,-1,14
 557 23 557 23 557 25 c 2,15,-1
 557 652 l 1,16,-1
 556 652 l 1,17,-1
 556 692 l 1,18,-1
 556 732 l 1,19,-1
 617 732 l 2,20,21
 619 732 619 732 623 732 c 128,-1,22
 627 732 627 732 628.5 732 c 128,-1,23
 630 732 630 732 632 731.5 c 128,-1,24
 634 731 634 731 634.5 730 c 128,-1,25
 635 729 635 729 636 726.5 c 128,-1,26
 637 724 637 724 637 720.5 c 128,-1,27
 637 717 637 717 637 712 c 2,28,-1
 637 80 l 1,29,-1
 639 80 l 1,30,-1
 639 40 l 1,6,-1
597 133 m 1,31,-1
 617 99 l 1,32,33
 557 64 557 64 494 39.5 c 128,-1,34
 431 15 431 15 372.5 2.5 c 128,-1,35
 314 -10 314 -10 262 -10 c 0,36,37
 189 -10 189 -10 140 29 c 128,-1,38
 91 68 91 68 91 143 c 2,39,-1
 91 652 l 1,40,-1
 91 692 l 1,41,-1
 91 732 l 1,42,-1
 151 732 l 2,43,44
 154 732 154 732 158 732 c 128,-1,45
 162 732 162 732 163 732 c 128,-1,46
 164 732 164 732 166 731.5 c 128,-1,47
 168 731 168 731 168.5 730 c 128,-1,48
 169 729 169 729 170 726.5 c 128,-1,49
 171 724 171 724 171 720.5 c 128,-1,50
 171 717 171 717 171 712 c 2,51,-1
 171 143 l 2,52,53
 171 103 171 103 191.5 86.5 c 128,-1,54
 212 70 212 70 262 70 c 0,55,56
 325 70 325 70 410 95 c 128,-1,57
 495 120 495 120 577 168 c 1,58,-1
 597 133 l 1,31,-1
EndSplineSet
EndChar

StartChar: Ucircumflex
Encoding: 219 219 123
Width: 735
Flags: W
LayerCount: 2
Fore
SplineSet
220 815 m 5,0,-1
 198 848 l 5,1,-1
 344 945 l 6,2,3
 366 960 366 960 388 945 c 6,4,-1
 534 848 l 5,5,-1
 512 815 l 5,6,-1
 490 781 l 5,7,-1
 366 864 l 5,8,-1
 242 781 l 5,9,-1
 220 815 l 5,0,-1
639 40 m 1,10,-1
 639 0 l 1,11,-1
 577 0 l 2,12,13
 571 0 571 0 567 1 c 128,-1,14
 563 2 563 2 561 2.5 c 128,-1,15
 559 3 559 3 558 6 c 128,-1,16
 557 9 557 9 557 10.5 c 128,-1,17
 557 12 557 12 557 17.5 c 128,-1,18
 557 23 557 23 557 25 c 2,19,-1
 557 652 l 1,20,-1
 556 652 l 1,21,-1
 556 692 l 1,22,-1
 556 732 l 1,23,-1
 617 732 l 2,24,25
 619 732 619 732 623 732 c 128,-1,26
 627 732 627 732 628.5 732 c 128,-1,27
 630 732 630 732 632 731.5 c 128,-1,28
 634 731 634 731 634.5 730 c 128,-1,29
 635 729 635 729 636 726.5 c 128,-1,30
 637 724 637 724 637 720.5 c 128,-1,31
 637 717 637 717 637 712 c 2,32,-1
 637 80 l 1,33,-1
 639 80 l 1,34,-1
 639 40 l 1,10,-1
597 133 m 1,35,-1
 617 99 l 1,36,37
 557 64 557 64 494 39.5 c 128,-1,38
 431 15 431 15 372.5 2.5 c 128,-1,39
 314 -10 314 -10 262 -10 c 0,40,41
 189 -10 189 -10 140 29 c 128,-1,42
 91 68 91 68 91 143 c 2,43,-1
 91 652 l 1,44,-1
 91 692 l 1,45,-1
 91 732 l 1,46,-1
 151 732 l 2,47,48
 154 732 154 732 158 732 c 128,-1,49
 162 732 162 732 163 732 c 128,-1,50
 164 732 164 732 166 731.5 c 128,-1,51
 168 731 168 731 168.5 730 c 128,-1,52
 169 729 169 729 170 726.5 c 128,-1,53
 171 724 171 724 171 720.5 c 128,-1,54
 171 717 171 717 171 712 c 2,55,-1
 171 143 l 2,56,57
 171 103 171 103 191.5 86.5 c 128,-1,58
 212 70 212 70 262 70 c 0,59,60
 325 70 325 70 410 95 c 128,-1,61
 495 120 495 120 577 168 c 1,62,-1
 597 133 l 1,35,-1
EndSplineSet
EndChar

StartChar: Udieresis
Encoding: 220 220 124
Width: 735
Flags: W
LayerCount: 2
Fore
SplineSet
271 796 m 5,0,-1
 231 796 l 5,1,-1
 231 889 l 5,2,-1
 271 889 l 5,3,-1
 311 889 l 5,4,-1
 311 796 l 5,5,-1
 271 796 l 5,0,-1
465 796 m 5,6,-1
 425 796 l 5,7,-1
 425 889 l 5,8,-1
 465 889 l 5,9,-1
 505 889 l 5,10,-1
 505 796 l 5,11,-1
 465 796 l 5,6,-1
639 40 m 1,12,-1
 639 0 l 1,13,-1
 577 0 l 2,14,15
 571 0 571 0 567 1 c 128,-1,16
 563 2 563 2 561 2.5 c 128,-1,17
 559 3 559 3 558 6 c 128,-1,18
 557 9 557 9 557 10.5 c 128,-1,19
 557 12 557 12 557 17.5 c 128,-1,20
 557 23 557 23 557 25 c 2,21,-1
 557 652 l 1,22,-1
 556 652 l 1,23,-1
 556 692 l 1,24,-1
 556 732 l 1,25,-1
 617 732 l 2,26,27
 619 732 619 732 623 732 c 128,-1,28
 627 732 627 732 628.5 732 c 128,-1,29
 630 732 630 732 632 731.5 c 128,-1,30
 634 731 634 731 634.5 730 c 128,-1,31
 635 729 635 729 636 726.5 c 128,-1,32
 637 724 637 724 637 720.5 c 128,-1,33
 637 717 637 717 637 712 c 2,34,-1
 637 80 l 1,35,-1
 639 80 l 1,36,-1
 639 40 l 1,12,-1
597 133 m 1,37,-1
 617 99 l 1,38,39
 557 64 557 64 494 39.5 c 128,-1,40
 431 15 431 15 372.5 2.5 c 128,-1,41
 314 -10 314 -10 262 -10 c 0,42,43
 189 -10 189 -10 140 29 c 128,-1,44
 91 68 91 68 91 143 c 2,45,-1
 91 652 l 1,46,-1
 91 692 l 1,47,-1
 91 732 l 1,48,-1
 151 732 l 2,49,50
 154 732 154 732 158 732 c 128,-1,51
 162 732 162 732 163 732 c 128,-1,52
 164 732 164 732 166 731.5 c 128,-1,53
 168 731 168 731 168.5 730 c 128,-1,54
 169 729 169 729 170 726.5 c 128,-1,55
 171 724 171 724 171 720.5 c 128,-1,56
 171 717 171 717 171 712 c 2,57,-1
 171 143 l 2,58,59
 171 103 171 103 191.5 86.5 c 128,-1,60
 212 70 212 70 262 70 c 0,61,62
 325 70 325 70 410 95 c 128,-1,63
 495 120 495 120 577 168 c 1,64,-1
 597 133 l 1,37,-1
EndSplineSet
EndChar

StartChar: Yacute
Encoding: 221 221 125
Width: 583
Flags: W
LayerCount: 2
Fore
SplineSet
141 822 m 5,0,-1
 128 860 l 5,1,-1
 420 958 l 5,2,-1
 433 920 l 5,3,-1
 446 882 l 5,4,-1
 154 784 l 5,5,-1
 141 822 l 5,0,-1
34 728 m 1,6,-1
 67 751 l 1,7,-1
 322 390 l 2,8,9
 329 380 329 380 329 367 c 2,10,-1
 329 1 l 1,11,-1
 289 1 l 1,12,-1
 249 1 l 1,13,-1
 249 354 l 1,14,-1
 2 705 l 1,15,-1
 34 728 l 1,6,-1
548 730 m 1,16,-1
 581 707 l 1,17,-1
 322 344 l 1,18,-1
 289 367 l 1,19,-1
 256 390 l 1,20,-1
 516 753 l 1,21,-1
 548 730 l 1,16,-1
EndSplineSet
EndChar

StartChar: agrave
Encoding: 224 224 126
Width: 527
Flags: W
LayerCount: 2
Fore
SplineSet
134 709 m 5,0,-1
 147 747 l 5,1,-1
 439 649 l 5,2,-1
 426 611 l 5,3,-1
 413 573 l 5,4,-1
 121 671 l 5,5,-1
 134 709 l 5,0,-1
133 398 m 1,6,-1
 95 412 l 1,7,8
 109 451 109 451 136 478.5 c 128,-1,9
 163 506 163 506 195 519 c 128,-1,10
 227 532 227 532 263 533 c 0,11,12
 336 534 336 534 393 484.5 c 128,-1,13
 450 435 450 435 452 352 c 2,14,-1
 452 82 l 1,15,-1
 453 82 l 1,16,-1
 453 42 l 1,17,-1
 453 2 l 1,18,-1
 392 2 l 2,19,20
 390 2 390 2 386 2 c 128,-1,21
 382 2 382 2 380.5 2 c 128,-1,22
 379 2 379 2 377 2.5 c 128,-1,23
 375 3 375 3 374.5 4 c 128,-1,24
 374 5 374 5 373 7.5 c 128,-1,25
 372 10 372 10 372 13.5 c 128,-1,26
 372 17 372 17 372 22 c 2,27,-1
 372 351 l 2,28,29
 371 399 371 399 339 426.5 c 128,-1,30
 307 454 307 454 264 453 c 0,31,32
 194 451 194 451 170 384 c 1,33,-1
 133 398 l 1,6,-1
412 265 m 1,34,-1
 412 225 l 1,35,-1
 149 225 l 1,36,37
 144 221 144 221 141 217 c 0,38,39
 130 205 130 205 129 184.5 c 128,-1,40
 128 164 128 164 139.5 141 c 128,-1,41
 151 118 151 118 172 99 c 0,42,43
 190 84 190 84 212.5 76.5 c 128,-1,44
 235 69 235 69 262.5 70.5 c 128,-1,45
 290 72 290 72 321.5 90 c 128,-1,46
 353 108 353 108 381 142 c 1,47,-1
 412 116 l 1,48,-1
 443 90 l 1,49,50
 393 31 393 31 330.5 7.5 c 128,-1,51
 268 -16 268 -16 214.5 -6 c 128,-1,52
 161 4 161 4 121 38 c 0,53,54
 88 66 88 66 67.5 105 c 128,-1,55
 47 144 47 144 48.5 189 c 128,-1,56
 50 234 50 234 80 269 c 0,57,58
 95 287 95 287 117 300 c 0,59,60
 126 305 126 305 137 305 c 2,61,-1
 412 305 l 1,62,-1
 412 265 l 1,34,-1
EndSplineSet
EndChar

StartChar: aacute
Encoding: 225 225 127
Width: 527
Flags: W
LayerCount: 2
Fore
SplineSet
127 611.400390625 m 5,0,-1
 114 649.400390625 l 5,1,-1
 406 747.400390625 l 5,2,-1
 419 709.400390625 l 5,3,-1
 432 671.400390625 l 5,4,-1
 140 573.400390625 l 5,5,-1
 127 611.400390625 l 5,0,-1
133 398 m 1,6,-1
 95 412 l 1,7,8
 109 451 109 451 136 478.5 c 128,-1,9
 163 506 163 506 195 519 c 128,-1,10
 227 532 227 532 263 533 c 0,11,12
 336 534 336 534 393 484.5 c 128,-1,13
 450 435 450 435 452 352 c 2,14,-1
 452 82 l 1,15,-1
 453 82 l 1,16,-1
 453 42 l 1,17,-1
 453 2 l 1,18,-1
 392 2 l 2,19,20
 390 2 390 2 386 2 c 128,-1,21
 382 2 382 2 380.5 2 c 128,-1,22
 379 2 379 2 377 2.5 c 128,-1,23
 375 3 375 3 374.5 4 c 128,-1,24
 374 5 374 5 373 7.5 c 128,-1,25
 372 10 372 10 372 13.5 c 128,-1,26
 372 17 372 17 372 22 c 2,27,-1
 372 351 l 2,28,29
 371 399 371 399 339 426.5 c 128,-1,30
 307 454 307 454 264 453 c 0,31,32
 194 451 194 451 170 384 c 1,33,-1
 133 398 l 1,6,-1
412 265 m 1,34,-1
 412 225 l 1,35,-1
 149 225 l 1,36,37
 144 221 144 221 141 217 c 0,38,39
 130 205 130 205 129 184.5 c 128,-1,40
 128 164 128 164 139.5 141 c 128,-1,41
 151 118 151 118 172 99 c 0,42,43
 190 84 190 84 212.5 76.5 c 128,-1,44
 235 69 235 69 262.5 70.5 c 128,-1,45
 290 72 290 72 321.5 90 c 128,-1,46
 353 108 353 108 381 142 c 1,47,-1
 412 116 l 1,48,-1
 443 90 l 1,49,50
 393 31 393 31 330.5 7.5 c 128,-1,51
 268 -16 268 -16 214.5 -6 c 128,-1,52
 161 4 161 4 121 38 c 0,53,54
 88 66 88 66 67.5 105 c 128,-1,55
 47 144 47 144 48.5 189 c 128,-1,56
 50 234 50 234 80 269 c 0,57,58
 95 287 95 287 117 300 c 0,59,60
 126 305 126 305 137 305 c 2,61,-1
 412 305 l 1,62,-1
 412 265 l 1,34,-1
EndSplineSet
EndChar

StartChar: acircumflex
Encoding: 226 226 128
Width: 527
Flags: W
LayerCount: 2
Fore
SplineSet
130 606 m 5,0,-1
 108 639 l 5,1,-1
 254 736 l 6,2,3
 276 751 276 751 298 736 c 6,4,-1
 444 639 l 5,5,-1
 422 606 l 5,6,-1
 400 572 l 5,7,-1
 276 655 l 5,8,-1
 152 572 l 5,9,-1
 130 606 l 5,0,-1
133 398 m 1,10,-1
 95 412 l 1,11,12
 109 451 109 451 136 478.5 c 128,-1,13
 163 506 163 506 195 519 c 128,-1,14
 227 532 227 532 263 533 c 0,15,16
 336 534 336 534 393 484.5 c 128,-1,17
 450 435 450 435 452 352 c 2,18,-1
 452 82 l 1,19,-1
 453 82 l 1,20,-1
 453 42 l 1,21,-1
 453 2 l 1,22,-1
 392 2 l 2,23,24
 390 2 390 2 386 2 c 128,-1,25
 382 2 382 2 380.5 2 c 128,-1,26
 379 2 379 2 377 2.5 c 128,-1,27
 375 3 375 3 374.5 4 c 128,-1,28
 374 5 374 5 373 7.5 c 128,-1,29
 372 10 372 10 372 13.5 c 128,-1,30
 372 17 372 17 372 22 c 2,31,-1
 372 351 l 2,32,33
 371 399 371 399 339 426.5 c 128,-1,34
 307 454 307 454 264 453 c 0,35,36
 194 451 194 451 170 384 c 1,37,-1
 133 398 l 1,10,-1
412 265 m 1,38,-1
 412 225 l 1,39,-1
 149 225 l 1,40,41
 144 221 144 221 141 217 c 0,42,43
 130 205 130 205 129 184.5 c 128,-1,44
 128 164 128 164 139.5 141 c 128,-1,45
 151 118 151 118 172 99 c 0,46,47
 190 84 190 84 212.5 76.5 c 128,-1,48
 235 69 235 69 262.5 70.5 c 128,-1,49
 290 72 290 72 321.5 90 c 128,-1,50
 353 108 353 108 381 142 c 1,51,-1
 412 116 l 1,52,-1
 443 90 l 1,53,54
 393 31 393 31 330.5 7.5 c 128,-1,55
 268 -16 268 -16 214.5 -6 c 128,-1,56
 161 4 161 4 121 38 c 0,57,58
 88 66 88 66 67.5 105 c 128,-1,59
 47 144 47 144 48.5 189 c 128,-1,60
 50 234 50 234 80 269 c 0,61,62
 95 287 95 287 117 300 c 0,63,64
 126 305 126 305 137 305 c 2,65,-1
 412 305 l 1,66,-1
 412 265 l 1,38,-1
EndSplineSet
EndChar

StartChar: adieresis
Encoding: 228 228 129
Width: 527
Flags: W
LayerCount: 2
Fore
SplineSet
178 583.400390625 m 5,0,-1
 138 583.400390625 l 5,1,-1
 138 676.400390625 l 5,2,-1
 178 676.400390625 l 5,3,-1
 218 676.400390625 l 5,4,-1
 218 583.400390625 l 5,5,-1
 178 583.400390625 l 5,0,-1
372 583.400390625 m 5,6,-1
 332 583.400390625 l 5,7,-1
 332 676.400390625 l 5,8,-1
 372 676.400390625 l 5,9,-1
 412 676.400390625 l 5,10,-1
 412 583.400390625 l 5,11,-1
 372 583.400390625 l 5,6,-1
133 398 m 1,12,-1
 95 412 l 1,13,14
 109 451 109 451 136 478.5 c 128,-1,15
 163 506 163 506 195 519 c 128,-1,16
 227 532 227 532 263 533 c 0,17,18
 336 534 336 534 393 484.5 c 128,-1,19
 450 435 450 435 452 352 c 2,20,-1
 452 82 l 1,21,-1
 453 82 l 1,22,-1
 453 42 l 1,23,-1
 453 2 l 1,24,-1
 392 2 l 2,25,26
 390 2 390 2 386 2 c 128,-1,27
 382 2 382 2 380.5 2 c 128,-1,28
 379 2 379 2 377 2.5 c 128,-1,29
 375 3 375 3 374.5 4 c 128,-1,30
 374 5 374 5 373 7.5 c 128,-1,31
 372 10 372 10 372 13.5 c 128,-1,32
 372 17 372 17 372 22 c 2,33,-1
 372 351 l 2,34,35
 371 399 371 399 339 426.5 c 128,-1,36
 307 454 307 454 264 453 c 0,37,38
 194 451 194 451 170 384 c 1,39,-1
 133 398 l 1,12,-1
412 265 m 1,40,-1
 412 225 l 1,41,-1
 149 225 l 1,42,43
 144 221 144 221 141 217 c 0,44,45
 130 205 130 205 129 184.5 c 128,-1,46
 128 164 128 164 139.5 141 c 128,-1,47
 151 118 151 118 172 99 c 0,48,49
 190 84 190 84 212.5 76.5 c 128,-1,50
 235 69 235 69 262.5 70.5 c 128,-1,51
 290 72 290 72 321.5 90 c 128,-1,52
 353 108 353 108 381 142 c 1,53,-1
 412 116 l 1,54,-1
 443 90 l 1,55,56
 393 31 393 31 330.5 7.5 c 128,-1,57
 268 -16 268 -16 214.5 -6 c 128,-1,58
 161 4 161 4 121 38 c 0,59,60
 88 66 88 66 67.5 105 c 128,-1,61
 47 144 47 144 48.5 189 c 128,-1,62
 50 234 50 234 80 269 c 0,63,64
 95 287 95 287 117 300 c 0,65,66
 126 305 126 305 137 305 c 2,67,-1
 412 305 l 1,68,-1
 412 265 l 1,40,-1
EndSplineSet
EndChar

StartChar: ccedilla
Encoding: 231 231 130
Width: 585
Flags: W
LayerCount: 2
Fore
SplineSet
286 -234 m 5,0,-1
 249 -219 l 5,1,2
 295 -110 295 -110 295 9 c 5,3,-1
 335 9 l 5,4,-1
 375 9 l 5,5,6
 375 -125 375 -125 323 -250 c 5,7,-1
 286 -234 l 5,0,-1
509 377 m 1,8,-1
 479 351 l 1,9,10
 462 371 462 371 442 388 c 0,11,12
 371 447 371 447 292.5 450 c 128,-1,13
 214 453 214 453 167 397 c 0,14,15
 131 354 131 354 125.5 299 c 128,-1,16
 120 244 120 244 141 196.5 c 128,-1,17
 162 149 162 149 201 117 c 0,18,19
 241 83 241 83 286 71.5 c 128,-1,20
 331 60 331 60 383 77.5 c 128,-1,21
 435 95 435 95 479 147 c 1,22,-1
 510 122 l 1,23,-1
 540 96 l 1,24,25
 496 43 496 43 442.5 16 c 128,-1,26
 389 -11 389 -11 337.5 -11.5 c 128,-1,27
 286 -12 286 -12 237.5 5 c 128,-1,28
 189 22 189 22 149 56 c 0,29,30
 111 88 111 88 85.5 134.5 c 128,-1,31
 60 181 60 181 50.5 233.5 c 128,-1,32
 41 286 41 286 54.5 343.5 c 128,-1,33
 68 401 68 401 106 449 c 0,34,35
 154 509 154 509 225 525.5 c 128,-1,36
 296 542 296 542 365 520.5 c 128,-1,37
 434 499 434 499 493 449 c 0,38,39
 519 428 519 428 540 402 c 1,40,-1
 509 377 l 1,8,-1
EndSplineSet
EndChar

StartChar: egrave
Encoding: 232 232 131
Width: 589
Flags: W
LayerCount: 2
Fore
SplineSet
138 709 m 1,0,-1
 151 747 l 1,1,-1
 443 649 l 1,2,-1
 430 611 l 1,3,-1
 417 573 l 1,4,-1
 125 671 l 1,5,-1
 138 709 l 1,0,-1
494 339 m 1,6,-1
 451 330 l 1,7,8
 442.418945312 370.51171875 442.418945312 370.51171875 424 392 c 0,9,10
 376 448 376 448 293 450.5 c 128,-1,11
 210 453 210 453 163 397 c 0,12,13
 127 354 127 354 121.5 299 c 128,-1,14
 116 244 116 244 137 196.5 c 128,-1,15
 158 149 158 149 197 117 c 0,16,17
 237 83 237 83 282 71.5 c 128,-1,18
 327 60 327 60 379 77.5 c 128,-1,19
 431 95 431 95 475 147 c 1,20,-1
 506 122 l 1,21,-1
 536 96 l 1,22,23
 492 43 492 43 438.5 16 c 128,-1,24
 385 -11 385 -11 333.5 -11.5 c 128,-1,25
 282 -12 282 -12 233.5 5 c 128,-1,26
 185 22 185 22 145 56 c 0,27,28
 107 88 107 88 81.5 134.5 c 128,-1,29
 56 181 56 181 46.5 233.5 c 128,-1,30
 37 286 37 286 50.5 343.5 c 128,-1,31
 64 401 64 401 102 449 c 0,32,33
 150 509 150 509 221 525.5 c 0,34,35
 294 543 294 543 361 520.5 c 0,36,37
 435 496 435 496 482 449 c 0,38,-1
 525 366 l 24,39,-1
 494 339 l 1,6,-1
102 243 m 1,40,-1
 88 281 l 1,41,-1
 475 356 l 1,42,-1
 525 366 l 1,43,-1
 538 288 l 1,44,-1
 116 206 l 1,45,-1
 102 243 l 1,40,-1
EndSplineSet
EndChar

StartChar: eacute
Encoding: 233 233 132
Width: 609
Flags: W
LayerCount: 2
Fore
SplineSet
138 611.400390625 m 1,0,-1
 125 649.400390625 l 1,1,-1
 417 747.400390625 l 1,2,-1
 430 709.400390625 l 1,3,-1
 443 671.400390625 l 1,4,-1
 151 573.400390625 l 1,5,-1
 138 611.400390625 l 1,0,-1
506 339 m 1,6,-1
 463 330 l 1,7,8
 454.418945312 370.51171875 454.418945312 370.51171875 436 392 c 0,9,10
 388 448 388 448 305 450.5 c 128,-1,11
 222 453 222 453 175 397 c 0,12,13
 139 354 139 354 133.5 299 c 128,-1,14
 128 244 128 244 149 196.5 c 128,-1,15
 170 149 170 149 209 117 c 0,16,17
 249 83 249 83 294 71.5 c 128,-1,18
 339 60 339 60 391 77.5 c 128,-1,19
 443 95 443 95 487 147 c 1,20,-1
 518 122 l 1,21,-1
 548 96 l 1,22,23
 504 43 504 43 450.5 16 c 128,-1,24
 397 -11 397 -11 345.5 -11.5 c 128,-1,25
 294 -12 294 -12 245.5 5 c 128,-1,26
 197 22 197 22 157 56 c 0,27,28
 119 88 119 88 93.5 134.5 c 128,-1,29
 68 181 68 181 58.5 233.5 c 128,-1,30
 49 286 49 286 62.5 343.5 c 128,-1,31
 76 401 76 401 114 449 c 0,32,33
 162 509 162 509 233 525.5 c 0,34,35
 306 543 306 543 373 520.5 c 0,36,37
 447 496 447 496 494 449 c 0,38,-1
 537 366 l 24,39,-1
 506 339 l 1,6,-1
114 243 m 1,40,-1
 100 281 l 1,41,-1
 487 356 l 1,42,-1
 537 366 l 1,43,-1
 550 288 l 1,44,-1
 128 206 l 1,45,-1
 114 243 l 1,40,-1
EndSplineSet
EndChar

StartChar: ecircumflex
Encoding: 234 234 133
Width: 597
Flags: W
LayerCount: 2
Fore
SplineSet
145 606 m 5,0,-1
 123 639 l 5,1,-1
 269 736 l 6,2,3
 291 751 291 751 313 736 c 6,4,-1
 459 639 l 5,5,-1
 437 606 l 5,6,-1
 415 572 l 5,7,-1
 291 655 l 5,8,-1
 167 572 l 5,9,-1
 145 606 l 5,0,-1
501 339 m 5,10,-1
 458 330 l 5,11,12
 449.418945312 370.51171875 449.418945312 370.51171875 431 392 c 4,13,14
 383 448 383 448 300 450.5 c 132,-1,15
 217 453 217 453 170 397 c 4,16,17
 134 354 134 354 128.5 299 c 132,-1,18
 123 244 123 244 144 196.5 c 132,-1,19
 165 149 165 149 204 117 c 4,20,21
 244 83 244 83 289 71.5 c 132,-1,22
 334 60 334 60 386 77.5 c 132,-1,23
 438 95 438 95 482 147 c 5,24,-1
 513 122 l 5,25,-1
 543 96 l 5,26,27
 499 43 499 43 445.5 16 c 132,-1,28
 392 -11 392 -11 340.5 -11.5 c 132,-1,29
 289 -12 289 -12 240.5 5 c 132,-1,30
 192 22 192 22 152 56 c 4,31,32
 114 88 114 88 88.5 134.5 c 132,-1,33
 63 181 63 181 53.5 233.5 c 132,-1,34
 44 286 44 286 57.5 343.5 c 132,-1,35
 71 401 71 401 109 449 c 4,36,37
 157 509 157 509 228 525.5 c 4,38,39
 301 543 301 543 368 520.5 c 4,40,41
 442 496 442 496 489 449 c 4,42,-1
 532 366 l 28,43,-1
 501 339 l 5,10,-1
109 243 m 5,44,-1
 95 281 l 5,45,-1
 482 356 l 5,46,-1
 532 366 l 5,47,-1
 545 288 l 5,48,-1
 123 206 l 5,49,-1
 109 243 l 5,44,-1
EndSplineSet
EndChar

StartChar: edieresis
Encoding: 235 235 134
Width: 603
Flags: W
LayerCount: 2
Fore
SplineSet
201 583.400390625 m 5,0,-1
 161 583.400390625 l 5,1,-1
 161 676.400390625 l 5,2,-1
 201 676.400390625 l 5,3,-1
 241 676.400390625 l 5,4,-1
 241 583.400390625 l 5,5,-1
 201 583.400390625 l 5,0,-1
395 583.400390625 m 5,6,-1
 355 583.400390625 l 5,7,-1
 355 676.400390625 l 5,8,-1
 395 676.400390625 l 5,9,-1
 435 676.400390625 l 5,10,-1
 435 583.400390625 l 5,11,-1
 395 583.400390625 l 5,6,-1
506 339 m 5,12,-1
 463 330 l 5,13,14
 454.418945312 370.51171875 454.418945312 370.51171875 436 392 c 4,15,16
 388 448 388 448 305 450.5 c 132,-1,17
 222 453 222 453 175 397 c 4,18,19
 139 354 139 354 133.5 299 c 132,-1,20
 128 244 128 244 149 196.5 c 132,-1,21
 170 149 170 149 209 117 c 4,22,23
 249 83 249 83 294 71.5 c 132,-1,24
 339 60 339 60 391 77.5 c 132,-1,25
 443 95 443 95 487 147 c 5,26,-1
 518 122 l 5,27,-1
 548 96 l 5,28,29
 504 43 504 43 450.5 16 c 132,-1,30
 397 -11 397 -11 345.5 -11.5 c 132,-1,31
 294 -12 294 -12 245.5 5 c 132,-1,32
 197 22 197 22 157 56 c 4,33,34
 119 88 119 88 93.5 134.5 c 132,-1,35
 68 181 68 181 58.5 233.5 c 132,-1,36
 49 286 49 286 62.5 343.5 c 132,-1,37
 76 401 76 401 114 449 c 4,38,39
 162 509 162 509 233 525.5 c 4,40,41
 306 543 306 543 373 520.5 c 4,42,43
 447 496 447 496 494 449 c 4,44,-1
 537 366 l 28,45,-1
 506 339 l 5,12,-1
114 243 m 5,46,-1
 100 281 l 5,47,-1
 487 356 l 5,48,-1
 537 366 l 5,49,-1
 550 288 l 5,50,-1
 128 206 l 5,51,-1
 114 243 l 5,46,-1
EndSplineSet
EndChar

StartChar: igrave
Encoding: 236 236 135
Width: 268
Flags: W
LayerCount: 2
Fore
SplineSet
-1 709 m 5,0,-1
 12 747 l 5,1,-1
 304 649 l 5,2,-1
 291 611 l 5,3,-1
 278 573 l 5,4,-1
 -14 671 l 5,5,-1
 -1 709 l 5,0,-1
135 2 m 1,6,-1
 95 2 l 1,7,-1
 95 443 l 1,8,-1
 95 491 l 1,9,-1
 95 531 l 1,10,-1
 155 531 l 2,11,12
 158 531 158 531 160.5 531 c 0,13,14
 164 531 164 531 165 531 c 128,-1,15
 166 531 166 531 168 531 c 128,-1,16
 170 531 170 531 171 530 c 128,-1,17
 172 529 172 529 173 528 c 128,-1,18
 174 527 174 527 174 524.5 c 128,-1,19
 174 522 174 522 174.5 519 c 128,-1,20
 175 516 175 516 175 511 c 2,21,-1
 175 2 l 1,22,-1
 135 2 l 1,6,-1
EndSplineSet
EndChar

StartChar: iacute
Encoding: 237 237 136
Width: 268
Flags: W
LayerCount: 2
Fore
SplineSet
-10 611.400390625 m 5,0,-1
 -23 649.400390625 l 5,1,-1
 269 747.400390625 l 5,2,-1
 282 709.400390625 l 5,3,-1
 295 671.400390625 l 5,4,-1
 3 573.400390625 l 5,5,-1
 -10 611.400390625 l 5,0,-1
135 2 m 1,6,-1
 95 2 l 1,7,-1
 95 443 l 1,8,-1
 95 491 l 1,9,-1
 95 531 l 1,10,-1
 155 531 l 2,11,12
 158 531 158 531 160.5 531 c 0,13,14
 164 531 164 531 165 531 c 128,-1,15
 166 531 166 531 168 531 c 128,-1,16
 170 531 170 531 171 530 c 128,-1,17
 172 529 172 529 173 528 c 128,-1,18
 174 527 174 527 174 524.5 c 128,-1,19
 174 522 174 522 174.5 519 c 128,-1,20
 175 516 175 516 175 511 c 2,21,-1
 175 2 l 1,22,-1
 135 2 l 1,6,-1
EndSplineSet
EndChar

StartChar: icircumflex
Encoding: 238 238 137
Width: 268
Flags: W
LayerCount: 2
Fore
SplineSet
-14 606 m 5,0,-1
 -36 639 l 5,1,-1
 110 736 l 6,2,3
 132 751 132 751 154 736 c 6,4,-1
 300 639 l 5,5,-1
 278 606 l 5,6,-1
 256 572 l 5,7,-1
 132 655 l 5,8,-1
 8 572 l 5,9,-1
 -14 606 l 5,0,-1
135 2 m 1,10,-1
 95 2 l 1,11,-1
 95 443 l 1,12,-1
 95 491 l 1,13,-1
 95 531 l 1,14,-1
 155 531 l 2,15,16
 158 531 158 531 160.5 531 c 0,17,18
 164 531 164 531 165 531 c 128,-1,19
 166 531 166 531 168 531 c 128,-1,20
 170 531 170 531 171 530 c 128,-1,21
 172 529 172 529 173 528 c 128,-1,22
 174 527 174 527 174 524.5 c 128,-1,23
 174 522 174 522 174.5 519 c 128,-1,24
 175 516 175 516 175 511 c 2,25,-1
 175 2 l 1,26,-1
 135 2 l 1,10,-1
EndSplineSet
EndChar

StartChar: idieresis
Encoding: 239 239 138
Width: 268
Flags: W
LayerCount: 2
Fore
SplineSet
37 583.400390625 m 5,0,-1
 -3 583.400390625 l 5,1,-1
 -3 676.400390625 l 5,2,-1
 37 676.400390625 l 5,3,-1
 77 676.400390625 l 5,4,-1
 77 583.400390625 l 5,5,-1
 37 583.400390625 l 5,0,-1
231 583.400390625 m 5,6,-1
 191 583.400390625 l 5,7,-1
 191 676.400390625 l 5,8,-1
 231 676.400390625 l 5,9,-1
 271 676.400390625 l 5,10,-1
 271 583.400390625 l 5,11,-1
 231 583.400390625 l 5,6,-1
135 2 m 1,12,-1
 95 2 l 1,13,-1
 95 443 l 1,14,-1
 95 491 l 1,15,-1
 95 531 l 1,16,-1
 155 531 l 2,17,18
 158 531 158 531 160.5 531 c 0,19,20
 164 531 164 531 165 531 c 128,-1,21
 166 531 166 531 168 531 c 128,-1,22
 170 531 170 531 171 530 c 128,-1,23
 172 529 172 529 173 528 c 128,-1,24
 174 527 174 527 174 524.5 c 128,-1,25
 174 522 174 522 174.5 519 c 128,-1,26
 175 516 175 516 175 511 c 2,27,-1
 175 2 l 1,28,-1
 135 2 l 1,12,-1
EndSplineSet
EndChar

StartChar: ograve
Encoding: 242 242 139
Width: 627
Flags: W
LayerCount: 2
Fore
SplineSet
163 709 m 5,0,-1
 176 747 l 5,1,-1
 468 649 l 5,2,-1
 455 611 l 5,3,-1
 442 573 l 5,4,-1
 150 671 l 5,5,-1
 163 709 l 5,0,-1
171 451 m 5,6,-1
 197 420 l 5,7,8
 148 382 148 382 134.5 345.5 c 4,9,10
 118 299 118 299 124.5 251.5 c 132,-1,11
 131 204 131 204 159 162 c 4,12,13
 192 114 192 114 227.5 94.5 c 4,14,15
 269 72 269 72 322 68 c 4,16,17
 378 64 378 64 433 101 c 5,18,-1
 455 68 l 5,19,-1
 477 34 l 5,20,21
 403 -15 403 -15 324 -11 c 4,22,23
 248 -7 248 -7 188.5 25.5 c 4,24,25
 135 55 135 55 93 117 c 4,26,27
 55 173 55 173 45.5 239.5 c 132,-1,28
 36 306 36 306 59.5 372.5 c 4,29,30
 79 429 79 429 145 482 c 5,31,-1
 171 451 l 5,6,-1
455 68 m 5,32,-1
 429 98 l 5,33,34
 478 137 478 137 491.5 174 c 4,35,36
 513 232 513 232 501 283.5 c 4,37,38
 491 327 491 327 462 369 c 4,39,40
 432 413 432 413 383 433.5 c 132,-1,41
 334 454 334 454 283.5 454 c 4,42,43
 248 454 248 454 193 418 c 5,44,-1
 171 451 l 5,45,-1
 149 484 l 5,46,47
 223 534 223 534 281.5 533.5 c 4,48,49
 368 533 368 533 428.5 501.5 c 4,50,51
 492 467 492 467 528 413 c 4,52,53
 571 348 571 348 580 295 c 4,54,55
 592 218 592 218 566.5 146.5 c 4,56,57
 546 89 546 89 481 37 c 5,58,-1
 455 68 l 5,32,-1
EndSplineSet
EndChar

StartChar: oacute
Encoding: 243 243 140
Width: 627
Flags: W
LayerCount: 2
Fore
SplineSet
144 611.400390625 m 5,0,-1
 131 649.400390625 l 5,1,-1
 423 747.400390625 l 5,2,-1
 436 709.400390625 l 5,3,-1
 449 671.400390625 l 5,4,-1
 157 573.400390625 l 5,5,-1
 144 611.400390625 l 5,0,-1
171 451 m 5,6,-1
 197 420 l 5,7,8
 148 382 148 382 134.5 345.5 c 4,9,10
 118 299 118 299 124.5 251.5 c 132,-1,11
 131 204 131 204 159 162 c 4,12,13
 192 114 192 114 227.5 94.5 c 4,14,15
 269 72 269 72 322 68 c 4,16,17
 378 64 378 64 433 101 c 5,18,-1
 455 68 l 5,19,-1
 477 34 l 5,20,21
 403 -15 403 -15 324 -11 c 4,22,23
 248 -7 248 -7 188.5 25.5 c 4,24,25
 135 55 135 55 93 117 c 4,26,27
 55 173 55 173 45.5 239.5 c 132,-1,28
 36 306 36 306 59.5 372.5 c 4,29,30
 79 429 79 429 145 482 c 5,31,-1
 171 451 l 5,6,-1
455 68 m 5,32,-1
 429 98 l 5,33,34
 478 137 478 137 491.5 174 c 4,35,36
 513 232 513 232 501 283.5 c 4,37,38
 491 327 491 327 462 369 c 4,39,40
 432 413 432 413 383 433.5 c 132,-1,41
 334 454 334 454 283.5 454 c 4,42,43
 248 454 248 454 193 418 c 5,44,-1
 171 451 l 5,45,-1
 149 484 l 5,46,47
 223 534 223 534 281.5 533.5 c 4,48,49
 368 533 368 533 428.5 501.5 c 4,50,51
 492 467 492 467 528 413 c 4,52,53
 571 348 571 348 580 295 c 4,54,55
 592 218 592 218 566.5 146.5 c 4,56,57
 546 89 546 89 481 37 c 5,58,-1
 455 68 l 5,32,-1
EndSplineSet
EndChar

StartChar: ocircumflex
Encoding: 244 244 141
Width: 627
Flags: W
LayerCount: 2
Fore
SplineSet
155 606 m 5,0,-1
 133 639 l 5,1,-1
 279 736 l 6,2,3
 301 751 301 751 323 736 c 6,4,-1
 469 639 l 5,5,-1
 447 606 l 5,6,-1
 425 572 l 5,7,-1
 301 655 l 5,8,-1
 177 572 l 5,9,-1
 155 606 l 5,0,-1
171 451 m 5,10,-1
 197 420 l 5,11,12
 148 382 148 382 134.5 345.5 c 4,13,14
 118 299 118 299 124.5 251.5 c 132,-1,15
 131 204 131 204 159 162 c 4,16,17
 192 114 192 114 227.5 94.5 c 4,18,19
 269 72 269 72 322 68 c 4,20,21
 378 64 378 64 433 101 c 5,22,-1
 455 68 l 5,23,-1
 477 34 l 5,24,25
 403 -15 403 -15 324 -11 c 4,26,27
 248 -7 248 -7 188.5 25.5 c 4,28,29
 135 55 135 55 93 117 c 4,30,31
 55 173 55 173 45.5 239.5 c 132,-1,32
 36 306 36 306 59.5 372.5 c 4,33,34
 79 429 79 429 145 482 c 5,35,-1
 171 451 l 5,10,-1
455 68 m 5,36,-1
 429 98 l 5,37,38
 478 137 478 137 491.5 174 c 4,39,40
 513 232 513 232 501 283.5 c 4,41,42
 491 327 491 327 462 369 c 4,43,44
 432 413 432 413 383 433.5 c 132,-1,45
 334 454 334 454 283.5 454 c 4,46,47
 248 454 248 454 193 418 c 5,48,-1
 171 451 l 5,49,-1
 149 484 l 5,50,51
 223 534 223 534 281.5 533.5 c 4,52,53
 368 533 368 533 428.5 501.5 c 4,54,55
 492 467 492 467 528 413 c 4,56,57
 571 348 571 348 580 295 c 4,58,59
 592 218 592 218 566.5 146.5 c 4,60,61
 546 89 546 89 481 37 c 5,62,-1
 455 68 l 5,36,-1
EndSplineSet
EndChar

StartChar: odieresis
Encoding: 246 246 142
Width: 627
Flags: W
LayerCount: 2
Fore
SplineSet
206 583.400390625 m 5,0,-1
 166 583.400390625 l 5,1,-1
 166 676.400390625 l 5,2,-1
 206 676.400390625 l 5,3,-1
 246 676.400390625 l 5,4,-1
 246 583.400390625 l 5,5,-1
 206 583.400390625 l 5,0,-1
400 583.400390625 m 5,6,-1
 360 583.400390625 l 5,7,-1
 360 676.400390625 l 5,8,-1
 400 676.400390625 l 5,9,-1
 440 676.400390625 l 5,10,-1
 440 583.400390625 l 5,11,-1
 400 583.400390625 l 5,6,-1
171 451 m 5,12,-1
 197 420 l 5,13,14
 148 382 148 382 134.5 345.5 c 4,15,16
 118 299 118 299 124.5 251.5 c 132,-1,17
 131 204 131 204 159 162 c 4,18,19
 192 114 192 114 227.5 94.5 c 4,20,21
 269 72 269 72 322 68 c 4,22,23
 378 64 378 64 433 101 c 5,24,-1
 455 68 l 5,25,-1
 477 34 l 5,26,27
 403 -15 403 -15 324 -11 c 4,28,29
 248 -7 248 -7 188.5 25.5 c 4,30,31
 135 55 135 55 93 117 c 4,32,33
 55 173 55 173 45.5 239.5 c 132,-1,34
 36 306 36 306 59.5 372.5 c 4,35,36
 79 429 79 429 145 482 c 5,37,-1
 171 451 l 5,12,-1
455 68 m 5,38,-1
 429 98 l 5,39,40
 478 137 478 137 491.5 174 c 4,41,42
 513 232 513 232 501 283.5 c 4,43,44
 491 327 491 327 462 369 c 4,45,46
 432 413 432 413 383 433.5 c 132,-1,47
 334 454 334 454 283.5 454 c 4,48,49
 248 454 248 454 193 418 c 5,50,-1
 171 451 l 5,51,-1
 149 484 l 5,52,53
 223 534 223 534 281.5 533.5 c 4,54,55
 368 533 368 533 428.5 501.5 c 4,56,57
 492 467 492 467 528 413 c 4,58,59
 571 348 571 348 580 295 c 4,60,61
 592 218 592 218 566.5 146.5 c 4,62,63
 546 89 546 89 481 37 c 5,64,-1
 455 68 l 5,38,-1
EndSplineSet
EndChar

StartChar: oslash
Encoding: 248 248 143
Width: 627
Flags: W
LayerCount: 2
Fore
SplineSet
539 496 m 5,0,-1
 568.295898438 468.310546875 l 5,1,-1
 118.694335938 -8.236328125 l 5,2,-1
 89.3974609375 19.4541015625 l 5,3,-1
 60.1015625 47.1435546875 l 5,4,-1
 509.703125 523.690429688 l 5,5,-1
 539 496 l 5,0,-1
170 451 m 5,6,-1
 196 420 l 5,7,8
 147 382 147 382 133.5 345.5 c 4,9,10
 117 299 117 299 123.5 251.5 c 132,-1,11
 130 204 130 204 158 162 c 4,12,13
 191 114 191 114 226.5 94.5 c 4,14,15
 268 72 268 72 321 68 c 4,16,17
 377 64 377 64 432 101 c 5,18,-1
 454 68 l 5,19,-1
 476 34 l 5,20,21
 402 -15 402 -15 323 -11 c 4,22,23
 247 -7 247 -7 187.5 25.5 c 4,24,25
 134 55 134 55 92 117 c 4,26,27
 54 173 54 173 44.5 239.5 c 132,-1,28
 35 306 35 306 58.5 372.5 c 4,29,30
 78 429 78 429 144 482 c 5,31,-1
 170 451 l 5,6,-1
454 68 m 5,32,-1
 428 98 l 5,33,34
 477 137 477 137 490.5 174 c 4,35,36
 512 232 512 232 500 283.5 c 4,37,38
 490 327 490 327 461 369 c 4,39,40
 431 413 431 413 382 433.5 c 132,-1,41
 333 454 333 454 282.5 454 c 4,42,43
 247 454 247 454 192 418 c 5,44,-1
 170 451 l 5,45,-1
 148 484 l 5,46,47
 222 534 222 534 280.5 533.5 c 4,48,49
 367 533 367 533 427.5 501.5 c 4,50,51
 491 467 491 467 527 413 c 4,52,53
 570 348 570 348 579 295 c 4,54,55
 591 218 591 218 565.5 146.5 c 4,56,57
 545 89 545 89 480 37 c 5,58,-1
 454 68 l 5,32,-1
EndSplineSet
EndChar

StartChar: ugrave
Encoding: 249 249 144
Width: 576
Flags: W
LayerCount: 2
Fore
SplineSet
138 709 m 5,0,-1
 151 747 l 5,1,-1
 443 649 l 5,2,-1
 430 611 l 5,3,-1
 417 573 l 5,4,-1
 125 671 l 5,5,-1
 138 709 l 5,0,-1
486 39 m 1,6,-1
 486 -1 l 1,7,-1
 426 -1 l 2,8,9
 419 -1 419 -1 415.5 -0.5 c 128,-1,10
 412 0 412 0 409.5 0.5 c 128,-1,11
 407 1 407 1 406.5 3 c 128,-1,12
 406 5 406 5 405.5 6 c 128,-1,13
 405 7 405 7 405.5 12 c 128,-1,14
 406 17 406 17 406 19 c 2,15,-1
 406 452 l 1,16,-1
 406 492 l 1,17,-1
 406 532 l 1,18,-1
 466 532 l 2,19,20
 469 532 469 532 472 532 c 0,21,22
 476 532 476 532 477 532 c 128,-1,23
 478 532 478 532 480.5 531.5 c 128,-1,24
 483 531 483 531 483.5 530 c 128,-1,25
 484 529 484 529 484.5 526.5 c 128,-1,26
 485 524 485 524 485.5 520.5 c 128,-1,27
 486 517 486 517 486 512 c 2,28,-1
 486 79 l 1,29,-1
 486 39 l 1,6,-1
446 118 m 1,30,-1
 471 88 l 1,31,32
 414 39 414 39 350.5 13.5 c 128,-1,33
 287 -12 287 -12 230 -12 c 0,34,35
 168 -12 168 -12 124 22 c 128,-1,36
 80 56 80 56 80 118 c 2,37,-1
 80 452 l 1,38,-1
 80 492 l 1,39,-1
 80 532 l 1,40,-1
 140 532 l 2,41,42
 143 532 143 532 146 532 c 0,43,44
 150 532 150 532 151 532 c 128,-1,45
 152 532 152 532 154.5 531.5 c 128,-1,46
 157 531 157 531 157.5 530 c 128,-1,47
 158 529 158 529 158.5 526.5 c 128,-1,48
 159 524 159 524 159.5 520.5 c 128,-1,49
 160 517 160 517 160 512 c 2,50,-1
 160 118 l 2,51,52
 160 68 160 68 230 68 c 0,53,54
 256 68 256 68 286.5 76.5 c 128,-1,55
 317 85 317 85 352.5 103.5 c 128,-1,56
 388 122 388 122 420 149 c 1,57,-1
 446 118 l 1,30,-1
EndSplineSet
EndChar

StartChar: uacute
Encoding: 250 250 145
Width: 576
Flags: W
LayerCount: 2
Fore
SplineSet
132 611.400390625 m 5,0,-1
 119 649.400390625 l 5,1,-1
 411 747.400390625 l 5,2,-1
 424 709.400390625 l 5,3,-1
 437 671.400390625 l 5,4,-1
 145 573.400390625 l 5,5,-1
 132 611.400390625 l 5,0,-1
486 39 m 1,6,-1
 486 -1 l 1,7,-1
 426 -1 l 2,8,9
 419 -1 419 -1 415.5 -0.5 c 128,-1,10
 412 0 412 0 409.5 0.5 c 128,-1,11
 407 1 407 1 406.5 3 c 128,-1,12
 406 5 406 5 405.5 6 c 128,-1,13
 405 7 405 7 405.5 12 c 128,-1,14
 406 17 406 17 406 19 c 2,15,-1
 406 452 l 1,16,-1
 406 492 l 1,17,-1
 406 532 l 1,18,-1
 466 532 l 2,19,20
 469 532 469 532 472 532 c 0,21,22
 476 532 476 532 477 532 c 128,-1,23
 478 532 478 532 480.5 531.5 c 128,-1,24
 483 531 483 531 483.5 530 c 128,-1,25
 484 529 484 529 484.5 526.5 c 128,-1,26
 485 524 485 524 485.5 520.5 c 128,-1,27
 486 517 486 517 486 512 c 2,28,-1
 486 79 l 1,29,-1
 486 39 l 1,6,-1
446 118 m 1,30,-1
 471 88 l 1,31,32
 414 39 414 39 350.5 13.5 c 128,-1,33
 287 -12 287 -12 230 -12 c 0,34,35
 168 -12 168 -12 124 22 c 128,-1,36
 80 56 80 56 80 118 c 2,37,-1
 80 452 l 1,38,-1
 80 492 l 1,39,-1
 80 532 l 1,40,-1
 140 532 l 2,41,42
 143 532 143 532 146 532 c 0,43,44
 150 532 150 532 151 532 c 128,-1,45
 152 532 152 532 154.5 531.5 c 128,-1,46
 157 531 157 531 157.5 530 c 128,-1,47
 158 529 158 529 158.5 526.5 c 128,-1,48
 159 524 159 524 159.5 520.5 c 128,-1,49
 160 517 160 517 160 512 c 2,50,-1
 160 118 l 2,51,52
 160 68 160 68 230 68 c 0,53,54
 256 68 256 68 286.5 76.5 c 128,-1,55
 317 85 317 85 352.5 103.5 c 128,-1,56
 388 122 388 122 420 149 c 1,57,-1
 446 118 l 1,30,-1
EndSplineSet
EndChar

StartChar: ucircumflex
Encoding: 251 251 146
Width: 576
Flags: W
LayerCount: 2
Fore
SplineSet
137 606 m 5,0,-1
 115 639 l 5,1,-1
 261 736 l 6,2,3
 283 751 283 751 305 736 c 6,4,-1
 451 639 l 5,5,-1
 429 606 l 5,6,-1
 407 572 l 5,7,-1
 283 655 l 5,8,-1
 159 572 l 5,9,-1
 137 606 l 5,0,-1
486 39 m 1,10,-1
 486 -1 l 1,11,-1
 426 -1 l 2,12,13
 419 -1 419 -1 415.5 -0.5 c 128,-1,14
 412 0 412 0 409.5 0.5 c 128,-1,15
 407 1 407 1 406.5 3 c 128,-1,16
 406 5 406 5 405.5 6 c 128,-1,17
 405 7 405 7 405.5 12 c 128,-1,18
 406 17 406 17 406 19 c 2,19,-1
 406 452 l 1,20,-1
 406 492 l 1,21,-1
 406 532 l 1,22,-1
 466 532 l 2,23,24
 469 532 469 532 472 532 c 0,25,26
 476 532 476 532 477 532 c 128,-1,27
 478 532 478 532 480.5 531.5 c 128,-1,28
 483 531 483 531 483.5 530 c 128,-1,29
 484 529 484 529 484.5 526.5 c 128,-1,30
 485 524 485 524 485.5 520.5 c 128,-1,31
 486 517 486 517 486 512 c 2,32,-1
 486 79 l 1,33,-1
 486 39 l 1,10,-1
446 118 m 1,34,-1
 471 88 l 1,35,36
 414 39 414 39 350.5 13.5 c 128,-1,37
 287 -12 287 -12 230 -12 c 0,38,39
 168 -12 168 -12 124 22 c 128,-1,40
 80 56 80 56 80 118 c 2,41,-1
 80 452 l 1,42,-1
 80 492 l 1,43,-1
 80 532 l 1,44,-1
 140 532 l 2,45,46
 143 532 143 532 146 532 c 0,47,48
 150 532 150 532 151 532 c 128,-1,49
 152 532 152 532 154.5 531.5 c 128,-1,50
 157 531 157 531 157.5 530 c 128,-1,51
 158 529 158 529 158.5 526.5 c 128,-1,52
 159 524 159 524 159.5 520.5 c 128,-1,53
 160 517 160 517 160 512 c 2,54,-1
 160 118 l 2,55,56
 160 68 160 68 230 68 c 0,57,58
 256 68 256 68 286.5 76.5 c 128,-1,59
 317 85 317 85 352.5 103.5 c 128,-1,60
 388 122 388 122 420 149 c 1,61,-1
 446 118 l 1,34,-1
EndSplineSet
EndChar

StartChar: udieresis
Encoding: 252 252 147
Width: 576
Flags: W
LayerCount: 2
Fore
SplineSet
183 583.400390625 m 5,0,-1
 143 583.400390625 l 5,1,-1
 143 676.400390625 l 5,2,-1
 183 676.400390625 l 5,3,-1
 223 676.400390625 l 5,4,-1
 223 583.400390625 l 5,5,-1
 183 583.400390625 l 5,0,-1
377 583.400390625 m 5,6,-1
 337 583.400390625 l 5,7,-1
 337 676.400390625 l 5,8,-1
 377 676.400390625 l 5,9,-1
 417 676.400390625 l 5,10,-1
 417 583.400390625 l 5,11,-1
 377 583.400390625 l 5,6,-1
486 39 m 1,12,-1
 486 -1 l 1,13,-1
 426 -1 l 2,14,15
 419 -1 419 -1 415.5 -0.5 c 128,-1,16
 412 0 412 0 409.5 0.5 c 128,-1,17
 407 1 407 1 406.5 3 c 128,-1,18
 406 5 406 5 405.5 6 c 128,-1,19
 405 7 405 7 405.5 12 c 128,-1,20
 406 17 406 17 406 19 c 2,21,-1
 406 452 l 1,22,-1
 406 492 l 1,23,-1
 406 532 l 1,24,-1
 466 532 l 2,25,26
 469 532 469 532 472 532 c 0,27,28
 476 532 476 532 477 532 c 128,-1,29
 478 532 478 532 480.5 531.5 c 128,-1,30
 483 531 483 531 483.5 530 c 128,-1,31
 484 529 484 529 484.5 526.5 c 128,-1,32
 485 524 485 524 485.5 520.5 c 128,-1,33
 486 517 486 517 486 512 c 2,34,-1
 486 79 l 1,35,-1
 486 39 l 1,12,-1
446 118 m 1,36,-1
 471 88 l 1,37,38
 414 39 414 39 350.5 13.5 c 128,-1,39
 287 -12 287 -12 230 -12 c 0,40,41
 168 -12 168 -12 124 22 c 128,-1,42
 80 56 80 56 80 118 c 2,43,-1
 80 452 l 1,44,-1
 80 492 l 1,45,-1
 80 532 l 1,46,-1
 140 532 l 2,47,48
 143 532 143 532 146 532 c 0,49,50
 150 532 150 532 151 532 c 128,-1,51
 152 532 152 532 154.5 531.5 c 128,-1,52
 157 531 157 531 157.5 530 c 128,-1,53
 158 529 158 529 158.5 526.5 c 128,-1,54
 159 524 159 524 159.5 520.5 c 128,-1,55
 160 517 160 517 160 512 c 2,56,-1
 160 118 l 2,57,58
 160 68 160 68 230 68 c 0,59,60
 256 68 256 68 286.5 76.5 c 128,-1,61
 317 85 317 85 352.5 103.5 c 128,-1,62
 388 122 388 122 420 149 c 1,63,-1
 446 118 l 1,36,-1
EndSplineSet
EndChar

StartChar: yacute
Encoding: 253 253 148
Width: 603
Flags: W
LayerCount: 2
Fore
SplineSet
153 611.400390625 m 5,0,-1
 140 649.400390625 l 5,1,-1
 432 747.400390625 l 5,2,-1
 445 709.400390625 l 5,3,-1
 458 671.400390625 l 5,4,-1
 166 573.400390625 l 5,5,-1
 153 611.400390625 l 5,0,-1
486 131 m 1,6,-1
 511 101 l 1,7,8
 485 79 485 79 457 60.5 c 128,-1,9
 429 42 429 42 401.5 28.5 c 128,-1,10
 374 15 374 15 346 6 c 128,-1,11
 318 -3 318 -3 291.5 -7.5 c 128,-1,12
 265 -12 265 -12 239 -12 c 0,13,14
 170 -12 170 -12 121.5 25.5 c 128,-1,15
 73 63 73 63 73 131 c 2,16,-1
 73 451 l 1,17,-1
 74 451 l 1,18,-1
 74 491 l 1,19,-1
 74 531 l 1,20,-1
 133 531 l 2,21,22
 136 531 136 531 139 531 c 128,-1,23
 142 531 142 531 143.5 531 c 128,-1,24
 145 531 145 531 147 531 c 128,-1,25
 149 531 149 531 149.5 530 c 128,-1,26
 150 529 150 529 151 528 c 128,-1,27
 152 527 152 527 152.5 524.5 c 128,-1,28
 153 522 153 522 153 519 c 128,-1,29
 153 516 153 516 153 511 c 2,30,-1
 153 131 l 2,31,32
 153 68 153 68 239 68 c 0,33,34
 287 68 287 68 346 92 c 128,-1,35
 405 116 405 116 460 162 c 1,36,-1
 486 131 l 1,6,-1
486 532 m 1,37,-1
 526 532 l 1,38,-1
 526 -36 l 2,39,40
 526 -99 526 -99 486 -146 c 0,41,42
 445 -196 445 -196 377 -212.5 c 128,-1,43
 309 -229 309 -229 231.5 -208.5 c 128,-1,44
 154 -188 154 -188 87 -132 c 1,45,-1
 113 -102 l 1,46,-1
 139 -71 l 1,47,48
 192 -116 192 -116 252.5 -130.5 c 128,-1,49
 313 -145 313 -145 357.5 -134 c 128,-1,50
 402 -123 402 -123 425 -95 c 0,51,52
 446 -70 446 -70 446 -36 c 2,53,-1
 446 532 l 1,54,-1
 486 532 l 1,37,-1
EndSplineSet
EndChar

StartChar: ydieresis
Encoding: 255 255 149
Width: 603
Flags: W
LayerCount: 2
Fore
SplineSet
203 583.400390625 m 5,0,-1
 163 583.400390625 l 5,1,-1
 163 676.400390625 l 5,2,-1
 203 676.400390625 l 5,3,-1
 243 676.400390625 l 5,4,-1
 243 583.400390625 l 5,5,-1
 203 583.400390625 l 5,0,-1
397 583.400390625 m 5,6,-1
 357 583.400390625 l 5,7,-1
 357 676.400390625 l 5,8,-1
 397 676.400390625 l 5,9,-1
 437 676.400390625 l 5,10,-1
 437 583.400390625 l 5,11,-1
 397 583.400390625 l 5,6,-1
486 131 m 1,12,-1
 511 101 l 1,13,14
 485 79 485 79 457 60.5 c 128,-1,15
 429 42 429 42 401.5 28.5 c 128,-1,16
 374 15 374 15 346 6 c 128,-1,17
 318 -3 318 -3 291.5 -7.5 c 128,-1,18
 265 -12 265 -12 239 -12 c 0,19,20
 170 -12 170 -12 121.5 25.5 c 128,-1,21
 73 63 73 63 73 131 c 2,22,-1
 73 451 l 1,23,-1
 74 451 l 1,24,-1
 74 491 l 1,25,-1
 74 531 l 1,26,-1
 133 531 l 2,27,28
 136 531 136 531 139 531 c 128,-1,29
 142 531 142 531 143.5 531 c 128,-1,30
 145 531 145 531 147 531 c 128,-1,31
 149 531 149 531 149.5 530 c 128,-1,32
 150 529 150 529 151 528 c 128,-1,33
 152 527 152 527 152.5 524.5 c 128,-1,34
 153 522 153 522 153 519 c 128,-1,35
 153 516 153 516 153 511 c 2,36,-1
 153 131 l 2,37,38
 153 68 153 68 239 68 c 0,39,40
 287 68 287 68 346 92 c 128,-1,41
 405 116 405 116 460 162 c 1,42,-1
 486 131 l 1,12,-1
486 532 m 1,43,-1
 526 532 l 1,44,-1
 526 -36 l 2,45,46
 526 -99 526 -99 486 -146 c 0,47,48
 445 -196 445 -196 377 -212.5 c 128,-1,49
 309 -229 309 -229 231.5 -208.5 c 128,-1,50
 154 -188 154 -188 87 -132 c 1,51,-1
 113 -102 l 1,52,-1
 139 -71 l 1,53,54
 192 -116 192 -116 252.5 -130.5 c 128,-1,55
 313 -145 313 -145 357.5 -134 c 128,-1,56
 402 -123 402 -123 425 -95 c 0,57,58
 446 -70 446 -70 446 -36 c 2,59,-1
 446 532 l 1,60,-1
 486 532 l 1,43,-1
EndSplineSet
EndChar
